<svg width="184" height="50" viewBox="0 0 184 50" fill="none" xmlns="http://www.w3.org/2000/svg">
    <g clip-path="url(#9z3wqxhnoa)" fill="#fff">
        <path d="M116.266 13.766v17.418h4.387V13.766h-4.387zM62.88 28.275H46.064v-14.51h-4.387v17.419H62.88v-2.909zM65.805 31.184V13.766H87.01v2.9H70.192v4.354h10.973v2.9H70.192v4.355H87.01v2.909H65.805zM113.336 13.766h-5.12l-6.577 6.269-6.577-6.27h-5.12l9.14 8.71-9.14 8.709h5.12l6.577-6.278 6.577 6.278h5.12l-9.141-8.71 9.141-8.708zM172.562 13.766V27.16l-14.62-13.394h-4.387v17.418h4.387V17.78l14.62 13.403h4.387V13.766h-4.387zM143.721 28.275a1.09 1.09 0 0 0 1.099-1.09v-9.412a1.09 1.09 0 0 0-1.083-1.107H131.25c-.61 0-1.098.493-1.09 1.099V27.193c0 .598.488 1.074 1.09 1.082h12.471zM125.813 15.22c0-.8.643-1.446 1.449-1.454h20.48c.806 0 1.457.638 1.466 1.438v14.558c0 .8-.66 1.454-1.466 1.454h-20.513a1.455 1.455 0 0 1-1.416-1.487V15.22z"/>
        <path d="m12.878 19.834 6.137-8.968 3.134 4.589a194.492 194.492 0 0 0-9.271 4.379zm99.098-17.41S105.285 0 87.002 0c-23.28 0-46.13 7.513-61.483 13.993l-6.512-8.936L0 31.184h5.12l2.353-3.441c2.206-1.309 8.392-4.888 16.915-9.024l8.515 12.465h5.12l-10.24-14.073C43.891 9.598 66.667 1.066 87.017 1.066c18.25 0 24.608 1.947 24.608 1.947a.367.367 0 0 0 .431-.29.336.336 0 0 0-.081-.3zM118.487 11.594a.386.386 0 0 1-.366-.364c0-.476.594-1.43-.895-3.99-1.498-2.562-2.63-2.53-3.037-2.764a.364.364 0 0 1-.13-.5.372.372 0 0 1 .497-.13c.415.234.952 1.22 3.931 1.22 2.98 0 3.517-.986 3.932-1.22a.372.372 0 0 1 .497.13.374.374 0 0 1-.131.5c-.415.235-1.546.202-3.036 2.771-1.49 2.561-.895 3.523-.904 3.991a.363.363 0 0 1-.366.364l.008-.008zM181.459 14.235h-.553v.72h.602c.22 0 .423-.098.423-.356s-.236-.364-.472-.364zm.472 2.254-.423-1.098h-.602v1.098h-.497v-2.754h.92c.635 0 1.115.145 1.115.88 0 .396-.155.517-.472.67l.505 1.172-.546.032zm-.537-3.49a2.208 2.208 0 0 0-2.214 2.198c0 1.212.993 2.197 2.214 2.197a2.208 2.208 0 0 0 2.214-2.197 2.218 2.218 0 0 0-2.214-2.198zm0 4.775a2.592 2.592 0 0 1-2.605-2.585 2.592 2.592 0 0 1 2.605-2.585 2.592 2.592 0 0 1 2.605 2.585c0 1.422-1.172 2.577-2.605 2.577v.008zM5.853 38.98l4.257 10.818H8.482l-1.188-3.232H2.71l-1.23 3.232H0L4.241 38.98h1.612zm1.01 6.35-1.824-5.04-1.872 5.04h3.695zM11.712 48.052c.122.194.285.356.48.469.212.121.44.202.676.25.253.049.505.073.765.073.212 0 .432-.016.644-.04.211-.033.423-.09.618-.17.18-.08.342-.202.464-.355a.92.92 0 0 0 .187-.598.864.864 0 0 0-.382-.76 3.431 3.431 0 0 0-.953-.412c-.382-.113-.814-.202-1.245-.29a6.665 6.665 0 0 1-1.246-.364 2.53 2.53 0 0 1-.952-.662 1.642 1.642 0 0 1-.383-1.18 1.873 1.873 0 0 1 .27-1.018c.17-.275.406-.517.683-.687.293-.185.61-.315.944-.395.342-.081.7-.13 1.05-.13.415 0 .83.032 1.237.113.35.073.692.202.994.396.293.186.537.453.7.76.187.371.285.775.3 1.187H15.27c0-.218-.066-.42-.163-.614a1.342 1.342 0 0 0-.432-.396 1.81 1.81 0 0 0-.57-.218 2.834 2.834 0 0 0-.634-.073c-.196 0-.391.017-.587.049a1.831 1.831 0 0 0-.545.154 1.147 1.147 0 0 0-.399.306.818.818 0 0 0-.146.493c0 .21.081.412.236.55.179.161.382.282.602.363.26.105.537.186.814.242l.912.21c.325.065.643.146.96.251.285.097.562.234.814.404.236.17.432.38.578.63.155.291.228.614.22.937.016.412-.09.824-.293 1.188a2.26 2.26 0 0 1-.814.751c-.334.202-.7.34-1.083.404-.39.073-.797.113-1.196.113-.424 0-.839-.048-1.254-.137a3.095 3.095 0 0 1-1.05-.444 2.254 2.254 0 0 1-.732-.808 2.94 2.94 0 0 1-.285-1.26h1.302c0 .25.065.5.187.718zM21.392 42.01v1.139h-1.57v4.847a1.366 1.366 0 0 0 0 .364c.024.08.073.161.146.21.09.056.195.088.301.097.163.008.334.008.497 0h.594v1.13h-.96c-.294 0-.579-.016-.864-.064a1.277 1.277 0 0 1-.578-.25 1.041 1.041 0 0 1-.333-.517 3.168 3.168 0 0 1-.106-.873v-4.985h-1.343V42.01h1.343v-2.424h1.302v2.424h1.571zM23.925 42.01v1.616a3.53 3.53 0 0 1 1.156-1.406 2.935 2.935 0 0 1 1.742-.428v1.365a3.9 3.9 0 0 0-1.326.21 2.21 2.21 0 0 0-.888.622c-.228.291-.399.63-.488.994a5.298 5.298 0 0 0-.147 1.341v3.482h-1.302V42.01h1.253zM34.846 49.774c-.293.146-.61.21-.936.194a1.075 1.075 0 0 1-.814-.283 1.18 1.18 0 0 1-.301-.912 3.042 3.042 0 0 1-1.246.912c-.488.194-1.009.291-1.53.283-.342 0-.684-.04-1.017-.121a2.342 2.342 0 0 1-.814-.38 1.712 1.712 0 0 1-.554-.67 2.275 2.275 0 0 1-.212-1.01c-.008-.38.066-.751.228-1.09.147-.275.359-.51.61-.687.261-.186.546-.324.856-.404.317-.09.65-.17.977-.227.358-.072.7-.12 1.017-.161.277-.024.545-.08.814-.154a1.43 1.43 0 0 0 .578-.282.689.689 0 0 0 .22-.558 1.328 1.328 0 0 0-.163-.678 1.027 1.027 0 0 0-.415-.396 1.523 1.523 0 0 0-.562-.178 3.991 3.991 0 0 0-.619-.049 2.791 2.791 0 0 0-1.375.307c-.391.275-.603.736-.562 1.204h-1.294c0-.428.106-.848.301-1.228.18-.323.431-.598.733-.808.317-.21.675-.363 1.05-.452a5.541 5.541 0 0 1 1.261-.137c.359 0 .709.032 1.059.08a2.8 2.8 0 0 1 .952.307c.285.154.521.388.684.663.187.331.285.719.26 1.099v4.039c-.008.226.008.444.057.663 0 .145.155.21.358.21.139 0 .27-.025.4-.057v.961zm-2.108-4.04a1.442 1.442 0 0 1-.643.26 8.974 8.974 0 0 1-.814.137l-.88.121c-.276.04-.553.113-.813.218a1.52 1.52 0 0 0-.578.428 1.2 1.2 0 0 0-.22.808c0 .186.04.372.13.533.082.146.196.267.334.356.146.089.31.161.48.194.196.04.391.056.586.056a3.36 3.36 0 0 0 1.1-.17c.276-.096.528-.242.74-.436.18-.161.326-.355.432-.573.08-.186.13-.38.138-.582v-1.35h.008zM42.46 40.2H36.2v-1.22h7.97v1.22l-6.757 8.386h6.944v1.212h-8.67v-1.212L42.46 40.2zM51.062 49.281a3.568 3.568 0 0 1-2.223.663 4.158 4.158 0 0 1-1.628-.3 3.08 3.08 0 0 1-1.164-.807 3.682 3.682 0 0 1-.716-1.309 6.381 6.381 0 0 1-.26-1.616c0-.55.089-1.099.268-1.616.187-.476.464-.913.814-1.284a3.534 3.534 0 0 1 1.172-.808c.472-.21.977-.307 1.49-.307.61-.024 1.22.13 1.75.436a3.36 3.36 0 0 1 1.115 1.099c.277.444.472.937.578 1.454.106.493.147.994.13 1.495h-5.966c-.009.331.032.662.122.977a2.195 2.195 0 0 0 1.22 1.374c.35.145.733.218 1.116.21.488 0 .969-.17 1.351-.469.366-.283.619-.695.692-1.155h1.278a3.078 3.078 0 0 1-1.14 1.963zm-.31-5.033a2.062 2.062 0 0 0-.472-.703 2.049 2.049 0 0 0-.7-.468 2.136 2.136 0 0 0-.895-.178c-.31 0-.627.056-.912.178a2.158 2.158 0 0 0-1.148 1.179c-.114.275-.179.566-.203.856h4.501a2.456 2.456 0 0 0-.17-.84v-.024zM54.67 42.01v1.243a2.723 2.723 0 0 1 2.564-1.43c.44-.016.88.057 1.295.218.317.13.594.332.814.59.244.243.431.533.537.857.09.38.13.775.13 1.163v5.146h-1.302v-5.3a1.516 1.516 0 0 0-.456-1.147 1.666 1.666 0 0 0-1.18-.428c-.35 0-.7.057-1.026.186-.277.113-.53.283-.724.509-.204.234-.35.509-.44.808a3.307 3.307 0 0 0-.147.977v4.42H53.45v-7.813h1.221zM66.862 49.281a3.567 3.567 0 0 1-2.222.663 4.158 4.158 0 0 1-1.628-.3 3.078 3.078 0 0 1-1.164-.807 3.682 3.682 0 0 1-.716-1.309 6.381 6.381 0 0 1-.26-1.616c0-.55.089-1.099.268-1.616.187-.476.464-.913.814-1.284a3.536 3.536 0 0 1 1.172-.808c.472-.21.977-.307 1.49-.307.61-.024 1.22.13 1.75.436.456.275.83.655 1.115 1.099.277.444.472.937.578 1.454.106.493.146.994.13 1.495h-5.967c0 .29.025.581.098.864.09.3.244.574.448.808.228.25.504.444.814.566.35.145.732.218 1.115.21.472.024.936-.097 1.335-.356.374-.283.619-.687.692-1.147h1.294a3.096 3.096 0 0 1-1.156 1.955zm-.31-5.009a2.22 2.22 0 0 0-2.067-1.349c-.309 0-.627.057-.911.178a2.157 2.157 0 0 0-1.148 1.18c-.114.274-.18.565-.204.856h4.534a2.63 2.63 0 0 0-.203-.865zM73.993 43.335a1.969 1.969 0 0 0-1.31-.413 2.56 2.56 0 0 0-1.172.26c-.31.16-.57.395-.757.678-.196.299-.334.63-.407.977a5.44 5.44 0 0 0-.122 1.147c0 .356.04.711.13 1.059.073.331.212.638.407.92.179.267.431.486.716.639.326.17.684.25 1.05.242a2.129 2.129 0 0 0 1.506-.5c.383-.38.61-.873.66-1.406h1.335a3.66 3.66 0 0 1-1.091 2.246 3.486 3.486 0 0 1-2.393.808 4.008 4.008 0 0 1-1.628-.291 3.08 3.08 0 0 1-1.165-.808 3.634 3.634 0 0 1-.7-1.26 5.43 5.43 0 0 1-.236-1.616c0-.55.082-1.09.228-1.616.139-.485.375-.937.7-1.333.318-.38.717-.687 1.164-.889a3.89 3.89 0 0 1 1.629-.33c.423 0 .846.056 1.253.16.374.098.733.267 1.042.493.301.219.553.493.74.808.204.372.326.784.367 1.204h-1.302a1.94 1.94 0 0 0-.644-1.18zM84.176 49.774c-.293.146-.61.21-.936.194a1.075 1.075 0 0 1-.814-.283 1.212 1.212 0 0 1-.301-.912 3.07 3.07 0 0 1-1.238.912c-.488.194-1.009.291-1.538.283-.342 0-.684-.04-1.018-.121a2.342 2.342 0 0 1-.814-.38 1.75 1.75 0 0 1-.545-.67 2.554 2.554 0 0 1 0-2.1c.138-.275.35-.51.602-.687.245-.178.521-.316.814-.404.326-.097.652-.17.985-.227.35-.072.692-.12 1.01-.161a4.67 4.67 0 0 0 .814-.154c.211-.048.415-.145.586-.282a.71.71 0 0 0 .212-.558 1.33 1.33 0 0 0-.163-.678 1.121 1.121 0 0 0-.407-.396 1.613 1.613 0 0 0-.57-.178 3.991 3.991 0 0 0-.619-.049 2.78 2.78 0 0 0-1.367.307 1.348 1.348 0 0 0-.513 1.204h-1.294c0-.428.105-.848.3-1.228.18-.323.432-.598.733-.808.318-.21.676-.363 1.05-.452a6.039 6.039 0 0 1 1.262-.137c.358 0 .708.032 1.058.08a2.8 2.8 0 0 1 .953.307c.285.154.52.388.692.663.187.34.268.719.252 1.099v4.039c0 .226.016.444.057.663 0 .145.155.21.358.21.138 0 .269-.025.399-.057v.961zm-2.108-4.04a1.442 1.442 0 0 1-.643.26 8.974 8.974 0 0 1-.814.137l-.88.121c-.276.04-.553.113-.813.218a1.521 1.521 0 0 0-.579.428 1.2 1.2 0 0 0-.22.808c0 .186.041.372.131.533.081.138.195.259.334.356.146.089.31.161.48.194.195.04.39.056.586.056a3.36 3.36 0 0 0 1.099-.17c.277-.096.53-.242.749-.436.179-.161.317-.355.423-.573.082-.186.13-.38.139-.582v-1.35h.008zM95.028 38.98a3.64 3.64 0 0 1 2.442.76 2.59 2.59 0 0 1 .88 2.076 3.232 3.232 0 0 1-.448 1.729c-.326.509-.847.88-1.441 1.018.276.048.537.153.765.307.195.129.358.307.472.509.122.202.212.42.26.654.058.25.098.5.13.76 0 .266.017.533.05.807 0 .267.032.542.073.808.04.259.097.51.179.752.073.226.187.444.342.622h-1.628a.853.853 0 0 1-.204-.453 4.24 4.24 0 0 1-.073-.646v-.76a4.467 4.467 0 0 0-.098-.807c0-.259-.09-.51-.146-.744a1.752 1.752 0 0 0-.293-.622 1.398 1.398 0 0 0-.521-.428 1.882 1.882 0 0 0-.814-.162h-3.541v4.622h-1.45V38.98h5.064zm.31 4.912c.284-.04.57-.137.813-.29a1.7 1.7 0 0 0 .554-.598c.146-.3.212-.63.203-.962a1.984 1.984 0 0 0-.456-1.333 1.922 1.922 0 0 0-1.481-.509h-3.606v3.765h3.02c.317 0 .635-.024.952-.073zM106.817 49.773a1.88 1.88 0 0 1-.936.194 1.075 1.075 0 0 1-.814-.283 1.21 1.21 0 0 1-.301-.913 3.07 3.07 0 0 1-1.238.913 3.994 3.994 0 0 1-1.538.283 4.33 4.33 0 0 1-1.018-.121 2.351 2.351 0 0 1-.814-.38 1.852 1.852 0 0 1-.553-.67 2.554 2.554 0 0 1 0-2.1 1.89 1.89 0 0 1 .602-.688c.261-.185.546-.323.855-.404.325-.096.651-.17.985-.226.35-.072.692-.12 1.009-.161.293-.024.578-.073.855-.154a1.54 1.54 0 0 0 .578-.282.713.713 0 0 0 .212-.558 1.33 1.33 0 0 0-.163-.679 1.124 1.124 0 0 0-.407-.395 1.616 1.616 0 0 0-.57-.178 3.997 3.997 0 0 0-.619-.049 2.78 2.78 0 0 0-1.367.307 1.327 1.327 0 0 0-.603 1.18h-1.294c0-.428.114-.849.301-1.228.179-.323.432-.606.741-.808.317-.21.667-.364 1.042-.453a6.035 6.035 0 0 1 1.262-.137c.358 0 .708.032 1.058.081.334.049.659.145.952.307.285.154.521.388.692.663.187.339.269.718.253 1.098v4.04c0 .226.016.444.057.662 0 .145.154.21.358.21.138 0 .268-.024.399-.056l.024.985zm-2.108-4.04a1.446 1.446 0 0 1-.643.26 9.08 9.08 0 0 1-.814.137l-.88.12c-.276.041-.553.114-.814.219a1.532 1.532 0 0 0-.578.428 1.2 1.2 0 0 0-.219.808c0 .186.04.372.13.533.081.138.195.259.334.356.146.097.317.161.488.194.187.04.383.056.578.056.374 0 .749-.048 1.099-.17.277-.096.529-.242.749-.436.179-.161.317-.355.423-.573.082-.186.13-.38.139-.582v-1.35h.008zM109.257 42.01v1.616a3.63 3.63 0 0 1 1.164-1.406 2.936 2.936 0 0 1 1.742-.428v1.365a3.947 3.947 0 0 0-1.335.21c-.342.13-.643.348-.879.622-.236.291-.399.63-.488.994a4.96 4.96 0 0 0-.155 1.341v3.482h-1.294V42.01h1.245zM118.683 49.281a3.604 3.604 0 0 1-2.23.663 4.157 4.157 0 0 1-1.628-.3 3.165 3.165 0 0 1-1.172-.807 3.868 3.868 0 0 1-.709-1.309 6.788 6.788 0 0 1-.268-1.616c0-.55.089-1.099.277-1.616.17-.476.431-.913.773-1.284a3.532 3.532 0 0 1 1.172-.808c.472-.21.977-.307 1.49-.307.61-.024 1.221.13 1.75.436.456.275.83.655 1.115 1.099.277.444.472.937.578 1.454.098.493.146.994.13 1.495h-5.91c-.008.331.033.662.123.977a2.193 2.193 0 0 0 1.221 1.374c.35.145.732.218 1.115.21.48.024.952-.113 1.351-.38.375-.283.619-.687.692-1.147h1.286a3.09 3.09 0 0 1-1.156 1.866zm-.309-5.033a2.286 2.286 0 0 0-.472-.703 2.293 2.293 0 0 0-1.628-.646c-.31 0-.627.056-.912.178a2.04 2.04 0 0 0-.692.476 2.24 2.24 0 0 0-.456.703 2.846 2.846 0 0 0-.203.856h4.534a2.449 2.449 0 0 0-.171-.84v-.024zM129.549 38.98a5.474 5.474 0 0 1 3.883 1.276 5.1 5.1 0 0 1 1.359 3.878 8.723 8.723 0 0 1-.309 2.424 4.646 4.646 0 0 1-.944 1.777 4.3 4.3 0 0 1-1.629 1.099 6.668 6.668 0 0 1-2.352.371h-3.745V38.98h3.737zm.122 9.606h.61c.277-.033.554-.09.814-.186.285-.105.562-.243.814-.412.285-.194.538-.453.725-.744.236-.371.407-.775.505-1.195a6.072 6.072 0 0 0 .211-1.705c0-.582-.057-1.163-.195-1.729a3.43 3.43 0 0 0-.627-1.309 2.674 2.674 0 0 0-1.123-.807 4.46 4.46 0 0 0-1.693-.275h-2.442v8.362h2.401zM135.906 40.563v-1.616h1.303v1.616h-1.303zm1.303 1.446v7.829h-1.303v-7.829h1.303zM139.922 48.053c.114.194.285.355.481.469.203.12.431.202.667.25.252.048.513.073.773.073.212 0 .432-.017.643-.04.212-.033.424-.09.619-.17a1.25 1.25 0 0 0 .464-.356.91.91 0 0 0 .155-.614.857.857 0 0 0-.375-.76 3.377 3.377 0 0 0-.96-.411c-.383-.113-.814-.202-1.238-.291a6.668 6.668 0 0 1-1.245-.364 2.631 2.631 0 0 1-.961-.662 1.717 1.717 0 0 1-.374-1.18c-.016-.355.081-.71.261-1.018.17-.274.415-.517.691-.686.293-.186.611-.315.945-.396.342-.08.7-.13 1.05-.13.415 0 .822.033 1.229.114.358.064.692.202 1.001.395.293.194.537.453.7.76.187.372.285.776.301 1.188h-1.269a1.352 1.352 0 0 0-.204-.63 1.239 1.239 0 0 0-.423-.397 1.859 1.859 0 0 0-.578-.218 2.714 2.714 0 0 0-.627-.072c-.195 0-.399.016-.594.048a1.77 1.77 0 0 0-.537.154 1.135 1.135 0 0 0-.399.307.773.773 0 0 0-.155.492c0 .21.081.404.236.55.179.153.383.275.602.363.261.105.538.186.814.243l.912.21c.326.064.643.153.953.25.284.097.561.234.814.404.236.17.431.38.577.63.155.291.228.614.22.938.017.411-.089.823-.293 1.187a2.48 2.48 0 0 1-.814.751c-.334.202-.7.34-1.082.404a6.594 6.594 0 0 1-1.197.114c-.423 0-.838-.049-1.254-.138a3.213 3.213 0 0 1-1.058-.444 2.414 2.414 0 0 1-.732-.808 2.858 2.858 0 0 1-.302-1.236h1.295c.024.258.114.509.268.727zM151.862 49.281a3.566 3.566 0 0 1-2.222.663 4.157 4.157 0 0 1-1.628-.3 3.073 3.073 0 0 1-1.164-.807 3.667 3.667 0 0 1-.716-1.309 6.355 6.355 0 0 1-.261-1.616c0-.55.09-1.099.269-1.616.171-.476.431-.913.773-1.284a3.542 3.542 0 0 1 1.172-.808c.472-.21.977-.307 1.49-.307.61-.024 1.221.13 1.75.436.456.275.83.655 1.115 1.099.277.444.472.937.578 1.454.106.493.147.994.13 1.495h-5.909c-.008.331.032.662.122.977.089.3.244.574.447.808.228.25.505.445.814.566.35.145.733.218 1.116.21.48.024.952-.113 1.351-.38.374-.283.619-.687.7-1.147h1.278a3.084 3.084 0 0 1-1.205 1.866zm-.309-5.033a2.072 2.072 0 0 0-.472-.703 2.059 2.059 0 0 0-.7-.468 2.137 2.137 0 0 0-.896-.178c-.309 0-.626.056-.911.178a2.148 2.148 0 0 0-1.148 1.179 2.878 2.878 0 0 0-.204.856h4.534a2.549 2.549 0 0 0-.244-.84l.041-.024zM161.452 49.773a1.88 1.88 0 0 1-.936.194 1.073 1.073 0 0 1-.814-.283 1.214 1.214 0 0 1-.302-.913 3.04 3.04 0 0 1-1.245.913 3.982 3.982 0 0 1-1.53.283 4.33 4.33 0 0 1-1.018-.121 2.343 2.343 0 0 1-.814-.38 1.711 1.711 0 0 1-.553-.67 2.27 2.27 0 0 1-.212-1.01 2.39 2.39 0 0 1 .228-1.09c.146-.276.358-.51.61-.688.261-.185.546-.323.855-.404.326-.096.651-.17.985-.226.35-.072.692-.12 1.009-.161.277-.024.546-.081.814-.154.212-.048.416-.145.587-.282a.712.712 0 0 0 .211-.558 1.33 1.33 0 0 0-.163-.679 1.022 1.022 0 0 0-.415-.395 1.522 1.522 0 0 0-.561-.178 4.006 4.006 0 0 0-.619-.049 2.797 2.797 0 0 0-1.376.307c-.39.267-.618.711-.594 1.18h-1.294c0-.428.106-.849.301-1.228.179-.323.431-.598.733-.808a3.27 3.27 0 0 1 1.05-.453 5.536 5.536 0 0 1 1.261-.137c.358 0 .709.032 1.059.081.333.049.659.145.952.307.285.154.521.388.684.663.187.33.285.718.26 1.098v4.04c-.008.226.008.444.057.662 0 .145.155.21.358.21.139 0 .269-.024.399-.056l.033.985zm-2.109-4.04a1.441 1.441 0 0 1-.643.26 8.962 8.962 0 0 1-.814.137l-.879.12a3.57 3.57 0 0 0-.814.219 1.524 1.524 0 0 0-.578.428 1.201 1.201 0 0 0-.22.808c0 .186.041.372.131.533a1 1 0 0 0 .333.356c.147.088.31.161.481.194.195.04.39.056.586.056.374 0 .749-.048 1.099-.17.277-.096.529-.242.749-.436.171-.161.317-.355.415-.573.081-.186.13-.38.138-.582l.016-1.35zM163.684 48.052c.122.194.285.356.48.469.212.121.44.202.676.25a4.1 4.1 0 0 0 .773.073c.212 0 .423-.016.635-.04.211-.033.423-.09.618-.17.18-.08.342-.202.464-.355a.917.917 0 0 0 .188-.598.866.866 0 0 0-.383-.76 3.439 3.439 0 0 0-.952-.412 15.721 15.721 0 0 0-1.246-.29 6.668 6.668 0 0 1-1.245-.364 2.537 2.537 0 0 1-.953-.662 1.718 1.718 0 0 1-.382-1.18 1.876 1.876 0 0 1 .268-1.018 2.21 2.21 0 0 1 .684-.687c.293-.177.619-.315.953-.395.342-.081.692-.13 1.042-.13.415 0 .83.032 1.237.113a2.98 2.98 0 0 1 1.001.396c.293.194.529.453.692.76.187.371.293.775.309 1.187h-1.302a1.182 1.182 0 0 0-.627-1.026 1.733 1.733 0 0 0-.57-.218 2.834 2.834 0 0 0-.635-.073c-.195 0-.39.017-.586.049a1.828 1.828 0 0 0-.545.153 1.116 1.116 0 0 0-.391.307.752.752 0 0 0-.154.493c0 .21.081.404.236.55.179.161.382.282.602.363.26.105.537.186.814.242l.92.21c.325.065.643.154.952.25.285.098.562.235.814.405.236.17.44.38.586.63.155.29.228.614.22.937.016.42-.089.832-.301 1.188a2.269 2.269 0 0 1-.814.751c-.334.202-.708.34-1.091.404a6.6 6.6 0 0 1-1.196.113c-.424 0-.839-.048-1.254-.137a3.085 3.085 0 0 1-1.05-.445 2.415 2.415 0 0 1-.733-.807 2.837 2.837 0 0 1-.309-1.237h1.302c.017.259.106.501.253.711zM175.589 49.281a3.604 3.604 0 0 1-2.23.663 3.991 3.991 0 0 1-1.628-.3 3.165 3.165 0 0 1-1.172-.807 3.468 3.468 0 0 1-.708-1.309 6.739 6.739 0 0 1-.269-1.616c0-.55.09-1.099.277-1.616.179-.476.456-.913.814-1.284a3.367 3.367 0 0 1 1.172-.808c.472-.21.977-.307 1.49-.307.61-.024 1.213.13 1.742.436a3.37 3.37 0 0 1 1.115 1.099c.285.444.48.937.586 1.454.098.493.146.994.13 1.495h-5.91c-.008.331.033.662.123.977.089.3.236.574.439.808.22.25.505.445.814.566.35.153.733.218 1.115.21.481.024.953-.113 1.352-.38a1.83 1.83 0 0 0 .691-1.147h1.287a3.156 3.156 0 0 1-1.23 1.866zm-.309-5.033a2.217 2.217 0 0 0-.48-.703 2.049 2.049 0 0 0-.7-.468 2.39 2.39 0 0 0-1.799 0 2.182 2.182 0 0 0-.7.476c-.196.21-.35.445-.456.703a2.613 2.613 0 0 0-.195.856h4.517a2.67 2.67 0 0 0-.187-.84v-.024z"/>
    </g>
    <defs>
        <clipPath id="9z3wqxhnoa">
            <path fill="#fff" d="M0 0h184v50H0z"/>
        </clipPath>
    </defs>
</svg>
