<svg id="visual" viewBox="0 0 2556 600" width="2556" height="600" xmlns="http://www.w3.org/2000/svg"
    xmlns:xlink="http://www.w3.org/1999/xlink" version="1.1">
    <path
        d="M0 325L47.3 321.3C94.7 317.7 189.3 310.3 284 318.5C378.7 326.7 473.3 350.3 568 335.5C662.7 320.7 757.3 267.3 852 266.7C946.7 266 1041.3 318 1136 336.5C1230.7 355 1325.3 340 1420 318.8C1514.7 297.7 1609.3 270.3 1704 277C1798.7 283.7 1893.3 324.3 1988 336.3C2082.7 348.3 2177.3 331.7 2272 308C2366.7 284.3 2461.3 253.7 2508.7 238.3L2556 223L2556 601L2508.7 601C2461.3 601 2366.7 601 2272 601C2177.3 601 2082.7 601 1988 601C1893.3 601 1798.7 601 1704 601C1609.3 601 1514.7 601 1420 601C1325.3 601 1230.7 601 1136 601C1041.3 601 946.7 601 852 601C757.3 601 662.7 601 568 601C473.3 601 378.7 601 284 601C189.3 601 94.7 601 47.3 601L0 601Z"
        fill="#e4d8cf" stroke-linecap="round" stroke-linejoin="miter"></path>
</svg>