<svg width="128" height="129" viewBox="0 0 128 129" fill="none" xmlns="http://www.w3.org/2000/svg">
<path d="M24.8701 68.1387L28.907 72.6974L30.4861 75.4298L37.5164 79.0685L38.6423 86.4833L38.0244 90.0808L37.1456 93.033L31.7493 88.3507L26.3668 77.7778L24.8701 68.1387Z" fill="#DA5B79"/>
<path d="M81.0573 27.9202L73.6837 30.8037L73.5739 28.5244L65.7335 27.3984L60.5569 32.7535L65.1431 35.1427L68.9054 31.6276L72.7363 34.7171L67.2302 36.914L64.4702 39.3444L62.0124 36.5982L55.8334 42.9419L51.1649 47.2534L51.7004 49.7113L60.3509 45.7705L64.635 48.5991L65.8159 45.8392L67.3949 44.4935L70.0862 49.2032L72.7363 49.5465L77.9815 51.6611L77.9541 53.8443L75.7983 56.4807L70.9238 55.6431L68.6994 54.8604L66.42 56.055L62.1772 53.707L61.0238 51.5513L53.9386 52.0318L50.0115 54.8055L45.4391 60.7373L45.6176 65.9001L46.9632 69.0857L50.3822 72.4635H56.4925L59.4447 72.9441L61.8888 73.4384L60.4333 78.3679L62.8225 80.0156L63.6738 85.6041L62.5891 89.2565L64.5801 91.0004L65.0057 96.6713L69.18 94.9961L71.0749 92.7854L73.6288 92.4147L74.9333 89.5998L75.3864 87.5402L79.286 84.6429L79.8901 79.3977L82.3205 75.7727L86.3574 70.5137L82.0047 69.1132L79.2173 63.5247L76.1828 58.0872L79.3821 59.0896L82.5402 64.3623L84.2017 67.5341L87.195 65.598L91.2182 65.2685L91.6713 62.028L87.0852 59.886L86.6321 55.19L94.3901 58.8561L96.6831 58.6776L98.0837 61.3964L99.9923 69.6762L100.528 71.983L101.736 66.0786L104.139 61.0256L103.947 55.0252L100.061 47.0612L94.5137 38.5892L88.0876 32.5888L81.0573 27.9202Z" fill="#DA5B79"/>
<path d="M38.4775 90.1502C38.5187 90.0678 38.5736 89.9305 38.9306 89.8756C39.1229 89.8481 39.3014 89.7383 39.4112 89.5735C39.5211 89.4087 39.5623 89.2028 39.5211 89.0106C39.1915 87.5551 39.0405 85.825 38.9169 84.2871C38.8482 83.5456 38.7933 82.8591 38.7247 82.2412C38.2166 78.0944 36.1295 77.0371 34.3582 76.5703C33.3833 76.3094 32.1338 75.4993 31.7081 74.9637C31.3099 74.4694 30.6783 73.3572 30.184 72.4784C29.7583 71.7232 29.4288 71.1328 29.1954 70.8307C29.1954 70.817 27.7536 68.9908 26.9297 68.4415C26.3942 68.0845 25.488 67.5353 25.4605 67.5078L24.7191 68.7161C24.7191 68.7161 25.639 69.2791 26.1471 69.6224C26.6414 69.9519 27.7811 71.3113 28.0694 71.682C28.2479 71.9155 28.6049 72.5471 28.9619 73.165C29.5112 74.1399 30.1428 75.2521 30.6234 75.8425C31.2825 76.6664 32.8341 77.6138 34.0149 77.9296C35.4979 78.3278 36.9396 79.138 37.3378 82.4059C37.4065 82.9964 37.4614 83.6829 37.5301 84.4107C37.6399 85.77 37.7772 87.2942 38.0381 88.6947C37.5987 88.9282 37.3516 89.2714 37.2143 89.5735C36.8572 90.3699 36.9808 91.5096 37.585 93.02C38.0244 94.1322 38.656 95.2307 39.0817 95.8898L40.2625 95.1071C39.1229 93.377 38.1342 90.9741 38.505 90.1502H38.4775Z" fill="#2E5055" stroke="#2E5055" stroke-width="0.5" stroke-miterlimit="10"/>
<path d="M84.2842 84.5342C84.1332 84.4244 83.9272 84.3969 83.7487 84.4381C83.5702 84.4793 83.4054 84.5891 83.2956 84.7539C82.5678 85.8936 81.7028 86.7174 80.8652 87.5138C79.6431 88.681 78.4897 89.7932 77.9954 91.6194C77.9405 91.8391 77.9954 92.0588 78.119 92.2373C78.2563 92.4158 78.4623 92.5119 78.682 92.5119C81.1535 92.5119 82.2657 90.4797 83.4329 88.324C83.7075 87.8297 83.9821 87.3216 84.2979 86.7998C84.3391 86.7312 84.3803 86.6763 84.4078 86.6076C84.7511 86.0446 85.2728 85.1796 84.2842 84.5342ZM79.8903 90.7681C80.3159 90.0541 80.8926 89.4637 81.538 88.832C80.9888 89.752 80.5082 90.3974 79.8903 90.7681Z" fill="#2E5055" stroke="#2E5055" stroke-width="0.5" stroke-miterlimit="10"/>
<path d="M104.139 61.0262C102.327 62.1796 102.025 64.1569 101.75 66.0792C101.571 67.3013 101.393 68.4959 100.857 69.4845C100.857 66.1067 100.473 62.3581 98.3447 61.8226C98.2623 61.699 98.1387 61.5068 98.0838 61.397C98.0426 61.2871 97.974 61.0949 97.919 60.8889C97.6719 60.0925 97.3835 59.1039 96.6832 58.6645C95.9143 58.1839 95.214 58.3212 94.6511 58.4448C94.3215 58.5135 94.0469 58.5684 93.7585 58.5135C92.7287 58.28 90.8201 57.5386 87.6345 55.3279C87.3874 55.1494 87.0441 54.9159 86.6322 55.1906C86.179 55.4926 85.8907 55.9458 85.8083 56.5087C85.6435 57.6484 86.3987 59.049 87.0853 59.8866C87.099 59.9003 88.5545 61.6029 89.4058 61.4519C89.9551 61.3558 90.9437 61.2597 91.438 61.7814C91.589 61.9462 91.6577 62.0972 91.644 62.3032C91.6165 62.8113 91.1222 63.5115 90.3121 64.1981C89.241 65.1043 88.1975 65.3652 87.1951 65.6124C86.7146 65.736 86.2614 65.8458 85.822 66.0243C85.0394 66.3401 84.8334 66.2852 84.8059 66.2715C84.6274 66.1891 84.394 65.4613 84.188 64.816C84.1057 64.5414 84.0095 64.2393 83.886 63.9097C83.1308 61.699 82.0323 60.2436 80.5081 58.2388C79.135 56.4263 76.7321 57.0992 76.636 57.1266C76.4438 57.1815 76.279 57.3189 76.1966 57.5111C76.1142 57.7033 76.1142 57.9093 76.1966 58.1015C76.6085 59.0352 76.993 60.1749 77.2951 61.0674C77.5148 61.7265 77.5422 62.1934 77.5697 62.619C77.6109 63.1408 77.6521 63.69 78.0366 64.2942C79.4097 66.45 80.2884 67.2464 80.9475 67.8368C81.1398 68.0153 81.3045 68.1663 81.4556 68.3174C81.689 68.5645 81.8538 68.8254 82.0186 69.1138C82.3756 69.6905 82.7738 70.3358 83.6663 70.583C84.5176 70.8164 85.3826 70.6791 86.2889 70.5418C86.3163 70.5418 86.3438 70.5418 86.3713 70.5418C85.822 72.1758 83.68 74.3865 82.3344 75.8008C81.84 76.3088 81.4144 76.7482 81.1123 77.1052C78.7643 79.8514 78.6407 80.2908 78.3524 82.0896C78.2563 82.6525 78.1464 83.3528 77.913 84.3414C77.5011 86.1127 76.9655 86.4697 75.4002 87.5682C74.9745 87.8566 74.494 88.1999 73.9447 88.6118C73.3268 89.0786 73.5328 89.8476 73.6838 90.3556C73.725 90.4792 73.78 90.6852 73.7937 90.8087C73.6426 90.9323 73.3955 91.0284 73.1346 91.1246C72.6815 91.3031 72.1597 91.509 71.7752 91.9759C71.6105 92.1681 71.377 92.4702 71.1024 92.8135C70.5806 93.4726 69.5096 94.8319 69.2075 95.0242C68.3974 95.5597 66.6398 95.7931 65.967 95.5871C65.967 95.5322 65.967 95.4773 65.967 95.4224C65.9945 95.0242 66.0494 94.4749 65.7061 93.9943C64.9647 92.937 64.7999 92.0995 64.5939 91.0284C64.4841 90.4792 64.3742 89.8613 64.1545 89.1748C64.0447 88.8315 63.8662 88.5981 63.7151 88.4058C63.5641 88.2273 63.4954 88.1175 63.468 87.9527C63.2208 86.6894 63.4131 86.2501 63.6877 85.6322C63.8936 85.1379 64.1545 84.5337 64.1957 83.5313C64.2369 82.2543 63.5229 81.1284 62.8364 80.0437C62.3832 79.3434 61.9713 78.6706 61.834 78.0664C61.7653 77.7643 61.8752 77.064 61.9713 76.4461C62.1498 75.3477 62.3283 74.208 61.9026 73.4528C61.4358 72.6152 60.557 72.8074 60.0902 72.9035C59.843 72.9585 59.5684 73.0134 59.4585 72.9585C57.138 71.6952 56.5613 71.7089 54.2408 71.9836C53.8288 72.0385 53.362 72.0934 52.799 72.1483C52.7303 72.1483 52.648 72.1758 52.593 72.2033C52.1399 72.3131 50.7256 72.5603 50.3961 72.4779C49.3525 72.1621 47.8696 70.2535 46.9771 69.1C45.6314 67.3699 45.6314 66.9031 45.6314 65.9007C45.6314 65.3927 45.6314 64.7611 45.4941 63.8411C45.0273 60.8752 45.1234 60.7516 47.5675 57.6209L47.8696 57.2227C49.6683 54.9159 52.3321 52.3894 53.9524 52.0324C56.3141 51.4969 59.3899 51.236 61.1612 51.7715C61.3259 52.2247 61.6555 53.0211 62.191 53.7076C63.4268 55.2729 65.0058 56.1517 66.4339 56.0693C67.0792 56.0281 67.9717 55.781 68.7132 54.861C72.6677 56.4675 75.6611 56.495 75.8121 56.495C77.4049 56.4675 78.6133 55.7535 79.2449 54.4628C79.8353 53.2545 79.7804 51.6754 79.1213 50.8104C78.1052 49.4647 76.5124 49.8767 75.5512 50.1101C75.4826 50.1238 75.4139 50.1513 75.3453 50.165H75.3178C74.851 50.2886 74.5214 50.3298 74.2056 49.9316C73.6289 49.2176 73.4229 48.8194 73.0522 47.9269C72.6815 47.0069 72.1734 46.595 71.5693 46.7048C70.6081 46.8696 70.2374 48.4074 70.1001 49.2038C69.6195 47.3913 68.7956 45.2356 67.4088 44.4941C66.8183 44.1783 66.173 44.1371 65.5414 44.3705C64.8685 44.6177 64.6077 45.0571 64.4978 45.3866C64.1683 46.3615 64.8685 47.46 65.2118 47.9955C65.2393 48.0367 65.253 48.0642 65.2667 48.0916C65.2667 48.1191 65.2942 48.1328 65.2942 48.1603C64.9921 48.4074 64.5253 48.7233 64.2369 48.8194C63.7838 46.0183 62.1361 44.192 60.2275 44.3843C58.8132 44.5216 57.2753 45.3729 56.5476 46.1144C55.4491 47.2266 52.9226 48.6409 52.1811 48.38C51.8378 48.2564 51.3435 47.8582 51.2199 47.5836C50.9728 47.0618 51.6868 46.3478 51.6868 46.3341C52.0713 45.9633 52.442 45.9633 53.1148 46.0183C53.6641 46.0594 54.2682 46.1006 54.9136 45.8123C55.6001 45.4965 56.5201 44.9747 56.6849 44.0547C56.8222 43.2858 56.3691 42.6267 55.8473 42.05C56.0258 41.9951 56.2043 41.9539 56.3691 41.9127C57.0419 41.7342 57.6872 41.5557 58.1815 41.3772C59.28 40.979 60.351 40.5533 61.4495 39.6333C61.8065 39.3313 61.9713 38.9056 62.1361 38.4662C62.2047 38.2877 62.2734 38.1092 62.3558 37.917C62.6441 38.4937 63.1522 39.2489 64.4978 39.3587C65.0745 39.4136 67.3539 38.9605 68.315 37.8758C68.8231 37.2991 69.0702 36.8048 69.2075 36.4478C70.7591 36.6263 72.2696 35.7612 72.7501 34.7314C73.1346 33.935 72.9012 33.0974 72.146 32.5619C71.4732 32.0813 70.7454 32.2873 70.2099 32.452C69.9078 32.5481 69.6744 32.6031 69.4684 32.6031C69.4959 32.5482 69.5371 32.507 69.5645 32.452C69.8529 31.9989 70.2511 31.3673 70.1824 30.6258C70.0863 29.6509 69.5645 29.3626 69.2625 29.2664C68.2738 28.9644 67.2989 30.0216 66.9282 30.4748C66.2142 31.3673 65.5826 32.7267 65.8709 33.8938C65.5688 34.2508 65.4178 34.5941 65.3079 34.8687C65.2393 35.0197 65.2118 35.1158 65.1569 35.1708C64.9784 34.6627 64.6763 34.0448 64.1683 33.7016C63.5916 33.3171 63.056 33.4681 62.5892 33.6054C62.4656 33.6466 62.3283 33.6741 62.1773 33.7153C61.9576 33.7702 61.8065 33.7839 61.7104 33.7839C61.7379 33.6878 61.7791 33.5505 61.8615 33.3445C61.9576 33.1386 62.5892 32.6168 63.0698 32.2461C63.5504 31.8616 64.0996 31.4222 64.6214 30.9142C65.1157 30.4473 65.5414 29.8843 65.9121 29.39C66.1867 29.033 66.4613 28.6623 66.6261 28.5387C67.5324 27.811 68.3288 27.5501 69.3037 27.6736C69.3448 27.6736 69.4135 27.6736 69.5096 27.7011C72.3107 27.9895 73.2582 28.3739 73.574 28.5662C73.3955 28.6623 73.1209 28.7721 72.9424 28.8408C72.5579 28.9918 72.2009 29.1291 71.94 29.3626C71.3358 29.9255 71.4182 30.5434 71.6928 30.9279C72.3931 31.9028 74.851 32.0126 75.771 31.5046C76.1554 31.2986 76.43 30.873 76.6909 30.461C76.8145 30.2688 77.0067 29.9667 77.0891 29.8981C77.3363 29.747 77.8581 29.596 78.3524 29.4449C79.4783 29.1017 80.6592 28.7447 81.0574 27.9483L79.7941 27.3029C79.6431 27.5638 78.4897 27.9071 77.9404 28.0718C77.3363 28.2504 76.7733 28.4289 76.3888 28.6486C76.0181 28.8682 75.7572 29.2802 75.4963 29.6784C75.3728 29.8706 75.1805 30.1727 75.0844 30.2551C74.7274 30.4473 73.7662 30.3924 73.2033 30.2413C73.2856 30.2139 73.368 30.1727 73.4504 30.1452C74.0546 29.9118 74.8098 29.6235 75.0432 28.9369C75.1531 28.5799 75.1119 28.2092 74.9059 27.8933C74.3704 27.0832 72.8051 26.6026 69.6469 26.2731C69.5645 26.2731 69.4959 26.2594 69.4684 26.2594C68.1091 26.0946 66.9694 26.4516 65.7473 27.4265C65.4452 27.6599 65.1432 28.0581 64.7862 28.525C64.4429 28.9781 64.0447 29.4861 63.6328 29.8843C63.1522 30.3512 62.6304 30.7631 62.1635 31.1476C61.3671 31.7929 60.7767 32.2735 60.557 32.7816C60.4197 33.0974 59.994 34.086 60.5433 34.7451C61.0925 35.4042 62.1086 35.1708 62.4793 35.0884C62.6716 35.0472 62.8226 35.006 62.9599 34.9648C63.111 34.9236 63.3032 34.8687 63.3581 34.8687C63.5641 35.006 63.8113 35.5415 63.9211 36.0907C63.9898 36.4203 64.2644 36.6537 64.5939 36.6675C65.9396 36.7086 66.3103 36.1045 66.5986 35.4179C66.7222 35.1296 66.8321 34.8687 67.1342 34.6215C67.395 34.4018 67.4774 34.0311 67.2989 33.729C67.1067 33.372 67.1891 32.7678 67.5324 32.095C67.9168 31.3536 68.4523 30.8455 68.7407 30.6945C68.7407 30.7219 68.7407 30.7357 68.7407 30.7631C68.7681 31.024 68.5347 31.381 68.3425 31.6968C68.0679 32.1225 67.7658 32.6031 67.9306 33.1386C67.9992 33.3583 68.1777 33.6604 68.6171 33.8526C69.3586 34.1684 70.0589 33.9624 70.5806 33.8114C70.9376 33.7016 71.1848 33.6466 71.2809 33.7153C71.5281 33.8938 71.5006 34.0036 71.432 34.1409C71.1848 34.6627 70.1275 35.2394 69.1251 35.0197C68.9054 34.9099 68.6858 34.8962 68.4798 34.9648C68.0953 35.1021 67.9992 35.4454 67.9443 35.6514C67.8756 35.8985 67.752 36.3242 67.2165 36.9421C66.6536 37.5737 64.9509 37.9582 64.5939 37.9582C63.8662 37.9032 63.7426 37.6149 63.5092 37.1068C63.3444 36.7636 63.1659 36.3654 62.7677 36.077C62.4793 35.8711 62.0949 35.8985 61.8477 36.1457C61.2298 36.7636 60.9689 37.4638 60.7767 37.9719C60.6943 38.1779 60.5845 38.4937 60.5158 38.5486C59.5821 39.3175 58.6759 39.6883 57.6735 40.0453C57.2341 40.21 56.6162 40.3748 55.9709 40.5396C55.4216 40.6906 54.8586 40.8417 54.2819 41.0202C54.0485 41.0888 53.87 41.2811 53.8014 41.5145C53.7327 41.7479 53.8014 41.9951 53.9661 42.1736C54.0897 42.3109 54.227 42.4482 54.3506 42.5718C54.7213 42.9562 55.298 43.5467 55.2568 43.7938C55.2568 43.8213 55.1745 44.1096 54.2819 44.5216C53.9799 44.6589 53.6091 44.6314 53.1835 44.604C52.4832 44.549 51.522 44.4804 50.6707 45.3317C50.4373 45.5651 49.2701 46.8147 49.9155 48.1878C50.245 48.9018 51.0826 49.5059 51.7005 49.7256C53.4032 50.3161 56.575 48.0916 57.5362 47.1167C58.0854 46.5538 59.3487 45.8947 60.351 45.7986C61.4907 45.6887 62.5343 47.103 62.8364 49.1489C62.9462 49.8767 63.3993 50.1376 63.6465 50.2199C64.7724 50.6044 66.2966 49.1627 66.3652 49.094C66.9968 48.4624 66.9145 48.0504 66.4888 47.4737C66.4476 47.4051 66.4064 47.3364 66.3652 47.254C65.7748 46.3341 65.7611 45.9908 65.8022 45.8672C65.816 45.8123 65.9258 45.7574 65.9945 45.7299C66.2554 45.6338 66.4751 45.6475 66.7085 45.7711C67.4774 46.183 68.2601 47.7346 68.7819 49.9179C68.9329 50.5495 69.6195 51.2086 70.3747 51.1399C70.8553 51.085 71.3908 50.7005 71.432 49.7531C71.432 49.4785 71.5693 48.9155 71.7203 48.5036C72.1322 49.5059 72.3931 50.014 73.0659 50.8516C73.9722 51.9775 75.1668 51.6891 75.6199 51.5793H75.6474C75.716 51.5518 75.7984 51.5381 75.8671 51.5244C76.8282 51.2772 77.5285 51.1536 77.9542 51.7029C78.2151 52.0462 78.3386 53.0485 77.9267 53.8724C77.5422 54.6688 76.8145 55.0807 75.7572 55.1082C75.6199 55.1082 72.5716 55.0532 68.6995 53.3781C68.3699 53.2408 67.9992 53.3506 67.807 53.6527C67.4088 54.298 66.9007 54.6413 66.2966 54.6825C65.3491 54.7374 64.182 54.0371 63.2483 52.8563C62.6441 52.0873 62.3558 51.0713 62.3558 51.0575C62.3008 50.8378 62.1361 50.6731 61.9301 50.5907C59.8018 49.7531 56.1082 50.1101 53.5817 50.6868C51.3984 51.1811 48.5149 54.0646 46.7024 56.3851L46.4004 56.7833C43.8739 60.0239 43.4894 60.5182 44.0386 64.0882C44.1622 64.8984 44.1622 65.4476 44.1622 65.9282C44.1622 67.2052 44.2309 67.9604 45.8099 69.9926C46.9359 71.4343 48.46 73.4116 49.9292 73.851C50.1626 73.9196 50.6158 73.9883 51.8104 73.796C52.4008 73.6999 52.7578 73.6313 52.9775 73.5626C53.513 73.5077 53.9661 73.4528 54.3643 73.3979C56.4514 73.1507 56.7261 73.1095 58.7308 74.208C59.3075 74.5238 59.8979 74.3865 60.3373 74.3041C60.4334 74.2766 60.5707 74.2492 60.6669 74.2492C60.7904 74.6336 60.6394 75.5811 60.5295 76.2264C60.3922 77.0503 60.2687 77.8192 60.406 78.3959C60.5982 79.2335 61.1062 80.0299 61.6006 80.7989C62.1773 81.7051 62.7677 82.6525 62.7402 83.4764C62.7128 84.2041 62.548 84.6023 62.3558 85.0692C62.0537 85.7557 61.7241 86.5384 62.0537 88.2273C62.1498 88.7491 62.397 89.0512 62.5755 89.2846C62.6853 89.4219 62.7402 89.5043 62.7814 89.6004C62.9737 90.2183 63.0835 90.7676 63.1796 91.3031C63.3993 92.4427 63.6053 93.5138 64.5253 94.8045C64.5665 94.8731 64.539 95.1615 64.5253 95.3125C64.4841 95.7244 64.4429 96.3423 64.9784 96.6993C65.3903 96.9602 65.9808 97.0838 66.6124 97.0838C67.807 97.0838 69.1938 96.6993 69.9215 96.2188C70.3884 95.9167 71.1436 94.983 72.146 93.6923C72.4069 93.349 72.6403 93.0606 72.7913 92.8821C72.9561 92.6899 73.2582 92.5663 73.6015 92.4427C74.0271 92.278 74.5214 92.0857 74.8784 91.6601C75.3178 91.1383 75.1256 90.4655 74.9883 89.9712C74.9608 89.875 74.9196 89.7377 74.9059 89.6279C75.3728 89.2846 75.7984 88.9963 76.1692 88.7354C77.8169 87.5957 78.7231 86.9641 79.2586 84.671C79.5058 83.6274 79.6156 82.8997 79.7118 82.323C79.9589 80.7989 80.0001 80.5654 82.1559 78.0252C82.4305 77.7094 82.8424 77.2837 83.3093 76.7894C85.2865 74.7435 87.9915 71.9424 87.8817 69.6905C87.8817 69.4982 87.7856 69.3197 87.6345 69.1824C87.4835 69.0589 87.2913 68.9902 87.099 69.0177C86.7283 69.0589 86.3713 69.1138 86.028 69.1687C85.2316 69.2923 84.545 69.4021 83.9821 69.2511C83.6388 69.155 83.474 68.9078 83.172 68.4135C82.9797 68.0977 82.76 67.7407 82.4305 67.3974C82.2382 67.1914 82.046 67.0129 81.84 66.8207C81.2222 66.2577 80.4395 65.5575 79.1762 63.5665C78.9977 63.2781 78.9703 63.0447 78.9291 62.5504C78.8879 62.0698 78.8467 61.4794 78.5858 60.6692C78.3524 59.9689 78.0915 59.1863 77.8031 58.4448C78.2974 58.4448 78.9291 58.5958 79.341 59.1451C80.975 61.3008 81.8538 62.5092 82.5129 64.4178C82.6227 64.7336 82.7188 65.0357 82.8012 65.2966C83.1857 66.4774 83.4328 67.2601 84.1606 67.6034C84.8197 67.9192 85.5886 67.6858 86.3026 67.3974C86.6459 67.2601 87.0578 67.164 87.4835 67.0541C88.5408 66.7932 89.8452 66.4774 91.1771 65.3515C91.9735 64.6649 92.9484 63.6077 93.0171 62.4405C93.0445 61.8501 92.8386 61.3146 92.4266 60.8752C91.7538 60.1612 90.6691 59.9003 89.3097 60.1063C89.0625 59.9552 88.527 59.5158 88.1426 59.0627C87.6208 58.4311 87.1128 57.4424 87.1677 56.8383C89.7079 58.5684 91.8087 59.6257 93.4015 59.9827C93.9782 60.1063 94.4863 60.0101 94.8845 59.9277C95.3651 59.8316 95.5985 59.7904 95.8731 59.9689C96.1203 60.12 96.3949 61.0125 96.5047 61.397C96.5871 61.6579 96.6421 61.8775 96.7244 62.0423C96.7244 62.0423 97.1638 63.0584 97.7405 63.2369C97.7817 63.2369 97.8229 63.2644 97.8641 63.2644C98.2623 63.3193 99.5668 64.0333 99.3471 71.0361C99.3471 71.3245 99.3471 71.4343 99.3471 71.5167C99.3471 71.7776 99.5118 72.011 99.759 72.1209C99.9924 72.2307 100.281 72.2033 100.487 72.0385C102.478 70.5418 102.807 68.3036 103.096 66.3401C103.357 64.5826 103.576 63.0721 104.853 62.2757L104.098 61.0812L104.139 61.0262Z" fill="#2E5055" stroke="#2E5055" stroke-width="0.5" stroke-miterlimit="10"/>
<path d="M49.9841 30.8041C51.2886 30.3647 52.2086 29.6644 53.0873 29.0054C53.4718 28.7033 53.8425 28.4287 54.2407 28.1678C55.6276 27.2753 57.852 26.0257 59.3212 25.2019L59.8293 24.9135L59.129 23.6777L58.6347 23.9524C57.1517 24.7899 54.8998 26.0532 53.4855 26.9732C53.0461 27.2615 52.6342 27.5636 52.236 27.8657C51.4122 28.4973 50.6295 29.0877 49.5447 29.4585C48.1167 29.9391 46.9359 30.9964 45.7962 32.0124C44.9723 32.7539 44.1897 33.4542 43.3521 33.9073C43.5031 32.4518 44.6153 30.4883 46.4827 29.1976L45.6726 28.0305C43.0774 29.8292 41.4709 32.9462 42.0202 35.1294C42.0613 35.3216 42.1849 35.4727 42.3634 35.5688C42.4733 35.6237 42.5831 35.6649 42.7067 35.6649C42.7754 35.6649 42.844 35.6649 42.9127 35.6374C44.3682 35.1843 45.5628 34.1133 46.7299 33.0835C47.8146 32.1223 48.8307 31.2023 49.9841 30.8179V30.8041Z" fill="#2E5055" stroke="#2E5055" stroke-width="0.5" stroke-miterlimit="10"/>
<path d="M38.9581 32.6173C38.7247 33.1665 38.3265 34.1003 38.148 34.622C38.0793 34.8143 37.997 35.0477 37.9146 35.3086C37.6125 36.2286 37.1594 37.6017 36.7474 38.1509C36.4865 38.4942 36.0197 38.9336 35.5254 39.3867C34.7015 40.1419 33.8639 40.9383 33.452 41.7347C33.2735 42.0642 32.7105 42.6821 31.8729 43.2726C29.9781 44.5907 26.6689 49.6849 26.2707 50.3715L27.4927 51.0992C28.042 50.1792 31.1177 45.5244 32.6831 44.4397C33.4108 43.9316 34.3171 43.1352 34.7015 42.3938C35.0036 41.8171 35.7863 41.0756 36.4865 40.4302C37.0358 39.9222 37.5438 39.4416 37.8734 39.0022C38.4226 38.2745 38.8895 36.8739 39.2602 35.748C39.3426 35.5008 39.4112 35.2811 39.4799 35.0889C39.6447 34.6083 40.0291 33.7158 40.2626 33.1665V33.1391L38.9719 32.5898V32.6173H38.9581Z" fill="#2E5055" stroke="#2E5055" stroke-width="0.5" stroke-miterlimit="10"/>
<path d="M54.117 40.1137C54.2955 40.1137 54.4878 40.1 54.6388 40.0725C55.2155 39.9901 55.9707 39.7979 56.8083 39.5096C57.6322 39.2212 58.0304 38.4385 57.8519 37.4499C57.6459 36.2965 56.6985 35.0333 55.6549 35.047C54.5564 35.0744 54.2406 36.2965 54.1308 37.0242C54.0758 37.4499 54.0347 37.4774 53.8287 37.6284C53.6777 37.7383 53.4854 37.8893 53.2657 38.1227C52.6478 38.823 52.7577 39.3311 52.9636 39.6331C53.2245 40.0176 53.6777 40.1137 54.1033 40.1137H54.117ZM55.5588 37.2165C55.6137 36.7908 55.7098 36.5849 55.751 36.5025C56.0119 36.6535 56.4513 37.2851 56.4925 37.8618C56.5062 38.1365 56.4238 38.1639 56.3552 38.1914C55.751 38.3973 55.2704 38.5347 54.8997 38.617C55.2018 38.3424 55.4489 37.9991 55.5451 37.2439L55.5588 37.2165Z" fill="#2E5055" stroke="#2E5055" stroke-width="0.5" stroke-miterlimit="10"/>
<path d="M51.2473 31.3526C49.9429 31.4487 49.1327 32.0254 49.0778 32.9042C49.0778 33.1376 49.1602 33.3573 49.3387 33.4946C49.4623 33.5908 49.6271 33.6457 49.7781 33.6457C49.8468 33.6457 49.9154 33.6457 49.9703 33.6182C50.039 33.6045 51.5494 33.1651 52.3595 32.9042C52.8401 32.7532 52.9912 32.355 52.9225 32.0254C52.8127 31.4899 52.2771 31.284 51.2336 31.3526H51.2473Z" fill="#2E5055" stroke="#2E5055" stroke-width="0.5" stroke-miterlimit="10"/>
<path d="M64.635 23.3203C53.7326 23.3203 43.4756 27.5632 35.7725 35.28C28.0557 42.9968 23.8128 53.2401 23.8128 64.1425C23.8128 75.045 28.0557 85.302 35.7725 93.0051C43.4893 100.722 53.7326 104.965 64.635 104.965C75.5374 104.965 85.7945 100.722 93.4976 93.0051C101.214 85.2883 105.457 75.045 105.457 64.1425C105.457 53.2401 101.214 42.9831 93.4976 35.28C85.7808 27.5632 75.5374 23.3203 64.635 23.3203ZM92.4266 91.9341C84.9981 99.3625 75.1255 103.441 64.635 103.441C54.1446 103.441 44.2582 99.3488 36.8435 91.9341C29.415 84.5056 25.3232 74.633 25.3232 64.1425C25.3232 53.6521 29.415 43.7658 36.8435 36.351C44.272 28.9226 54.1446 24.8445 64.635 24.8445C75.1255 24.8445 85.0118 28.9363 92.4266 36.351C99.855 43.7795 103.947 53.6521 103.947 64.1425C103.947 74.633 99.855 84.5193 92.4266 91.9341Z" fill="#2E5055" stroke="#2E5055" stroke-width="0.5" stroke-miterlimit="10"/>
<path d="M84.9019 22.8542C78.5719 19.7373 71.7476 18.1582 64.6349 18.1582C53.0597 18.1582 41.9925 22.4835 33.4793 30.3239C33.1772 30.6122 33.1498 31.0791 33.4381 31.3949C33.5754 31.5459 33.7814 31.642 34.0011 31.642C34.1933 31.642 34.3718 31.5734 34.5092 31.4361C42.734 23.8566 53.4442 19.6823 64.6349 19.6823C71.5142 19.6823 78.105 21.2065 84.2291 24.2136C84.4076 24.296 84.6135 24.3097 84.8058 24.2548C84.998 24.1861 85.1491 24.0488 85.2452 23.8703C85.3276 23.6918 85.3413 23.4858 85.2864 23.2936C85.2177 23.1014 85.0804 22.9503 84.9019 22.8542Z" fill="#2E5055"/>
<path fill-rule="evenodd" clip-rule="evenodd" d="M33.1306 29.9444C41.7388 22.0165 52.9304 17.6426 64.635 17.6426C71.8257 17.6426 78.728 19.2394 85.1295 22.3915L84.902 22.8535L85.1461 22.4001C85.4277 22.5517 85.6565 22.7981 85.7714 23.1197L85.777 23.1354L85.7816 23.1514C85.8689 23.4572 85.849 23.7903 85.7128 24.0854L85.7061 24.0997L85.6986 24.1137C85.547 24.3953 85.3007 24.6241 84.9791 24.739L84.9634 24.7446L84.9473 24.7492C84.6415 24.8365 84.3084 24.8165 84.0134 24.6804L84.0021 24.6752L84.0022 24.6751C77.9494 21.7029 71.4363 20.1965 64.635 20.1965C53.5763 20.1965 42.9936 24.3201 34.8649 31.8078C34.6259 32.0424 34.3171 32.1562 34.0012 32.1562C33.6341 32.1562 33.2908 31.9972 33.0576 31.7409M84.6644 23.3105C78.4088 20.232 71.6658 18.6724 64.635 18.6724C53.1911 18.6724 42.2501 22.9475 33.8324 30.698C33.7281 30.7999 33.7262 30.9459 33.8185 31.047L33.8192 31.0478C33.8607 31.0934 33.9291 31.1264 34.0012 31.1264C34.0661 31.1264 34.1107 31.1057 34.1451 31.0713L34.1526 31.0638L34.1603 31.0567C42.4805 23.3894 53.3153 19.1667 64.635 19.1667C71.5896 19.1667 78.2558 20.7074 84.4491 23.7472C84.506 23.7723 84.5764 23.7798 84.6477 23.7633C84.7003 23.7409 84.7473 23.7011 84.7836 23.6401C84.8055 23.585 84.8113 23.5184 84.7957 23.4511C84.7723 23.3962 84.7301 23.3474 84.6644 23.3105ZM33.1306 29.9444L33.1305 29.9443L33.1306 29.9444ZM33.1305 29.9443L33.1239 29.9507L33.1305 29.9443ZM33.1239 29.9507C32.6268 30.4252 32.5743 31.2108 33.0572 31.7405L33.1239 29.9507Z" fill="#2E5055"/>
<path d="M90.7102 26.2584C90.5866 26.176 90.4356 26.1211 90.2846 26.1211C90.2434 26.1211 90.1884 26.1211 90.1473 26.1211C89.955 26.1623 89.7765 26.2721 89.6667 26.4369C89.5568 26.6017 89.5156 26.8076 89.5431 26.9999C89.5843 27.1921 89.6941 27.3706 89.8589 27.4805C91.7263 28.7712 93.5251 30.2267 95.2003 31.8057C95.3376 31.943 95.5298 32.0117 95.722 32.0117C95.928 32.0117 96.134 31.9293 96.2713 31.7783C96.4086 31.6272 96.4772 31.435 96.4772 31.2428C96.4772 31.0368 96.3811 30.8583 96.2438 30.721C94.5137 29.087 92.66 27.5766 90.724 26.2447L90.7102 26.2584Z" fill="#2E5055"/>
<path fill-rule="evenodd" clip-rule="evenodd" d="M90.6628 25.5781L91.0157 25.8209C92.9749 27.1687 94.8491 28.696 96.5973 30.3471L96.608 30.3572C96.8157 30.5649 96.9921 30.8676 96.9921 31.2432C96.9921 31.5575 96.8796 31.8749 96.6522 32.1251C96.4072 32.3946 96.0573 32.5271 95.722 32.5271C95.4153 32.5271 95.0885 32.419 94.8423 32.1764C93.1881 30.6176 91.4122 29.1807 89.5691 27.9066C89.2811 27.7129 89.1048 27.4126 89.0395 27.1082L89.0358 27.0908L89.0333 27.0732C88.9892 26.7643 89.0533 26.4291 89.2382 26.1517C89.4318 25.8613 89.7334 25.6836 90.0393 25.6181L90.0926 25.6066H90.2838C90.391 25.6066 90.4953 25.6217 90.5932 25.6477L90.6628 25.5781ZM90.2148 26.6365C90.1574 26.657 90.1164 26.6909 90.095 26.723C90.0629 26.7711 90.0449 26.8402 90.0508 26.91C90.0697 26.9793 90.1083 27.0284 90.1445 27.0525L90.1516 27.0573C92.0405 28.3628 93.8594 29.8348 95.5534 31.4315L95.5644 31.4419C95.5922 31.4697 95.6467 31.4972 95.722 31.4972C95.7985 31.4972 95.8606 31.465 95.8902 31.4324C95.9374 31.3804 95.9623 31.3134 95.9623 31.2432C95.9623 31.2076 95.9472 31.1548 95.8839 31.0898C94.2788 29.5745 92.5673 28.1676 90.7834 26.9137L90.7757 26.9214L90.4245 26.6873C90.3682 26.6498 90.3149 26.6365 90.2845 26.6365H90.2148Z" fill="#2E5055"/>
<path d="M110.62 64.1432C110.62 58.994 109.769 53.9273 108.107 49.094C107.998 48.7782 107.709 48.5859 107.393 48.5859C107.311 48.5859 107.229 48.5859 107.146 48.6271C106.748 48.7644 106.542 49.1901 106.679 49.5883C108.3 54.2568 109.11 59.1588 109.11 64.1432C109.11 80.5792 100.102 95.6146 85.6023 103.373C85.2316 103.565 85.0943 104.032 85.2865 104.402C85.4238 104.65 85.6709 104.801 85.9593 104.801C86.0829 104.801 86.2065 104.773 86.3163 104.705C101.311 96.6719 110.62 81.1284 110.62 64.1432Z" fill="#2E5055"/>
<path fill-rule="evenodd" clip-rule="evenodd" d="M107.38 48.0704C107.385 48.0704 107.389 48.0704 107.393 48.0704C107.921 48.0704 108.41 48.3949 108.594 48.9242L108.594 48.926C110.274 53.8131 111.135 58.9364 111.135 64.1426C111.135 81.313 101.726 97.0267 86.5724 105.151C86.3696 105.273 86.1533 105.315 85.9593 105.315C85.4789 105.315 85.062 105.058 84.8364 104.652L84.8292 104.639L84.8294 104.639C84.5126 104.028 84.7302 103.246 85.3622 102.917C99.693 95.2476 108.595 80.3875 108.595 64.1426C108.595 59.2143 107.794 54.3695 106.193 49.7565L106.193 49.7556C105.966 49.0994 106.3 48.3906 106.95 48.1498C107.132 48.069 107.305 48.07 107.38 48.0704ZM107.349 49.1006L107.346 49.1023L107.314 49.1133C107.186 49.1574 107.121 49.2887 107.166 49.4194M107.621 49.2619C107.585 49.16 107.497 49.1003 107.393 49.1003L107.367 49.1003L107.349 49.1006" fill="#2E5055"/>
<path d="M42.3496 104.375C49.1328 108.138 56.8358 110.129 64.635 110.129C67.752 110.129 70.8689 109.813 73.9035 109.195C74.3154 109.112 74.5763 108.714 74.4939 108.302C74.4115 107.89 74.0133 107.629 73.6014 107.712C70.6767 108.316 67.6559 108.618 64.635 108.618C57.0967 108.618 49.6408 106.696 43.0774 103.057C42.9675 102.988 42.8302 102.961 42.7066 102.961C42.4458 102.961 42.1849 103.098 42.0476 103.345C41.8416 103.716 41.9789 104.169 42.3359 104.375H42.3496Z" fill="#2E5055"/>
<path fill-rule="evenodd" clip-rule="evenodd" d="M41.5975 103.095C41.8317 102.673 42.2716 102.445 42.7067 102.445C42.8917 102.445 43.1257 102.484 43.3368 102.611C49.8211 106.204 57.1874 108.102 64.6351 108.102C67.6219 108.102 70.6077 107.804 73.4972 107.207L73.5004 107.206C74.1865 107.069 74.8597 107.505 74.9988 108.201C75.136 108.886 74.7003 109.559 74.0054 109.699C70.9373 110.323 67.7863 110.643 64.6351 110.643C56.7936 110.643 49.0482 108.652 42.2168 104.889H42.1981L42.0786 104.821C41.4859 104.479 41.2507 103.719 41.5975 103.095ZM42.7067 103.475C42.62 103.475 42.5381 103.522 42.4977 103.595C42.4415 103.696 42.4632 103.819 42.5482 103.896L42.5994 103.924C49.3058 107.644 56.9229 109.613 64.6351 109.613C67.7174 109.613 70.7999 109.301 73.8008 108.69L73.8025 108.689C73.9309 108.664 74.0166 108.54 73.989 108.403C73.9634 108.275 73.8409 108.189 73.7036 108.216C70.7443 108.827 67.6892 109.132 64.6351 109.132C57.0099 109.132 49.468 107.188 42.8278 103.507L42.816 103.5L42.8045 103.493C42.8046 103.493 42.8024 103.492 42.7975 103.49C42.7924 103.488 42.7851 103.485 42.7755 103.483C42.7556 103.478 42.7315 103.475 42.7067 103.475Z" fill="#2E5055"/>
<path d="M20.1603 64.1419C20.1603 63.73 19.817 63.3867 19.4051 63.3867C18.9932 63.3867 18.6499 63.73 18.6499 64.1419C18.6499 75.6622 22.934 86.6882 30.7057 95.174C30.843 95.325 31.049 95.4211 31.2687 95.4211C31.4609 95.4211 31.6394 95.3525 31.7767 95.2289C32.0788 94.9543 32.1063 94.4737 31.8179 94.1579C24.3071 85.9467 20.1603 75.2778 20.1603 64.1419Z" fill="#2E5055"/>
<path fill-rule="evenodd" clip-rule="evenodd" d="M18.135 64.1432C18.135 63.4469 18.7088 62.873 19.4051 62.873C20.1014 62.873 20.6752 63.4469 20.6752 64.1432C20.6752 75.1503 24.7738 85.6953 32.1979 93.8116L32.1982 93.8119C32.6771 94.3364 32.6376 95.1434 32.1231 95.6111L32.1212 95.6129C31.8876 95.8231 31.5857 95.9373 31.2687 95.9373C30.9017 95.9373 30.5585 95.7784 30.3254 95.5223C22.467 86.9416 18.135 75.7918 18.135 64.1432ZM19.4051 63.9029C19.2776 63.9029 19.1648 64.0156 19.1648 64.1432C19.1648 75.5349 23.4008 86.4367 31.0855 94.8274L31.0867 94.8288C31.1282 94.8744 31.1966 94.9074 31.2687 94.9074C31.3356 94.9074 31.3905 94.8846 31.4314 94.8482C31.5202 94.7664 31.5351 94.613 31.4377 94.5063L31.8179 94.1591L31.438 94.5066C23.8404 86.2006 19.6454 75.4077 19.6454 64.1432C19.6454 64.0156 19.5327 63.9029 19.4051 63.9029Z" fill="#2E5055"/>
</svg>
