<svg width="128" height="129" viewBox="0 0 128 129" fill="none" xmlns="http://www.w3.org/2000/svg">
    <path d="M64.449 83.931c-.558 0-.917-.03-.977-.04-13.858-1.16-13.738-12.97-13.728-13.09l3.985.1-1.993-.05 1.993.04c0 .84.199 8.19 10.102 9.02.06 0 4.643.37 7.641-2.31 1.704-1.52 2.62-3.81 2.71-6.82l3.985.13c-.13 4.16-1.504 7.42-4.075 9.71-3.327 2.95-7.71 3.31-9.633 3.31h-.01zM89.007 89.84H37.779v11.25h51.228V89.84z" fill="#DA5B79"/>
    <path d="M37.59 100.921c-.917 0-1.475-.7-1.475-1.4s.18-16.74 10.102-26.33c4.593-4.36 10.65-6.63 18.002-6.63 7.9 0 14.327 2.44 18.92 7.15 9.733 9.59 8.996 25.28 8.996 25.98 0 .87-.737 1.4-1.654 1.4-.916 0-1.474-.7-1.474-1.57 0-.17.548-15.17-8.27-23.72-4.224-4.01-9.733-6.1-16.717-6.1-10.291 0-17.454 4.88-21.679 14.82-3.118 7.5-3.307 15.17-3.307 15.35 0 .35-.548 1.05-1.475 1.05h.03z" fill="#2E5055"/>
    <path d="M90.481 101.341c-.996 0-1.723-.77-1.723-1.82.04-1.59.12-15.48-8.19-23.54-4.274-4.06-9.683-6.03-16.548-6.03-10.241 0-17.255 4.8-21.45 14.67-3.098 7.44-3.287 15.18-3.287 15.25 0 .51-.678 1.29-1.694 1.3h-.03c-1.056-.02-1.693-.85-1.693-1.65 0-.68.12-16.78 10.181-26.51 4.683-4.45 10.8-6.7 18.172-6.7 8 0 14.426 2.43 19.099 7.23 8.757 8.63 9.156 22.1 9.066 26.02v.14c0 .96-.807 1.65-1.903 1.65v-.01zm-26.46-31.89c6.893 0 12.572 2.08 16.886 6.17 8.468 8.21 8.389 22.3 8.349 23.88 0 .68.378 1.34 1.225 1.34.678 0 1.405-.36 1.405-1.15v-.15c.09-3.87-.309-17.16-8.927-25.65-4.583-4.7-10.889-7.08-18.75-7.08-7.242 0-13.24 2.21-17.833 6.56-9.903 9.58-10.012 25.48-10.012 26.15 0 .56.448 1.14 1.215 1.15.777 0 1.206-.6 1.206-.8 0-.07.14-7.79 3.327-15.45C46.396 74.34 53.56 69.45 64.02 69.45z" fill="#2E5055"/>
    <path d="M64.06 38.21c5.788 0 10.48 4.68 10.48 10.45s-4.672 14.27-10.46 14.27c-5.788 0-10.5-8.5-10.5-14.27s4.692-10.45 10.48-10.45z" fill="#fff"/>
    <path d="M64.08 64.18c-6.705 0-11.746-9.42-11.746-15.52 0-6.45 5.26-11.7 11.726-11.7 6.466 0 11.726 5.25 11.726 11.7 0 3.13-1.255 6.96-3.268 9.99-2.37 3.56-5.37 5.53-8.438 5.53zm-.02-24.72c-5.09 0-9.235 4.13-9.235 9.2 0 5.07 4.234 13.02 9.255 13.02 5.021 0 9.216-8 9.216-13.02s-4.145-9.2-9.236-9.2z" fill="#2E5055"/>
    <path d="M81.774 43.59c-.578-.77-1.255-1.5-1.584-2.42-.359-1.01-.24-2.12-.26-3.19-.02-1.07-.248-2.25-1.055-2.91-.877-.71-2.162-.6-3.109-1.21-1.026-.67-1.414-2.01-2.172-2.98-.976-1.24-2.54-1.83-4.064-2.04a10.8 10.8 0 0 0-4.005.22c-1.335.33-2.6.92-3.836 1.53l-.03.04a4.146 4.146 0 0 0-3.248-1.05c-1.155.14-2.251.83-2.919 1.82-.757 1.13-1.026 2.64-2.072 3.47-1.485 1.17-3.895.44-5.24 1.8-.728.73-.897 1.86-1.027 2.9l-.298 2.33c-.08.6-.15 1.22-.02 1.81.169.72.657 1.38.627 2.12-.03.99-.916 1.67-1.713 2.2-.797.53-1.684 1.21-1.734 2.19-.05.94.718 1.7 1.475 2.22.757.52 1.624.99 2.012 1.84.349.77.24 1.73.668 2.46.498.85 1.534 1.12 2.47 1.32 1.694.35 3.706.7 5.4 1.03v-.3c-.368-.78-.558-1.33-.797-2.21-.1.02.28-1.44.17-1.44-1.296 0-2.063-.37-2.063-2.4 0-.45-.727-.68-.637-1.08 2.829-.98 1.912-3.17 4.234-4.07 2.56-.99 1.145-4.16 3.068-4.52 1.066-.2 2.421-1.3 3.059-2.58.09.18.18.36.279.53.408.66.936 1.21 1.464 1.76.469.49.967.99 1.584 1.22.867.31 1.943.09 2.61.74.529.51.588 1.39 1.087 1.93.508.55 1.374.63 1.853 1.21.637.78.289 2.16 2.132 2.66.209.06.607.2 1.056.34.249.58-.608 1.4-.608 2.16 0 2.03-1.056 3.68-2.351 3.68-.08 0 .856-.12.777-.14-.13.48-.29.95-.458 1.41h.05c1.852 1.15 4.383.98 6.076-.42.648-.53 1.166-1.21 1.674-1.89l1.146-1.51c.279-.36.558-.75.618-1.21.1-.87-.638-1.59-.787-2.45-.26-1.53 1.355-2.75 1.504-4.29.09-.98-.428-1.9-1.006-2.67v.04z" fill="#2E5055"/>
    <path d="M53.719 64.26c-1.066 0-1.644-1.72-1.644-3.34 0-1.62.578-3.35 1.644-3.35 1.066 0 1.654 1.72 1.654 3.35 0 1.63-.578 3.34-1.654 3.34zm0-5.94c-.359 0-.897 1.04-.897 2.6s.538 2.59.897 2.59c.358 0 .906-1.03.906-2.59 0-1.56-.538-2.6-.906-2.6zM75.109 64.26c-1.076 0-1.654-1.72-1.654-3.34 0-1.62.578-3.35 1.654-3.35s1.644 1.72 1.644 3.35c0 1.63-.578 3.34-1.644 3.34zm0-5.94c-.359 0-.907 1.04-.907 2.6s.538 2.59.907 2.59c.368 0 .896-1.03.896-2.59 0-1.56-.538-2.6-.896-2.6z" fill="#2E5055"/>
</svg>
