<svg width="148" height="149" viewBox="0 0 148 149" fill="none" xmlns="http://www.w3.org/2000/svg">
<g filter="url(#filter0_d_1501_26053)">
<g clip-path="url(#clip0_1501_26053)">
<rect x="10" y="4.50781" width="128" height="128" rx="64" fill="white"/>
<path d="M74.4486 87.693C73.8907 87.693 73.5321 87.663 73.4723 87.653C59.6142 86.493 59.7337 74.683 59.7437 74.563L63.7288 74.663L61.7362 74.613L63.7288 74.653C63.7288 75.493 63.928 82.843 73.8309 83.673C73.8907 83.673 78.4736 84.043 81.4723 81.363C83.1759 79.843 84.0925 77.553 84.1822 74.543L88.1672 74.673C88.0377 78.833 86.6629 82.093 84.0925 84.383C80.765 87.333 76.3814 87.693 74.4586 87.693H74.4486Z" fill="#DA5B79"/>
<path d="M99.0067 93.6016H47.7786V104.852H99.0067V93.6016Z" fill="#DA5B79"/>
<path d="M47.5892 104.682C46.6727 104.682 46.1147 103.982 46.1147 103.282C46.1147 102.582 46.2941 86.5423 56.2169 76.9523C60.8097 72.5923 66.867 70.3223 74.2195 70.3223C82.1199 70.3223 88.5458 72.7623 93.1386 77.4723C102.872 87.0623 102.135 102.752 102.135 103.452C102.135 104.322 101.398 104.852 100.481 104.852C99.5646 104.852 99.0066 104.152 99.0066 103.282C99.0066 103.112 99.5546 88.1123 90.7376 79.5623C86.5134 75.5523 81.0041 73.4623 74.0202 73.4623C63.7288 73.4623 56.5656 78.3423 52.3414 88.2823C49.2231 95.7823 49.0338 103.452 49.0338 103.632C49.0338 103.982 48.4859 104.682 47.5593 104.682H47.5892V104.682Z" fill="#2E5055"/>
<path d="M100.481 105.102C99.4848 105.102 98.7576 104.332 98.7576 103.282C98.7974 101.692 98.8771 87.8023 90.5682 79.7423C86.2942 75.6823 80.8845 73.7123 74.0202 73.7123C63.7786 73.7123 56.7648 78.5123 52.5705 88.3823C49.4722 95.8223 49.2829 103.562 49.2829 103.632C49.2829 104.142 48.6054 104.922 47.5892 104.932H47.5593C46.5033 104.912 45.8657 104.082 45.8657 103.282C45.8657 102.602 45.9852 86.5023 56.0475 76.7723C60.73 72.3223 66.8471 70.0723 74.2195 70.0723C82.2195 70.0723 88.6454 72.5023 93.3179 77.3023C102.075 85.9323 102.474 99.4023 102.384 103.322V103.462C102.384 104.422 101.577 105.112 100.481 105.112V105.102ZM74.0202 73.2123C80.9144 73.2123 86.5931 75.2923 90.907 79.3823C99.3753 87.5923 99.2956 101.682 99.2557 103.262C99.2557 103.942 99.6343 104.602 100.481 104.602C101.159 104.602 101.886 104.242 101.886 103.452V103.302C101.976 99.4323 101.577 86.1423 92.9593 77.6523C88.3764 72.9523 82.0701 70.5723 74.2095 70.5723C66.9666 70.5723 60.9691 72.7823 56.3763 77.1323C46.4734 86.7123 46.3638 102.612 46.3638 103.282C46.3638 103.842 46.8121 104.422 47.5792 104.432C48.3563 104.432 48.7847 103.832 48.7847 103.632C48.7847 103.562 48.9242 95.8423 52.1123 88.1823C56.3962 78.1023 63.5594 73.2123 74.0202 73.2123V73.2123Z" fill="#2E5055"/>
<path d="M74.0601 41.9727C79.8484 41.9727 84.5408 46.6527 84.5408 52.4227C84.5408 58.1927 79.8683 66.6927 74.08 66.6927C68.2917 66.6927 63.5793 58.1927 63.5793 52.4227C63.5793 46.6527 68.2718 41.9727 74.0601 41.9727Z" fill="white"/>
<path d="M74.08 67.9427C67.3751 67.9427 62.334 58.5227 62.334 52.4227C62.334 45.9727 67.5943 40.7227 74.0601 40.7227C80.5259 40.7227 85.7862 45.9727 85.7862 52.4227C85.7862 55.5527 84.5309 59.3827 82.5184 62.4127C80.1473 65.9727 77.1485 67.9427 74.08 67.9427ZM74.0601 43.2227C68.9691 43.2227 64.8247 47.3527 64.8247 52.4227C64.8247 57.4927 69.0588 65.4427 74.08 65.4427C79.1012 65.4427 83.2955 57.4427 83.2955 52.4227C83.2955 47.4027 79.151 43.2227 74.0601 43.2227Z" fill="#2E5055"/>
<path d="M91.7738 47.3521C91.1959 46.5821 90.5185 45.8521 90.1897 44.9321C89.831 43.9221 89.9506 42.8121 89.9307 41.7421C89.9107 40.6721 89.6816 39.4921 88.8746 38.8321C87.9979 38.1221 86.7127 38.2321 85.7663 37.6221C84.7401 36.9521 84.3516 35.6121 83.5944 34.6421C82.618 33.4021 81.0539 32.8121 79.5296 32.6021C78.1946 32.4221 76.8297 32.5021 75.5246 32.8221C74.1896 33.1521 72.9244 33.7421 71.689 34.3521L71.6591 34.3921C70.7824 33.5921 69.5669 33.2021 68.4113 33.3421C67.2556 33.4821 66.1597 34.1721 65.4922 35.1621C64.735 36.2921 64.466 37.8021 63.42 38.6321C61.9355 39.8021 59.5245 39.0721 58.1796 40.4321C57.4523 41.1621 57.2829 42.2921 57.1534 43.3321C57.0538 44.1121 56.9542 44.8821 56.8545 45.6621C56.7748 46.2621 56.7051 46.8821 56.8346 47.4721C57.004 48.1921 57.4922 48.8521 57.4623 49.5921C57.4324 50.5821 56.5457 51.2621 55.7487 51.7921C54.9517 52.3221 54.065 53.0021 54.0152 53.9821C53.9654 54.9221 54.7325 55.6821 55.4897 56.2021C56.2468 56.7221 57.1136 57.1921 57.5021 58.0421C57.8508 58.8121 57.7412 59.7721 58.1696 60.5021C58.6678 61.3521 59.7039 61.6221 60.6404 61.8221C62.334 62.1721 64.3465 62.5221 66.0401 62.8521V62.5521C65.6715 61.7721 65.4822 61.2221 65.2431 60.3421C65.1435 60.3621 65.5221 58.9021 65.4125 58.9021C64.1173 58.9021 63.3502 58.5321 63.3502 56.5021C63.3502 56.0521 62.6229 55.8221 62.7126 55.4221C65.542 54.4421 64.6254 52.2521 66.9467 51.3521C69.5072 50.3621 68.0925 47.1921 70.0153 46.8321C71.0813 46.6321 72.4362 45.5321 73.0738 44.2521C73.1635 44.4321 73.2531 44.6121 73.3528 44.7821C73.7612 45.4421 74.2892 45.9921 74.8173 46.5421C75.2855 47.0321 75.7836 47.5321 76.4013 47.7621C77.2681 48.0721 78.3441 47.8521 79.0116 48.5021C79.5396 49.0121 79.5994 49.8921 80.0975 50.4321C80.6056 50.9821 81.4723 51.0621 81.9506 51.6421C82.5882 52.4221 82.2395 53.8021 84.0826 54.3021C84.2918 54.3621 84.6903 54.5021 85.1386 54.6421C85.3877 55.2221 84.5309 56.0421 84.5309 56.8021C84.5309 58.8321 83.4748 60.4821 82.1797 60.4821C82.1 60.4821 83.0365 60.3621 82.9568 60.3421C82.8273 60.8221 82.6679 61.2921 82.4985 61.7521H82.5483C84.4014 62.9021 86.9319 62.7321 88.6255 61.3321C89.2731 60.8021 89.7912 60.1221 90.2993 59.4421C90.6779 58.9421 91.0664 58.4321 91.445 57.9321C91.7239 57.5721 92.0029 57.1821 92.0627 56.7221C92.1623 55.8521 91.4251 55.1321 91.2756 54.2721C91.0166 52.7421 92.6306 51.5221 92.78 49.9821C92.8697 49.0021 92.3516 48.0821 91.7738 47.3121V47.3521V47.3521Z" fill="#2E5055"/>
<path d="M63.7188 68.022C62.6528 68.022 62.075 66.302 62.075 64.682C62.075 63.062 62.6528 61.332 63.7188 61.332C64.7848 61.332 65.3726 63.052 65.3726 64.682C65.3726 66.312 64.7948 68.022 63.7188 68.022V68.022ZM63.7188 62.082C63.3601 62.082 62.8222 63.122 62.8222 64.682C62.8222 66.242 63.3601 67.272 63.7188 67.272C64.0775 67.272 64.6254 66.242 64.6254 64.682C64.6254 63.122 64.0874 62.082 63.7188 62.082V62.082Z" fill="#2E5055"/>
<path d="M85.1086 68.022C84.0327 68.022 83.4548 66.302 83.4548 64.682C83.4548 63.062 84.0327 61.332 85.1086 61.332C86.1846 61.332 86.7525 63.052 86.7525 64.682C86.7525 66.312 86.1746 68.022 85.1086 68.022V68.022ZM85.1086 62.082C84.75 62.082 84.202 63.122 84.202 64.682C84.202 66.242 84.74 67.272 85.1086 67.272C85.4773 67.272 86.0053 66.242 86.0053 64.682C86.0053 63.122 85.4673 62.082 85.1086 62.082V62.082Z" fill="#2E5055"/>
</g>
</g>
<defs>
<filter id="filter0_d_1501_26053" x="0" y="0.507812" width="148" height="148" filterUnits="userSpaceOnUse" color-interpolation-filters="sRGB">
<feFlood flood-opacity="0" result="BackgroundImageFix"/>
<feColorMatrix in="SourceAlpha" type="matrix" values="0 0 0 0 0 0 0 0 0 0 0 0 0 0 0 0 0 0 127 0" result="hardAlpha"/>
<feOffset dy="6"/>
<feGaussianBlur stdDeviation="5"/>
<feComposite in2="hardAlpha" operator="out"/>
<feColorMatrix type="matrix" values="0 0 0 0 0 0 0 0 0 0 0 0 0 0 0 0 0 0 0.15 0"/>
<feBlend mode="normal" in2="BackgroundImageFix" result="effect1_dropShadow_1501_26053"/>
<feBlend mode="normal" in="SourceGraphic" in2="effect1_dropShadow_1501_26053" result="shape"/>
</filter>
<clipPath id="clip0_1501_26053">
<rect x="10" y="4.50781" width="128" height="128" rx="64" fill="white"/>
</clipPath>
</defs>
</svg>
