<svg width="128" height="129" viewBox="0 0 128 129" fill="none" xmlns="http://www.w3.org/2000/svg">
<path d="M65 65.1866L71.1185 70.8653V59.5078L65 65.1866Z" fill="#235256"/>
<path fill-rule="evenodd" clip-rule="evenodd" d="M71.0808 58.5652C71.3314 58.6745 71.4934 58.9219 71.4934 59.1953V70.5528C71.4934 70.8262 71.3314 71.0737 71.0808 71.183C70.8302 71.2923 70.5387 71.2427 70.3383 71.0567L64.2198 65.378C64.0796 65.2479 64 65.0653 64 64.8741C64 64.6828 64.0796 64.5002 64.2198 64.3702L70.3383 58.6914C70.5387 58.5054 70.8302 58.4559 71.0808 58.5652ZM65.6981 64.8741L70.1185 68.9768V60.7714L65.6981 64.8741Z" fill="#235256"/>
<path fill-rule="evenodd" clip-rule="evenodd" d="M64.7631 42.7676C52.0189 42.7676 41.6876 53.0994 41.6876 65.8442C41.6876 78.5891 52.0189 88.9208 64.7631 88.9208C77.5073 88.9208 87.8385 78.5891 87.8385 65.8442C87.8385 53.0994 77.5073 42.7676 64.7631 42.7676ZM37.6155 65.8442C37.6155 50.8503 49.7699 38.6953 64.7631 38.6953C79.7563 38.6953 91.9107 50.8503 91.9107 65.8442C91.9107 80.8381 79.7563 92.9931 64.7631 92.9931C49.7699 92.9931 37.6155 80.8381 37.6155 65.8442Z" fill="#DA5B79"/>
<path d="M85.5853 97.8112C84.9474 97.2275 84.0108 97.1189 83.2506 97.5261C80.4544 99.0465 73.1925 102.467 64.5731 102.399C42.5021 102.223 24.8154 83.3001 27.2044 60.7258C29.0369 43.4455 42.855 29.4774 60.1073 27.4684C82.8299 24.835 102.173 42.6039 102.173 64.7981C102.173 71.1781 100.571 77.178 97.761 82.4449C97.2995 83.3001 97.5167 84.3589 98.2361 85.0105L98.3854 85.1462C99.2542 85.9336 100.639 85.6892 101.195 84.6576C105.091 77.4903 106.964 69.0605 105.987 60.1421C103.883 40.8664 88.3544 25.4051 69.0796 23.3689C42.5835 20.5862 20.3768 42.794 23.1594 69.2913C25.2091 88.8113 41.0226 104.422 60.5552 106.268C69.5954 107.123 78.1062 105.074 85.2867 100.933C86.4405 100.268 86.6034 98.68 85.6125 97.7976L85.5853 97.8112Z" fill="#235256"/>
<path d="M65.4827 37.6095L92.6981 20.75L65.4827 80.5455V37.6095Z" fill="#DA5B79"/>
<path d="M36.1768 20.75L65.4826 36.4285V79.3645L36.1768 20.75Z" fill="white"/>
<path d="M65.4825 81.1428C64.8173 81.1428 64.2065 80.7627 63.9079 80.1655L33.3669 19.0804C33.0139 18.3746 33.1768 17.5329 33.7469 16.99C34.317 16.4606 35.1857 16.3655 35.8509 16.7592L65.496 34.3788L95.1276 16.7592C95.8063 16.352 96.6615 16.447 97.2316 16.99C97.8017 17.5194 97.9646 18.3746 97.6116 19.0804L67.0706 80.1655C66.772 80.7627 66.1612 81.1428 65.496 81.1428H65.4825ZM40.2216 24.8903L64.0844 72.6181C64.668 73.7719 66.3105 73.7719 66.8941 72.6181L90.9741 24.4559C91.2048 23.9944 90.689 23.5193 90.2546 23.7772L67.4914 37.3109C66.2562 38.0439 64.7359 38.0439 63.5007 37.3109L41.1582 24.0351C40.5881 23.6957 39.9366 24.3066 40.2352 24.8903H40.2216Z" fill="#235256"/>
<path d="M65.5911 111.795L71.1971 105.754H59.9851L65.5911 111.795Z" fill="#235256"/>
<path fill-rule="evenodd" clip-rule="evenodd" d="M59.363 105.482C59.4709 105.234 59.7152 105.074 59.9851 105.074H71.1971C71.467 105.074 71.7112 105.234 71.8191 105.482C71.9271 105.729 71.8781 106.017 71.6945 106.215L66.0885 112.255C65.9601 112.394 65.7799 112.472 65.5911 112.472C65.4023 112.472 65.222 112.394 65.0936 112.255L59.4876 106.215C59.304 106.017 59.2551 105.729 59.363 105.482ZM61.5409 106.432L65.5911 110.796L69.6412 106.432H61.5409Z" fill="#235256"/>
<path d="M111.321 65.8445L105.281 60.2383V71.4508L111.321 65.8445Z" fill="#235256"/>
<path fill-rule="evenodd" clip-rule="evenodd" d="M105.009 59.6152C105.257 59.5073 105.545 59.5562 105.743 59.7398L111.783 65.3461C111.921 65.4745 112 65.6548 112 65.8436C112 66.0324 111.921 66.2126 111.783 66.3411L105.743 71.9473C105.545 72.1309 105.257 72.1799 105.009 72.0719C104.762 71.964 104.602 71.7198 104.602 71.4498V60.2373C104.602 59.9674 104.762 59.7231 105.009 59.6152ZM105.96 61.7932V69.8939L110.324 65.8436L105.96 61.7932Z" fill="#235256"/>
<path d="M17.6787 65.8445L23.719 60.2383V71.4508L17.6787 65.8445Z" fill="#235256"/>
<path fill-rule="evenodd" clip-rule="evenodd" d="M23.9904 59.6152C23.743 59.5073 23.4552 59.5562 23.2573 59.7398L17.217 65.3461C17.0786 65.4745 17 65.6548 17 65.8436C17 66.0324 17.0786 66.2126 17.217 66.3411L23.2573 71.9473C23.4552 72.1309 23.743 72.1799 23.9904 72.0719C24.2378 71.964 24.3977 71.7198 24.3977 71.4498V60.2373C24.3977 59.9674 24.2378 59.7231 23.9904 59.6152ZM23.0403 61.7932V69.8939L18.6764 65.8436L23.0403 61.7932Z" fill="#235256"/>
<path d="M65.5911 18.3594L59.9851 24.4H71.1971L65.5911 18.3594Z" fill="#235256"/>
<path fill-rule="evenodd" clip-rule="evenodd" d="M65.5911 17.6836C65.7799 17.6836 65.9601 17.7622 66.0885 17.9006L71.6945 23.9412C71.8781 24.1391 71.9271 24.4269 71.8191 24.6743C71.7112 24.9217 71.467 25.0817 71.1971 25.0817H59.9851C59.7152 25.0817 59.4709 24.9217 59.363 24.6743C59.2551 24.4269 59.304 24.1391 59.4876 23.9412L65.0936 17.9006C65.222 17.7622 65.4023 17.6836 65.5911 17.6836ZM65.5911 19.3601L61.5409 23.7242H69.6412L65.5911 19.3601Z" fill="#235256"/>
</svg>
