<svg width="129" height="129" viewBox="0 0 129 129" fill="none" xmlns="http://www.w3.org/2000/svg">
    <path d="M95.504 74.381 82.748 15.565a6.255 6.255 0 0 0-7.446-4.784l-33.96 7.36a6.254 6.254 0 0 0-4.785 7.444l12.756 58.816c.733 3.381 7.556 8.544 10.938 7.812l4.931-1.074-1.172-5.383c-.183-.866-.06-1.757.354-2.49.44-.78 1.136-1.306 1.966-1.489l12.634-2.734c.83-.183 1.684 0 2.405.537a3.534 3.534 0 0 1 1.355 2.124l1.172 5.383 4.895-1.062c3.38-.733 7.446-8.263 6.713-11.644zm-12.329-14.72L54.44 65.887a2.613 2.613 0 0 1-3.113-2.001L43.173 26.28a2.612 2.612 0 0 1 2.002-3.112l28.735-6.225a2.613 2.613 0 0 1 3.113 2.002l8.154 37.604a2.612 2.612 0 0 1-2.002 3.112z" fill="#fff"/>
    <path d="m80.903 103.312-5.965 1.293 1.897 8.743 5.965-1.293-1.897-8.743z" fill="#B4D6BD"/>
    <path d="M78.566 89.52h-.604c-.54 0-1.024-.37-1.135-.918a1.165 1.165 0 0 1 .898-1.382h.001l10.828-2.344h.001c.562-.119 1.258-.574 1.994-1.325.73-.744 1.474-1.754 2.137-2.934.65-1.157 1.145-2.346 1.442-3.408.298-1.07.386-1.98.252-2.592L81.6 15.8c-.593-2.744-3.315-4.479-6.063-3.897h-.001l-33.946 7.36c-2.746.592-4.492 3.314-3.899 6.06a1.166 1.166 0 0 1-.885 1.384 1.167 1.167 0 0 1-1.385-.885v-.001c-.872-4.005 1.68-7.958 5.672-8.83l33.96-7.371.053.244 3.46 79.656zm0 0-.1-.1m.1.1-.1-.1m0 0 10.56-2.285c.965-.209 1.972-.83 2.937-1.753.967-.925 1.906-2.166 2.733-3.641l-.218-.123c1.233-2.185 2.38-5.297 1.917-7.457L83.638 15.344 78.466 89.42zM39.486 33.696v-.002a1.167 1.167 0 0 0-1.386-.885c-.619.14-1.025.758-.885 1.384v.001l10.937 50.442c.2.924.76 1.933 1.532 2.918.774.988 1.774 1.969 2.876 2.837 2.194 1.726 4.847 3.046 6.982 3.046h.012c.318 0 .63-.025.932-.09l10.242-2.222h.001a1.16 1.16 0 0 0 .886-1.382c-.128-.633-.755-1.011-1.379-.89l-.005.001-10.242 2.222c-.615.133-1.477-.023-2.464-.418-.979-.392-2.044-1.003-3.05-1.73-1.004-.727-1.941-1.564-2.665-2.404-.729-.844-1.223-1.67-1.375-2.372l-10.95-50.456z" fill="#2E5055" stroke="#2E5055" stroke-width=".5"/>
    <path d="m73.9 16.924-28.727 6.23a2.624 2.624 0 0 0-2.008 3.121l8.157 37.596a2.624 2.624 0 0 0 3.121 2.008l28.727-6.23a2.624 2.624 0 0 0 2.008-3.121l-8.157-37.596a2.624 2.624 0 0 0-3.121-2.008z" fill="#DA5B79"/>
    <path d="M53.89 66.85a3.532 3.532 0 0 1-3.454-2.795l-8.166-37.58a3.55 3.55 0 0 1 2.71-4.21l28.723-6.237a3.55 3.55 0 0 1 4.21 2.71l8.155 37.592a3.52 3.52 0 0 1-.488 2.66 3.51 3.51 0 0 1-2.222 1.538l-28.723 6.237c-.256.049-.5.085-.744.085zm20.57-49.064c-.123 0-.245.012-.367.036L45.37 24.047c-.915.195-1.501 1.11-1.306 2.038l8.154 37.592c.195.915 1.111 1.501 2.039 1.306l28.723-6.225c.451-.097.83-.366 1.074-.744.244-.379.33-.842.232-1.282l-8.154-37.591a1.71 1.71 0 0 0-1.673-1.343v-.012z" fill="#2E5055"/>
    <path d="m55.196 72.477 9.582-2.075a2.452 2.452 0 0 1 2.93 1.88c.293 1.33-.562 2.636-1.892 2.93l-9.583 2.075a2.452 2.452 0 0 1-2.93-1.88c-.292-1.33.562-2.637 1.893-2.93z" fill="#DA5B79"/>
    <path d="M55.72 78.25a3.373 3.373 0 0 1-3.295-2.66 3.327 3.327 0 0 1 .464-2.54 3.39 3.39 0 0 1 2.124-1.476l9.582-2.075a3.368 3.368 0 0 1 2.551.464 3.39 3.39 0 0 1 1.477 2.124 3.39 3.39 0 0 1-2.587 4.015l-9.583 2.075a3.608 3.608 0 0 1-.72.073h-.012zm9.583-6.993c-.11 0-.22 0-.33.036l-9.582 2.075c-.403.085-.757.33-.977.671a1.55 1.55 0 0 0 1.636 2.343l9.583-2.074c.83-.183 1.367-1.001 1.184-1.831a1.52 1.52 0 0 0-.672-.964 1.576 1.576 0 0 0-.842-.244v-.013z" fill="#2E5055"/>
    <path d="m75.155 68.131 9.582-2.075a2.452 2.452 0 0 1 2.93 1.88c.293 1.33-.562 2.637-1.892 2.93l-9.583 2.075a2.452 2.452 0 0 1-2.93-1.88c-.292-1.33.562-2.637 1.893-2.93z" fill="#DA5B79"/>
    <path d="M75.668 73.917a3.373 3.373 0 0 1-3.296-2.661 3.385 3.385 0 0 1 2.588-4.016l9.582-2.074a3.39 3.39 0 0 1 4.028 2.588 3.39 3.39 0 0 1-2.588 4.014L76.4 73.844a3.607 3.607 0 0 1-.72.074h-.013zm9.582-6.994c-.11 0-.22 0-.33.037l-9.582 2.075a1.55 1.55 0 0 0-1.184 1.843 1.556 1.556 0 0 0 1.843 1.183l9.583-2.074c.83-.183 1.367-1.001 1.184-1.831a1.52 1.52 0 0 0-.672-.964 1.566 1.566 0 0 0-.83-.244l-.012-.025z" fill="#2E5055"/>
    <path d="m65.901 90.173-1.061-4.87c-.257-1.196.488-2.38 1.684-2.636l12.634-2.734c1.184-.257 2.356.5 2.625 1.708l1.062 4.87" fill="#fff"/>
    <path d="m64.999 90.368-1.062-4.87c-.366-1.696.708-3.368 2.392-3.722l12.635-2.734c1.684-.354 3.332.72 3.71 2.404l1.063 4.87-1.783.39-1.062-4.869c-.158-.708-.854-1.172-1.538-1.013L66.72 83.558c-.696.146-1.135.842-.989 1.55l1.062 4.87-1.794.39z" fill="#2E5055"/>
    <path d="m75.948 80.664 6.75 31.147a.728.728 0 0 1-.537.867l-4.98 1.086c-.379.086-.757-.171-.843-.561l-6.75-31.148 6.36-1.379v-.012z" fill="#fff"/>
    <path d="M77.275 114.792h-.241c-.324 0-.636-.09-.91-.272a1.774 1.774 0 0 1-.775-1.112L68.6 82.26a1.01 1.01 0 0 1 .771-1.205h.001l6.255-1.353c.068-.026.136-.04.207-.051l.006-.001c.514-.054.989.284 1.097.786l6.75 31.147a1.735 1.735 0 0 1-1.308 2.072l-4.993 1.086-.11.051zm0 0-.027-.027m.027.027-.027-.027m0 0c.046-.006.093-.014.137-.024l-.137.024zm.021-2.059-6.476-29.878 4.382-.946 6.476 29.866-4.382.958z" fill="#2E5055" stroke="#2E5055" stroke-width=".2"/>
    <path d="m80.519 101.618-6.359 1.378.517 2.386 6.36-1.378-.518-2.386zM54.977 58.355c-.562 0-1.062-.39-1.197-.964a1.216 1.216 0 0 1 .928-1.453l9.009-1.965a1.216 1.216 0 0 1 1.453.928 1.216 1.216 0 0 1-.928 1.452l-9.009 1.965c-.085.025-.17.025-.256.025v.012zM69.551 55.194c-.561 0-1.074-.39-1.196-.964-.147-.66.28-1.306.94-1.453l9.009-1.953c.659-.134 1.306.28 1.452.94.147.66-.28 1.306-.94 1.453l-9.008 1.953c-.086.024-.171.024-.257.024zM65.23 46.321c4.42-.952 6.226-6.26 3.32-9.715l-6.908-8.202a.325.325 0 0 0-.562.122l-2.893 10.326c-1.22 4.345 2.625 8.434 7.044 7.47z" fill="#2E5055"/>
    <path d="m75.533 105.198 4.59-1.001 1.636 7.628-4.566.989-1.66-7.616z" fill="#DA5B79"/>
    <path d="M78.646 109.628a.891.891 0 1 0 0-1.782.891.891 0 0 0 0 1.782z" fill="#2E5055"/>
</svg>
