<svg width="129" height="129" viewBox="0 0 129 129" fill="none" xmlns="http://www.w3.org/2000/svg">
    <path d="M36.357 58.82s-5.651-2.01-3.767-8.29l14.427-26.343s17.71-19.436 33.942 0l14.35 26.971s4.646 6.531-2.685 7.662H36.357z" fill="#2E5055"/>
    <path d="M50.786 32.98s5.919 1.585 10.267-1.492c2.182-1.554 4.553-1.523 6.563.251s5.118 2.889 10.173 1.649c0 0 2.512 19.121-13.502 19.074 0 0-15.385-.675-13.501-19.483z" fill="#fff"/>
    <path d="M25.792 112.952S27.3 63.656 64.491 67.456c0 0 33.44-8.478 38.699 45.747l-77.414-.251h.016z" fill="#DA5B79"/>
    <path d="M25.65 112.952c-1.35 0-2.15-1.021-2.15-2.041s.267-24.397 14.789-38.385c6.72-6.358 15.59-9.655 26.343-9.655 11.555 0 20.959 3.564 27.678 10.424 14.239 13.989 13.172 36.862 13.172 37.883 0 1.272-1.068 2.041-2.418 2.041s-2.151-1.021-2.151-2.292c0-.251.801-22.12-12.088-34.57-6.186-5.84-14.24-8.902-24.46-8.902-15.055 0-25.527 7.112-31.712 21.603-4.569 10.926-4.836 22.12-4.836 22.371 0 .502-.8 1.523-2.15 1.523h-.016z" fill="#2E5055"/>
    <path fill-rule="evenodd" clip-rule="evenodd" d="M56.776 86.04a5.514 5.514 0 0 0-6.637-4.105 5.514 5.514 0 0 0-4.106 6.636l1.885 7.962a1.687 1.687 0 0 0 2.022 1.247 1.57 1.57 0 1 1 .716 3.057c-2.58.604-5.187-.995-5.795-3.586v-.002l-1.884-7.956v-.003c-1.092-4.656 1.782-9.318 6.445-10.412 4.655-1.092 9.317 1.782 10.41 6.444.001 0 0 0 0 0l1.885 7.96c.605 2.582-.995 5.19-3.588 5.797a1.57 1.57 0 0 1-.716-3.057A1.687 1.687 0 0 0 58.66 94l-1.883-7.957v-.003z" fill="#2E5055"/>
    <path fill-rule="evenodd" clip-rule="evenodd" d="M47.965 66.691a1.57 1.57 0 0 1 .757 2.087 13.282 13.282 0 0 1-1.035 1.85c-.098.147-.146.216-.187.274-.037.053-.068.097-.124.182a2.078 2.078 0 0 0-.068.109c0 .032 0 .09.01.185.034.322.135.83.35 1.766.597 2.563 1.73 4.51 3.072 5.493a1.57 1.57 0 0 1-1.855 2.533c-2.176-1.592-3.585-4.353-4.276-7.316v-.004c-.209-.907-.357-1.603-.414-2.149-.062-.598-.03-1.156.218-1.73.15-.347.4-.708.57-.95l.097-.142c.206-.308.472-.734.798-1.43a1.57 1.57 0 0 1 2.087-.758zm-.655 4.47-.001.013a.05.05 0 0 1 .001-.012zM81.017 66.691a1.57 1.57 0 0 1 2.087.758c.325.696.591 1.122.798 1.43l.098.142c.168.242.419.603.569.95.248.574.28 1.132.217 1.73-.056.546-.204 1.242-.413 2.149v.004c-.69 2.963-2.1 5.724-4.276 7.316a1.57 1.57 0 0 1-1.855-2.533c1.341-.982 2.474-2.93 3.072-5.493.215-.936.316-1.444.35-1.766.009-.095.01-.153.01-.185a2.125 2.125 0 0 0-.068-.109l-.124-.182c-.041-.058-.09-.127-.187-.273-.281-.419-.631-.986-1.036-1.851a1.57 1.57 0 0 1 .758-2.087zm.655 4.47.001.013a.056.056 0 0 1-.001-.012z" fill="#2E5055"/>
    <path fill-rule="evenodd" clip-rule="evenodd" d="M75.826 81.49a2.37 2.37 0 1 0 0 4.74 2.37 2.37 0 0 0 0-4.74zm-5.51 2.37a5.51 5.51 0 1 1 11.02 0 5.51 5.51 0 0 1-11.02 0z" fill="#2E5055"/>
</svg>
