<svg width="129" height="129" viewBox="0 0 129 129" fill="none" xmlns="http://www.w3.org/2000/svg">
    <path d="M19.685 31.372h90.248c4.408 0 7.975 3.58 7.975 7.975v1.35H12.092v-1.745a7.595 7.595 0 0 1 7.593-7.593v.013zM32.54 84.318s.42-13.823 10.854-12.753c0 0 9.376-2.382 10.854 12.829l-21.696-.076h-.012z" fill="#DA5B79"/>
    <path d="m38.998 72.458 4.396 4.879 3.949-5.058-3.962-2-4.383 2.179z" fill="#fff"/>
    <path d="M32.45 84.317c-.382 0-.598-.28-.598-.573 0-.293.076-6.841 4.14-10.765 1.885-1.783 4.37-2.713 7.389-2.713 3.236 0 5.873.993 7.758 2.917 3.988 3.924 3.695 10.332 3.695 10.612 0 .357-.306.573-.675.573-.37 0-.6-.28-.6-.637 0-.076.23-6.204-3.388-9.694-1.733-1.644-3.987-2.497-6.854-2.497-4.217 0-7.16 2-8.892 6.05-1.287 3.071-1.35 6.205-1.35 6.269 0 .14-.23.433-.6.433l-.025.025z" fill="#2E5055"/>
    <path fill-rule="evenodd" clip-rule="evenodd" d="M36.212 73.21c-1.97 1.903-2.985 4.454-3.505 6.589-.519 2.131-.537 3.814-.537 3.945a.24.24 0 0 0 .166.237l.008-.007h.132a.342.342 0 0 0 .28-.147c.009-.348.126-3.379 1.375-6.36l.001-.001c.885-2.069 2.088-3.635 3.628-4.683 1.541-1.049 3.397-1.562 5.557-1.562 2.935 0 5.273.877 7.073 2.585l.002.002c1.876 1.81 2.742 4.287 3.142 6.294a18.304 18.304 0 0 1 .347 3.333c0 .158-.003.326-.003.296 0 .112.035.191.079.24.04.044.103.079.201.079.126 0 .22-.037.277-.082.05-.041.08-.095.08-.173l.001-.058c.007-.337.04-1.885-.347-3.82-.418-2.094-1.323-4.607-3.253-6.507l-.004-.004c-1.814-1.85-4.363-2.822-7.531-2.822-2.95 0-5.351.906-7.17 2.626zm-3.45 10.606v.002-.002zm3.011-11.068c1.953-1.847 4.519-2.8 7.608-2.8 3.302 0 6.027 1.015 7.984 3.01 2.055 2.024 2.998 4.676 3.43 6.835.4 2.007.365 3.618.358 3.949v.053a.843.843 0 0 1-.319.669 1.075 1.075 0 0 1-.676.223.892.892 0 0 1-.674-.29.985.985 0 0 1-.243-.666v-.014c.004-.163.04-1.634-.331-3.49-.39-1.949-1.218-4.28-2.96-5.96-1.664-1.579-3.836-2.409-6.633-2.409-2.056 0-3.781.487-5.199 1.451-1.418.965-2.552 2.424-3.4 4.406-.63 1.503-.962 3.026-1.136 4.185a19.094 19.094 0 0 0-.184 1.811 8.043 8.043 0 0 0-.005.147s0 .001 0 0a.583.583 0 0 1-.084.287.896.896 0 0 1-.185.223.98.98 0 0 1-.506.233l-.036.035h-.132a.887.887 0 0 1-.917-.892c0-.162.02-1.9.555-4.096.534-2.193 1.59-4.877 3.683-6.898l.002-.002z" fill="#2E5055"/>
    <path d="m40.578 59.285.026 4.026v3.006l2.777 2.434 2.803-2.828 1.745-3.236-1.185-2.943h-2.191l-3.325-1.045-.65.586z" fill="#fff"/>
    <path d="m39.419 68.508 1.363-.6-1.745-4.585-.038-4.039 2.229-.586 3.325 1.045 3.21.993-1.58 5.185-.292 1.988 4.064-.28 1.3-4.205-2.141-3.63-.395-4.179-3.593-2.777h-3.898l-3.733 1.949-1.248 3.529v6.981l3.172 3.21z" fill="#DA5B79"/>
    <path d="m46.005 69.399-.114-.74v-.738c1.172-.013 2.153-.459 2.879-1.248a3.675 3.675 0 0 0 .93-3.02l-.586-3.847a23.863 23.863 0 0 1-.153-1.338l-.038-.382c-.293-2.688-2.663-4.726-5.53-4.726v-1.49c3.67 0 6.727 2.598 7.097 6.05l.038.395c.038.42.09.854.153 1.274l.586 3.848c.23 1.516-.242 3.044-1.3 4.204a5.465 5.465 0 0 1-3.949 1.77l-.013-.012z" fill="#2E5055"/>
    <path d="M40.871 69.399c-1.63-.013-3.07-.663-4.064-1.771-1.044-1.16-1.516-2.688-1.286-4.204l.586-3.847c.063-.42.102-.841.153-1.262l.038-.395c.37-3.452 3.427-6.05 7.096-6.05v1.49c-2.867 0-5.249 2.025-5.53 4.726l-.037.395c-.051.446-.09.892-.153 1.325l-.586 3.847a3.674 3.674 0 0 0 .93 3.02 3.775 3.775 0 0 0 2.777 1.248l.102 1.49-.026-.012z" fill="#2E5055"/>
    <path d="M43.38 68.749c-2.19 0-4.343-2.688-4.343-5.427l-.026-4.026c0-.994.752-1.835 1.746-2.039-.128-.56-.077-.98-.077-1.019l1.554.166-.777-.09.777.077s-.076.803.523 1.414c.535.56 1.477.841 2.79.841 1.223 0 2.216.93 2.216 2.077l-.025 2.586c0 2.726-2.153 5.414-4.344 5.414l-.013.026zm-2.152-10.052c-.357 0-.65.268-.65.586l.026 4.026c0 2 1.592 3.949 2.777 3.949s2.777-1.95 2.777-3.936l.026-2.587c0-.318-.293-.586-.65-.586-1.784 0-3.121-.458-3.975-1.35a.635.635 0 0 1-.089-.102h-.255.013z" fill="#2E5055"/>
    <path fill-rule="evenodd" clip-rule="evenodd" d="M20.259 32.964a6.574 6.574 0 0 0-6.574 6.574v50.194a6.574 6.574 0 0 0 6.574 6.573h89.482a6.574 6.574 0 0 0 6.574-6.573 1.593 1.593 0 0 1 3.185 0c0 5.39-4.369 9.758-9.759 9.758H20.258c-5.389 0-9.758-4.369-9.758-9.758V39.538c0-5.39 4.37-9.759 9.759-9.759h89.482c5.39 0 9.759 4.37 9.759 9.759v39.047a1.592 1.592 0 1 1-3.185 0V39.538a6.574 6.574 0 0 0-6.574-6.574H20.258z" fill="#2E5055"/>
    <path fill-rule="evenodd" clip-rule="evenodd" d="M30.45 49.386a1.962 1.962 0 0 0-1.962 1.962V84.33c0 1.083.879 1.961 1.962 1.961h25.785a1.962 1.962 0 0 0 1.962-1.962V51.349a1.962 1.962 0 0 0-1.962-1.962H30.45zm-4.51 1.962a4.51 4.51 0 0 1 4.51-4.51h25.785a4.51 4.51 0 0 1 4.51 4.51V84.33a4.51 4.51 0 0 1-4.51 4.51H30.45a4.51 4.51 0 0 1-4.51-4.51V51.348z" fill="#2E5055"/>
    <path d="M106.799 51.246H70.554a1.809 1.809 0 1 0 0 3.618H106.8a1.809 1.809 0 0 0 0-3.618zM89.651 61.145H70.554a1.81 1.81 0 0 0 0 3.618h19.097a1.81 1.81 0 1 0 0-3.619zM106.799 61.145H96.594a1.81 1.81 0 0 0 0 3.618H106.8a1.809 1.809 0 0 0 0-3.619zM106.799 71.03H70.554a1.809 1.809 0 1 0 0 3.617H106.8a1.809 1.809 0 0 0 0-3.618zM98.097 80.93H70.554a1.809 1.809 0 1 0 0 3.618h27.543a1.809 1.809 0 1 0 0-3.618z" fill="#2E5055"/>
</svg>
