<svg width="129" height="128" viewBox="0 0 129 128" fill="none" xmlns="http://www.w3.org/2000/svg">
    <g clip-path="url(#dqd27bu44a)">
        <path d="M127.018 39.302a2.179 2.179 0 0 0-1.706-1.138 1.598 1.598 0 0 1-.443-.43l-.101-.139a7.687 7.687 0 0 1-1.251-2.174c-.038-.114-.064-.228-.089-.316-.341-1.58-1.352-2.339-3.008-2.275-4.222.164-5.132 4.525-5.613 6.864-.063.328-.126.631-.202.922-.19.822-1.631 1.53-2.794 2.111-.341.177-.682.342-.986.506l-.278.152c-.569.303-1.163.619-1.807 1.226-.43.404-.961.77-1.505 1.15-.834.569-1.782 1.226-2.591 2.174-.152.19-.316.392-.493.594-.468.57-.986 1.214-1.529 1.656-.089.038-.177.05-.279.076l-.176.038c-1.429.354-2.111 1.138-2.718 1.833l-.089.101c-.48.544-.809 1.087-1.087 1.567-.177.291-.341.582-.569.86-.214.29-.619.468-1.289.746l-.367.151s-.113.051-.164.064v-1.138c0-.152.05-.442.101-.708.152-.758.341-1.782-.063-2.806-.24-.594-.847-1.732-1.39-2.339a3.982 3.982 0 0 0-.86-.733c-.126-.215-.19-.417-.253-.581-.442-1.188-1.163-2.288-3.362-2.276v4.083c.076.19.177.392.303.62.405.72.834 1.049 1.201 1.302.101.063.101.076.126.1.152.178.557.873.683 1.139.013.126-.063.518-.114.77-.088.443-.19.949-.177 1.48v.442c.013.38.026.758 0 1.239-.05.404-.126 1.087.215 1.77.316.644 1.63 2.629 5.259 1.061l.328-.139c.885-.366 1.998-.834 2.844-1.946.304-.405.557-.81.797-1.214.24-.392.442-.733.695-1.036l.101-.114c.506-.582.531-.582.759-.645l.151-.038c.531-.126 1.125-.265 1.896-.897.746-.607 1.391-1.416 1.972-2.111l.443-.544c.48-.569 1.112-.998 1.845-1.504.645-.442 1.315-.898 1.96-1.517.265-.253.505-.38.998-.645l.304-.164c.265-.139.556-.29.859-.442 1.77-.885 4.184-2.086 4.791-4.627.076-.316.152-.67.228-1.036.417-1.998.771-3.186 1.466-3.64.43 1.124 1.087 2.274 1.833 3.172a5.22 5.22 0 0 0 1.036 1.074c-.392.19-.809.417-1.201.746-.214.177-.404.38-.594.594-.088.101-.164.203-.278.278a6.192 6.192 0 0 1-.493.316c-.619.354-1.466.847-2.022 2.162-1.037 2.477-.076 4.235.733 5.347.354.48.366.657.366.657s-.012.14-.252.443c-.405.53-1.012 1.074-1.859 1.643a6.445 6.445 0 0 1-.594.367l-.189.05c-.468.101-1.176.266-1.732.771-.556.493-.796 1.138-.986 1.669-.051.114-.088.24-.101.278-.354.556-.708 1.2-.847 2.073-.089.544-.101 1.074-.114 1.542-.025.834-.05 1.365-.303 1.681-.076.101-.24.177-.594.329-.417.19-.986.442-1.517.91-1.403 1.226-1.429 3.337-1.201 4.88.202 1.402.746 2.287 1.517 3.16l.303.34c.215.241.518.57.556.721.076.329.076 1.037.026 1.694-.026.253-.417.784-.708 1.176-.341.468-.733.998-1.011 1.605l-.064.152c-.392.86-.67 1.479-1.188 2.073-.341.404-.733.695-1.226 1.062-.253.19-.493.366-.746.581-1.453 1.176-2.553 2.516-3.451 4.21l-.164.303c-.152.29-.291.556-.43.771-.366.202-.733.556-1.024 1.176-.215.455-.392 1.137-.24 3.046.127 1.63.834 2.49 1.631 3.261.063.67.227 1.201.366 1.669.051.177.114.354.165.543.063.253.088.531.113.784.089.885.203 2.098 1.163 3.173.519.581 1.1.91 1.58 1.175.266.152.506.279.62.405.417.455.518.67.543.935.102.721 0 1.441-.265 1.783-.063.088-.152.177-.405.215-1.175.151-1.769-.228-2.06-1.315-.291-1.1-.645-2.086-1.997-3.046l-.114-.089c-.493-.354-.885-.62-1.125-.96-.051-.076-.063-.114-.101-.557-.025-.328-.051-.733-.164-1.213-.38-1.542-1.707-2.781-3.97-3.691-.43-.165-.796-.228-1.074-.279-.177-.328-.468-.808-.999-1.15-.948-.606-1.87-.43-2.313-.341l-.126.025c-.177.026-.367 0-.733-.076a8.374 8.374 0 0 0-1.05-.151 19.575 19.575 0 0 0-1.491 0c-.24 0-.468.025-.695.012-1.024 0-1.985.026-3.072.329-1.656.468-2.655.999-3.21 1.694a2.758 2.758 0 0 0-.557 1.175c-.101.228-.127.266-.417.632-.228.279-.392.557-.556.797l-.114.19h-.076c-.86.063-1.492-.114-2.667-.772a12.709 12.709 0 0 0-1.189-.569c-.24-.113-.492-.214-.72-.34-.493-.254-1.972-1.037-5.966.745l-.228.114a2.439 2.439 0 0 1-.48.24c-.24.025-.48.05-.708.088l-.455.127c-.405.177-.708.455-.999.733-.733.518-1.29.96-1.807 1.428l-.203.177c-.391.354-.72.67-1.087.898a1.269 1.269 0 0 1-.19.088c-.492.24-2.01.948-1.92 2.718.05.872.454 1.454.732 1.795-.05.177-.151.405-.278.594a6.04 6.04 0 0 1-.505.645h-.05a6.02 6.02 0 0 1-1.556-.632c-.151-.076-.29-.152-.43-.215a1.824 1.824 0 0 0-.29-.139c-.038-.051-.076-.127-.127-.19-.1-.151-.19-.303-.29-.43l-.392-.505c-.544-.695-1.05-1.353-1.429-2.061-.215-.391-.379-.809-.543-1.213-.24-.594-.493-1.214-.86-1.833-.518-.885-1.1-1.668-1.668-2.427l-.215-.278c-1.542-2.086-2.907-1.858-4.601-.822-.253.152-.519.354-.771.544-.215.164-.544.417-.645.455-.14.025-.556 0-.81-.025-.201-.013-.391-.038-.593-.038-.025-.038-.05-.064-.076-.101l-.164-.215c-1.1-1.416-1.833-2.604-2.301-3.742l-.076-.202c-.126-.341-.316-.86-.796-1.365a2.843 2.843 0 0 0-.86-.607l-.076-.076c-.442-.442-.897-.91-1.491-1.378-1.555-1.239-3.173-.897-4.248-.67l-.252.05c-.228.051-.556.039-.898.026-.202 0-.404-.013-.594 0-.998 0-1.833.265-2.566.506-.493.151-.923.29-1.302.316-1.163.088-2.376-.203-4.058-.936-.19-.076-.354-.151-.518-.215a1.857 1.857 0 0 1-.43-.19l-.227-.15a6.056 6.056 0 0 0-.67-.43c-.14-.076-.29-.216-.493-.392-.316-.291-.708-.645-1.264-.949-.202-.1-.38-.328-.683-.695a7.208 7.208 0 0 0-.493-.594c-1.428-1.593-3.173-2.402-4.98-2.414-1.378.038-1.618 0-2.124-.493-.025-.063-.025-.14-.038-.203-.05-.265-.126-.682-.341-1.163-.556-1.289-1.694-2.199-2.149-2.54a6.149 6.149 0 0 0-1.087-.62c-.24-.113-.455-.215-.582-.316-.214-.164-.442-.455-.695-.77a14.224 14.224 0 0 0-.67-.81l-.29-.303c-.582-.607-.746-.796-.885-1.264-.14-.493-.354-.898-.519-1.214-.113-.215-.227-.43-.24-.518-.025-.265 0-.645 0-1.011 0-.253.026-.506.026-.746 0-.114 0-.228.012-.354.013-.316.038-.708 0-1.125a3.348 3.348 0 0 0-.48-1.416c-.038-.063-.076-.126-.076-.114v-.252c0-.291 0-.594-.063-.898-.089-.48-.24-.86-.354-1.175-.038-.101-.089-.215-.127-.316-.227-.72-.252-1.492-.24-2.427V56.164c0-.379-.012-.784-.038-1.2-.038-.974-.075-1.973.14-2.63.379-1.15.72-2.288.695-3.729 0-.569.1-.973.29-1.643l.127-.48c.076-.266.126-.544.19-.822.113-.518.214-1.011.391-1.353l.228-.43c.543-1.049 1.112-2.136 1.365-3.59a7.587 7.587 0 0 0 .076-2.313c-.114-.897-.506-1.542-.784-2.022-.025-.05-.05-.089-.088-.152a.264.264 0 0 1 .05-.076c.329.253.695.531 1.138.746.025.013 2.958 1.29 4.411-.152.683-.67.81-1.466.784-2.123.544 0 1.05.038 1.403.19.101.037.19.088.291.126.405.19.96.455 1.669.518.543.05 1.061.038 1.53.013a18.487 18.487 0 0 1 4.133.278c.821.139 1.024.215 1.719.657.19.114.366.24.556.367.708.493 1.517 1.036 2.604 1.289 1.668.392 3.375.898 5.03 1.378 1.012.303 2.036.594 3.047.872.43.114.822.14 1.1.152.101 0 .19 0 .316.05.24.152.632.392 1.264.519.632.113 1.239.075 1.782.038.19-.013.392-.026.557-.026h24.636l.506.14c.91.252 1.782.48 2.68.593v-3.842c-.493-.089-1.024-.228-1.669-.405l-1.011-.278H42.326c-.266 0-.544.013-.835.038-.24.013-.569.038-.745.025a3.846 3.846 0 0 0-.607-.328c-.607-.266-1.163-.291-1.542-.304-.102 0-.203 0-.291-.025-.999-.265-1.985-.569-2.983-.86-1.707-.505-3.464-1.01-5.233-1.428-.392-.089-.822-.392-1.328-.733l-.682-.455c-1.125-.708-1.783-.961-3.097-1.188a21.916 21.916 0 0 0-4.93-.33c-.367.014-.72.026-1.012 0-.075 0-.278-.1-.43-.176-.151-.063-.29-.14-.454-.202-1.353-.557-2.807-.493-3.982-.455h-.177c-1.125.05-1.77.556-2.098.973a2.513 2.513 0 0 0-.531 1.378c-.05-.038-.089-.063-.127-.101-.543-.417-1.2-.948-2.098-1.113-.582-.1-1.53-.063-2.238.43-.846.569-1.049 1.302-1.137 1.694-.05.076-.101.151-.14.215-.555.784-1.01 1.807-.201 3.362.113.215.24.417.353.62.165.278.266.442.279.556.037.303.025.745-.051 1.137-.164.885-.53 1.606-.999 2.516l-.24.455c-.404.784-.569 1.58-.72 2.275-.05.228-.101.455-.152.67l-.114.443c-.215.783-.43 1.592-.417 2.692 0 .784-.164 1.454-.506 2.49-.43 1.315-.379 2.73-.328 3.97.012.366.025.707.025 1.049v4.019c0 1.201.025 2.377.43 3.616.063.19.139.379.202.556.063.164.127.328.152.417.012.089 0 .177 0 .265 0 .392 0 .986.29 1.644.089.215.178.366.291.53.013.152 0 .33 0 .494 0 .19-.025.366-.025.543 0 .19 0 .392-.025.594-.026.48-.05 1.037 0 1.593.088.822.417 1.441.657 1.896.101.202.202.38.24.506.405 1.365 1.1 2.098 1.783 2.819l.265.278c.164.177.316.366.455.556.367.468.784.999 1.39 1.454.43.316.86.53 1.214.695.177.088.367.164.53.29.456.33.797.734.898.961.038.101.064.19.102.38.088.467.24 1.238.973 2.01 1.744 1.832 3.476 1.794 4.993 1.769h.025c.91 0 1.732.809 2.035 1.15.127.14.24.291.354.43.43.544.961 1.214 1.871 1.694.14.076.29.215.48.392.316.278.696.632 1.252.935.088.05.164.114.253.165.151.113.316.214.48.328.405.24.758.38 1.05.48.113.038.227.089.34.14 1.505.657 3.54 1.39 5.828 1.238.847-.05 1.567-.29 2.212-.493.544-.177 1.011-.328 1.428-.328h.456c.518.012 1.112.038 1.757-.101l.29-.064c.872-.177.986-.164 1.113-.063.417.329.758.67 1.15 1.075l.202.202c.215.215.455.367.67.493v.013l.127.316c.606 1.453 1.491 2.932 2.818 4.626l.14.177c.505.657 1.188 1.555 2.869 1.593.152 0 .328.012.505.038.57.05 1.29.1 1.972-.05.873-.203 1.543-.709 2.086-1.113.089-.076.177-.14.278-.203.531.708 1.024 1.378 1.429 2.073.227.392.417.86.632 1.366.215.505.43 1.036.708 1.567.53.986 1.15 1.795 1.77 2.579l.454.619c.14.228.316.506.582.771.505.519 1.024.771 1.403.948.088.038.177.089.278.139a10.18 10.18 0 0 0 2.44.961l.19.051c.315.088.657.164 1.036.164.505 0 1.074-.139 1.719-.581.733-.493 1.416-1.429 1.668-1.808.607-.898.974-1.972.986-2.933 0-.531-.113-.96-.278-1.302.582-.392 1.05-.821 1.467-1.213l.19-.165c.404-.366.872-.733 1.504-1.188.063-.05.164-.126.265-.215h.139l.442-.076c.493-.151.961-.366 1.404-.619 1.314-.581 2.3-.784 2.642-.758.278.139.568.278.859.404.29.127.581.253.872.417 1.568.873 2.92 1.378 4.804 1.252 1.997-.152 2.705-1.29 3.135-1.972.088-.14.177-.291.303-.443.354-.442.632-.783.923-1.466.05-.101.088-.202.114-.316.19-.088.568-.24 1.213-.43.632-.177 1.226-.19 2.035-.19.29 0 .544 0 .822-.012.379 0 .758-.025 1.125 0 .215.013.404.05.594.088.493.089 1.087.203 1.833.114.1.152.215.304.366.455.746.746 1.568.885 2.06.974.115.025.241.038.291.063 1.227.493 1.644.948 1.694 1.062.05.202.051.392.064.569.038.606.1 1.529.796 2.502.607.86 1.353 1.391 2.01 1.858l.114.076c.328.241.341.253.53.936.784 2.932 3.161 4.5 6.22 4.095 1.201-.164 2.212-.733 2.92-1.668.885-1.151 1.251-2.832 1.011-4.589-.19-1.378-.872-2.275-1.504-2.983-.531-.569-1.1-.898-1.568-1.163-.24-.139-.493-.278-.581-.38-.139-.15-.177-.492-.228-1.023a8.222 8.222 0 0 0-.215-1.353c-.063-.265-.139-.505-.215-.745-.113-.367-.189-.632-.214-.91-.076-1.012-.38-1.644-1.125-2.34-.468-.442-.481-.492-.506-.846-.038-.417-.051-.72-.051-.935l.089-.089c.581-.632.935-1.314 1.251-1.921l.139-.278c.67-1.264 1.403-2.162 2.478-3.034.215-.177.43-.329.632-.48.581-.43 1.226-.91 1.845-1.644.847-.998 1.302-1.997 1.745-2.958l.063-.151c.114-.253.354-.582.619-.936.582-.796 1.302-1.77 1.429-3.059.05-.53.139-1.858-.101-2.894-.253-1.113-.948-1.871-1.441-2.427l-.24-.279c-.468-.543-.557-.758-.632-1.226-.114-.821-.051-1.352.012-1.542.114-.076.291-.152.493-.24.556-.253 1.327-.594 1.997-1.403 1.075-1.328 1.125-2.844 1.151-3.957 0-.379.025-.745.076-1.049.025-.152.075-.29.303-.645.202-.328.341-.67.455-.986 0-.025.013-.05.025-.075.24-.051.455-.114.62-.165.568-.215 1.011-.493 1.441-.783 1.201-.81 2.098-1.631 2.755-2.503 2.048-2.718.443-4.905-.076-5.638-.53-.733-.543-1.05-.303-1.63.042-.102.181-.22.417-.355.266-.151.544-.316.835-.53.353-.253.606-.531.821-.759.089-.088.165-.177.253-.265.101-.089.392-.228.619-.33.721-.34 1.821-.859 2.402-2.047.417-.86.531-2.086-.101-3.034l-.038.064z" fill="#235256"/>
        <path d="M33.035 40.655c4.175 0 7.559-3.424 7.559-7.648s-3.385-7.648-7.56-7.648c-4.174 0-7.558 3.424-7.558 7.648s3.384 7.648 7.559 7.648z" fill="#fff"/>
        <path fill-rule="evenodd" clip-rule="evenodd" d="M33.035 26.624c-3.463 0-6.295 2.844-6.295 6.383 0 3.54 2.832 6.384 6.295 6.384s6.295-2.844 6.295-6.384c0-3.54-2.832-6.383-6.295-6.383zm-8.823 6.383c0-4.907 3.936-8.911 8.823-8.911 4.887 0 8.823 4.003 8.823 8.911 0 4.908-3.936 8.912-8.823 8.912-4.887 0-8.823-4.004-8.823-8.912z" fill="#2E5055"/>
        <path d="M33.035 27.483c2.045 0 3.704-1.675 3.704-3.741 0-2.067-1.659-3.742-3.704-3.742-2.046 0-3.704 1.675-3.704 3.742 0 2.066 1.658 3.741 3.704 3.741z" fill="#2E5055"/>
        <path d="M40.91 31.226s-3.211-.974-5.145.973c-1.605 1.63-8.04.809-9-1.466-.96-2.44 1.605-4.387 1.605-4.387l9-.328 3.54 5.207z" fill="#2E5055"/>
        <path d="M26.79 45.938c.417 2.604 3.021 4.55 5.916 4.55 2.895 0 5.499-1.946 5.916-4.55a13.265 13.265 0 0 0-6.042-1.428c-2.2 0-3.982.644-5.777 1.428h-.013z" fill="#fff"/>
        <path d="M40.126 46.848c-.821 3.122-3.843 5.334-7.42 5.334s-6.598-2.338-7.42-5.473c-4.816 3.122-8.242 9.367-8.242 16.534l29.832.215s1.846-11.667-6.737-16.61h-.013z" fill="#DA5B79"/>
        <path d="M32.706 52.196c3.577 0 6.599-2.339 7.42-5.335-.417-.265-.96-.644-1.378-.91-.543 2.604-3.02 4.55-5.915 4.55s-5.5-1.946-5.916-4.55c-.544.266-.96.518-1.517.784.683 3.248 3.716 5.473 7.28 5.473l.026-.012z" fill="#fff"/>
        <path d="M17.436 63.913c-.53 0-.935-.391-.935-.91 0-.392 0-9.758 5.764-15.232 2.68-2.604 6.03-3.906 10.188-3.906 4.425 0 8.04 1.429 10.72 4.172 3.4 2.414.708 4.222-1.34 1.036-2.276-2.086-5.36-3.388-9.38-3.388-5.764 0-9.922 2.87-12.337 8.596-1.744 4.298-1.87 8.849-1.87 8.849.138.518-.266.91-.81.783z" fill="#2E5055"/>
        <path fill-rule="evenodd" clip-rule="evenodd" d="M32.453 44.339c-4.048 0-7.275 1.262-9.858 3.772l-.004.003c-2.787 2.647-4.198 6.255-4.908 9.286-.708 3.022-.708 5.419-.708 5.602 0 .244.18.437.461.437v.474l.108-.462c.139.032.204-.01.223-.029.015-.014.05-.06.02-.17l-.017-.067.001-.07.474.014-.474-.013V63.1l.002-.042.008-.157c.007-.137.019-.336.039-.588.04-.503.111-1.217.238-2.066.253-1.697.728-3.949 1.619-6.145l.002-.006c1.234-2.927 2.928-5.155 5.08-6.65 2.152-1.496 4.73-2.235 7.694-2.235 4.131 0 7.332 1.341 9.7 3.512l.045.042.033.051c.478.743.97 1.16 1.363 1.353.414.204.63.132.678.098.018-.012.035-.03.043-.08.01-.056.006-.167-.066-.338-.146-.346-.538-.85-1.35-1.426l-.036-.025-.03-.03c-2.578-2.64-6.065-4.03-10.38-4.03zM18.721 63.083a1.09 1.09 0 0 1-.294 1.02c-.272.263-.658.357-1.044.283-.755-.027-1.356-.609-1.356-1.383 0-.214 0-2.694.733-5.819.73-3.118 2.201-6.929 5.177-9.755 2.776-2.697 6.248-4.038 10.516-4.038 4.518 0 8.251 1.457 11.029 4.284.867.621 1.402 1.24 1.64 1.805.242.573.202 1.206-.303 1.562-.456.321-1.084.254-1.645-.023-.57-.282-1.168-.817-1.706-1.637-2.178-1.977-5.132-3.223-9.015-3.223-2.8 0-5.183.696-7.154 2.066-1.972 1.37-3.565 3.44-4.745 6.237-.852 2.101-1.312 4.272-1.559 5.924a29.518 29.518 0 0 0-.23 2.002 21.204 21.204 0 0 0-.044.695z" fill="#2E5055"/>
        <path d="M71.197 64.254s.594-20.705 15.371-19.112c0 0 13.285-3.565 15.371 19.226l-30.755-.1.013-.014z" fill="#DA5B79"/>
        <path d="M101.863 64.812c-.531.126-.935-.266-.809-.784 0 0-.139-4.55-1.87-8.848-2.415-5.727-6.574-8.596-12.338-8.596-4.02 0-7.104 1.302-9.38 3.388-2.047 3.172-4.74 1.377-1.34-1.037 2.68-2.73 6.296-4.171 10.72-4.171 4.159 0 7.509 1.302 10.188 3.906 5.765 5.473 5.765 14.84 5.765 15.232 0 .518-.405.91-.936.91z" fill="#2E5055"/>
        <path fill-rule="evenodd" clip-rule="evenodd" d="M86.846 45.395c-4.277 0-7.722 1.388-10.268 3.982l-.04.04-.045.033c-.801.568-1.167 1.05-1.297 1.357a.587.587 0 0 0-.058.23.338.338 0 0 0 .085.005c.092-.003.232-.033.413-.122.36-.178.834-.57 1.3-1.292l.044-.068.06-.055c2.399-2.2 5.638-3.554 9.806-3.554 2.991 0 5.602.746 7.785 2.264 2.181 1.515 3.891 3.77 5.135 6.718l.003.01c.891 2.21 1.369 4.474 1.624 6.178a31.081 31.081 0 0 1 .283 2.668l.008.16.001.042.001.012v.004l-.632.02.632-.019.002.086-.02.083-.005.026a.22.22 0 0 0 .054-.007l.072-.017h.074c.199 0 .303-.126.303-.278 0-.18 0-2.563-.703-5.566-.707-3.017-2.108-6.591-4.864-9.208l-.005-.005c-2.55-2.478-5.737-3.727-9.748-3.727zm13.573 18.581-.005-.118a29.835 29.835 0 0 0-.271-2.549c-.247-1.646-.704-3.803-1.544-5.89-1.171-2.775-2.746-4.816-4.689-6.166-1.94-1.35-4.291-2.038-7.064-2.038-3.837 0-6.748 1.227-8.894 3.169-.547.825-1.16 1.376-1.757 1.67-.585.288-1.281.379-1.805.011-.59-.414-.617-1.14-.359-1.75.253-.598.81-1.235 1.684-1.863 2.81-2.841 6.58-4.321 11.13-4.321 4.306 0 7.818 1.354 10.627 4.082 3.007 2.856 4.487 6.701 5.221 9.833.736 3.142.737 5.636.737 5.855 0 .86-.665 1.505-1.494 1.54-.425.08-.856-.028-1.164-.326a1.268 1.268 0 0 1-.353-1.139z" fill="#2E5055"/>
        <path d="M46.219 69.64s.594-20.706 15.371-19.113c0 0 13.285-3.565 15.371 19.226l-30.755-.101.013-.013z" fill="#DA5B79"/>
        <path d="m55.37 51.867 6.22 7.319 5.6-7.597-5.613-2.983-6.206 3.26z" fill="#fff"/>
        <path d="M46.093 69.64c-.531 0-.86-.43-.86-.86 0-.429.101-10.25 5.878-16.129 2.667-2.667 6.194-4.057 10.467-4.057 4.588 0 8.33 1.491 10.997 4.373 5.663 5.878 5.233 15.485 5.233 15.915 0 .53-.43.86-.96.86-.531 0-.86-.43-.86-.961 0-.101.316-9.291-4.804-14.524-2.452-2.453-5.663-3.742-9.72-3.742-5.98 0-10.15 2.996-12.603 9.076-1.82 4.589-1.921 9.291-1.921 9.392 0 .215-.316.645-.86.645l.013.013z" fill="#2E5055"/>
        <path fill-rule="evenodd" clip-rule="evenodd" d="M51.448 52.985c-2.8 2.85-4.242 6.677-4.98 9.88-.737 3.197-.76 5.722-.76 5.915 0 .173.107.329.281.373h.091c.14 0 .244-.053.314-.117a.35.35 0 0 0 .07-.088l.002-.002c.01-.469.176-5.047 1.954-9.53l.001-.003c1.251-3.1 2.955-5.451 5.142-7.025 2.19-1.576 4.828-2.347 7.9-2.347 4.169 0 7.505 1.329 10.056 3.88l.004.004c2.655 2.714 3.88 6.427 4.449 9.43.285 1.507.407 2.85.459 3.824a24.496 24.496 0 0 1 .03 1.601c0 .17.053.296.118.372a.332.332 0 0 0 .268.115c.17 0 .297-.053.372-.117a.331.331 0 0 0 .115-.269c0-.017 0-.047.002-.091.01-.517.058-2.839-.487-5.735-.592-3.146-1.875-6.914-4.616-9.76l-.006-.006c-2.563-2.77-6.17-4.222-10.65-4.222-4.16 0-7.561 1.35-10.13 3.918zm-4.976 15.948-.001.003v-.003zm.466.882.299.299h-1.144c-.829 0-1.334-.68-1.334-1.334 0-.236.027-2.837.785-6.128.756-3.284 2.253-7.306 5.229-10.333l.003-.003c2.766-2.767 6.418-4.197 10.801-4.197 4.695 0 8.57 1.53 11.343 4.522 2.92 3.033 4.252 7.006 4.86 10.239.566 3 .514 5.41.504 5.917l-.002.084c0 .404-.168.751-.447.99a1.512 1.512 0 0 1-.988.344c-.404 0-.75-.168-.989-.447a1.512 1.512 0 0 1-.344-1.006c.005-.227.055-2.438-.474-5.231-.553-2.925-1.73-6.422-4.193-8.941-2.353-2.353-5.437-3.601-9.383-3.601-2.907 0-5.344.726-7.347 2.168-2.007 1.444-3.614 3.631-4.816 6.61-.892 2.248-1.365 4.53-1.614 6.27a30.376 30.376 0 0 0-.23 2.115 21.532 21.532 0 0 0-.042.772l-.001.057v.002a.892.892 0 0 1-.115.416 1.296 1.296 0 0 1-.361.416z" fill="#2E5055"/>
        <path d="m57.596 32.098.05 5.815v4.335l3.931 3.502 3.982-4.07 2.465-4.678-1.669-4.234h-3.11l-4.727-1.53-.922.86z" fill="#fff"/>
        <path d="m56.268 45.939 2.06-.885-2.654-6.877-.038-6.042 3.35-.897 5.044 1.58 4.474 1.643-2.01 7.622-.454 2.97 6.143-.43 1.96-6.294-3.224-5.448-.594-6.257-5.436-4.16H59l-5.638 2.934-1.896 5.283v10.454l4.803 4.804z" fill="#DA5B79"/>
        <path d="m65.964 46.723-.177-1.112v-1.112c1.807-.026 3.324-.683 4.437-1.871 1.163-1.252 1.694-2.908 1.44-4.526l-.897-5.764c-.1-.67-.177-1.34-.24-2.01l-.063-.581c-.443-4.032-4.108-7.079-8.533-7.079v-2.225c5.663 0 10.366 3.906 10.935 9.076l.063.582c.063.632.139 1.277.227 1.909l.898 5.764c.354 2.262-.38 4.55-1.997 6.295-1.543 1.656-3.767 2.629-6.093 2.654zM58.063 46.723c-2.503-.025-4.727-.998-6.27-2.654-1.617-1.732-2.338-4.033-1.997-6.295l.898-5.764c.101-.632.164-1.264.227-1.896l.064-.595c.568-5.17 5.27-9.076 10.934-9.076v2.225c-4.412 0-8.078 3.047-8.533 7.079l-.063.581c-.076.67-.139 1.328-.24 1.998l-.898 5.764c-.252 1.63.266 3.286 1.429 4.525a5.87 5.87 0 0 0 4.285 1.87l.152 2.226.012.012z" fill="#2E5055"/>
        <path d="M61.931 45.75c-3.387 0-6.699-4.032-6.699-8.128l-.05-6.03c0-1.491 1.15-2.742 2.692-3.046-.202-.834-.127-1.479-.114-1.517l2.402.253-1.201-.126 1.2.114s-.113 1.2.797 2.123c.834.834 2.276 1.264 4.298 1.264 1.883 0 3.426 1.39 3.426 3.11l-.038 3.868c0 4.095-3.325 8.115-6.713 8.115zm-3.324-15.055c-.556 0-.999.392-.999.885l.051 6.03c0 2.995 2.452 5.915 4.285 5.915 1.833 0 4.285-2.92 4.285-5.903l.038-3.868c0-.48-.455-.872-.998-.872-2.756 0-4.816-.683-6.131-2.035-.05-.05-.101-.101-.14-.152h-.391z" fill="#2E5055"/>
        <path d="M86.429 41.59c3.407 0 6.168-3.91 6.168-8.734s-2.761-8.735-6.168-8.735-6.169 3.91-6.169 8.735c0 4.824 2.762 8.734 6.169 8.734z" fill="#fff"/>
        <path d="M80.627 28.051h1.757l1.517-1.036 3.729-.759 4.727-2.11-.67-2.959h-8.254l-4.184 3.135 1.378 3.73z" fill="#2E5055"/>
        <path d="M87.048 42.615h-.518c-4.462 0-6.13-4.74-6.598-6.51-1.189-.328-1.96-1.44-1.96-2.932V29.86h.847v-3.767c0-3.123 2.541-5.65 5.65-5.65h8.596V22.263a3.273 3.273 0 0 1 1.707 2.856v4.74h.834v3.313c0 1.491-.77 2.603-1.947 2.932-.467 1.77-2.136 6.523-6.585 6.523l-.026-.013zm-6.7-10.858v1.365c0 .329.077 1.112.823 1.112h.695l.126.683s1.024 5.22 4.55 5.22h.481c3.54 0 4.55-5.17 4.55-5.22l.127-.683h.695c.72 0 .81-.783.81-1.112v-1.365h-.772v-6.03c0-.341-.139-.657-.354-.897a4.704 4.704 0 0 1-4.222 2.642h-3.754a.267.267 0 0 0-.265.265v.708h-1.681v-.708c0-1.074.872-1.947 1.946-1.947h3.754a3.014 3.014 0 0 0 2.996-2.692h-6.206a3.528 3.528 0 0 0-3.527 3.527v5.132h-.784.013z" fill="#2E5055"/>
    </g>
    <defs>
        <clipPath id="dqd27bu44a">
            <path fill="#fff" transform="translate(.5)" d="M0 0h128v128H0z"/>
        </clipPath>
    </defs>
</svg>
