<svg xmlns="http://www.w3.org/2000/svg" width="128" height="128" fill="none"><path fill="#DA5B79" d="M26.22 37.919s19.532.872 33.64-9.964c0 0 13.67 11.627 33.203 12.336 0 0 10.113 37.02-33.204 57.437 0 0-37.033-11.872-33.64-59.81z"/><path fill="#235256" fill-rule="evenodd" d="M101.055 35.434a6.816 6.816 0 0 1-.327 9.632L67.715 75.912a6.815 6.815 0 0 1-9.642-.338l-15.648-16.82a6.815 6.815 0 0 1 9.98-9.284L63.4 61.29l28.022-26.183a6.816 6.816 0 0 1 9.633.327z" clip-rule="evenodd"/><path fill="#fff" fill-rule="evenodd" d="M97.57 38.69c.77.825.727 2.119-.098 2.89L64.459 72.424a2.044 2.044 0 0 1-2.893-.102L45.92 55.503a2.045 2.045 0 1 1 2.994-2.785l14.252 15.32L94.68 38.592a2.044 2.044 0 0 1 2.89.098z" clip-rule="evenodd"/></svg>