<svg width="128" height="129" viewBox="0 0 128 129" fill="none" xmlns="http://www.w3.org/2000/svg">
    <g clip-path="url(#i3hsy1ssla)">
        <path fill-rule="evenodd" clip-rule="evenodd" d="M21.836 77.287a2.273 2.273 0 0 1 1.93 2.57l-2.25-.32 2.25.32-.001.01-.004.026-.014.096-.054.358a102.483 102.483 0 0 1-.997 5.463c-.34 1.606-.759 3.363-1.248 4.982-.109.36-.224.722-.344 1.08.735-.29 1.549-.635 2.409-1.018a138.955 138.955 0 0 0 5.762-2.751 175.871 175.871 0 0 0 2.515-1.291l.144-.076.047-.025m-13.862 6.09a.199.199 0 0 1 .01-.001h-.01zm1.525 2.405a.163.163 0 0 1-.013.026l.013-.026zm-.378-15.99-.004.026-.012.083a89.135 89.135 0 0 1-.248 1.559 97.823 97.823 0 0 1-.753 3.985c-.325 1.535-.714 3.157-1.152 4.609-.45 1.489-.91 2.653-1.334 3.36l1.95 1.169-1.948-1.172c-.221.369-.531.97-.565 1.696a2.617 2.617 0 0 0 1.322 2.422c.677.387 1.376.402 1.747.39.436-.014.88-.09 1.282-.182 1.562-.355 3.743-1.234 5.81-2.153 2.12-.944 4.308-2.015 5.958-2.845a184.491 184.491 0 0 0 2.585-1.327l.153-.08.053-.029s.002 0-1.063-2.008m-11.21-11.432a2.273 2.273 0 0 0-2.571 1.93l2.57-1.93z" fill="#2E5055"/>
        <path d="M42.395 17.11a5.53 5.53 0 1 0 0-11.061 5.53 5.53 0 0 0 0 11.06z" fill="#DA5B79"/>
        <path fill-rule="evenodd" clip-rule="evenodd" d="M37.817 13.574a2.273 2.273 0 0 1-1.144 3.004c-13.638 6.117-23.128 19.809-23.128 35.7 0 9.868 3.65 18.886 9.68 25.759a2.273 2.273 0 0 1-3.418 2.997A43.48 43.48 0 0 1 9 52.277C9 34.531 19.602 19.253 34.813 12.43a2.273 2.273 0 0 1 3.004 1.144zM93.987 50.006a2.273 2.273 0 0 1 2.273 2.273c0 24.104-19.533 43.637-43.638 43.637A43.502 43.502 0 0 1 32.26 90.88a2.273 2.273 0 1 1 2.12-4.02 38.957 38.957 0 0 0 18.244 4.51c21.593 0 39.091-17.498 39.091-39.091a2.273 2.273 0 0 1 2.273-2.273z" fill="#2E5055"/>
        <path fill-rule="evenodd" clip-rule="evenodd" d="M72.719 18.334C69.297 10.464 75.06 1.67 83.638 1.67a1.894 1.894 0 0 1 0 3.788c-5.847 0-9.78 5.994-7.446 11.365l12.53 28.758c2.037 4.68 8.673 4.68 10.71 0l12.53-28.773c2.334-5.354-1.581-11.335-7.43-11.335a1.894 1.894 0 0 1 0-3.788c8.576 0 14.328 8.778 10.903 16.636l-12.53 28.772c-3.357 7.715-14.297 7.715-17.655.001l-12.531-28.76z" fill="#2E5055"/>
        <path fill-rule="evenodd" clip-rule="evenodd" d="M81.594 33.757a2.652 2.652 0 0 1 3.49 1.371l4.424 10.152c1.773 4.072 7.548 4.073 9.32.001l4.273-9.818a2.652 2.652 0 0 1 4.863 2.116l-4.273 9.818c-3.622 8.322-15.422 8.322-19.044.002l-4.425-10.152a2.652 2.652 0 0 1 1.372-3.49z" fill="#2E5055"/>
        <path d="M84.108 7.368a3.333 3.333 0 1 0 0-6.667 3.333 3.333 0 0 0 0 6.667zM104.38 7.368a3.334 3.334 0 1 0 0-6.668 3.334 3.334 0 0 0 0 6.668z" fill="#2E5055"/>
        <path d="M57.926 37.58H47.319v29.395h10.607V37.58z" fill="#DA5B79"/>
        <path d="M67.32 57.565V46.96H37.924v10.606h29.394z" fill="#DA5B79"/>
        <path fill-rule="evenodd" clip-rule="evenodd" d="M42.016 8.55a3.03 3.03 0 1 0 0 6.06 3.03 3.03 0 0 0 0-6.06zm-7.576 3.03a7.576 7.576 0 1 1 15.152 0 7.576 7.576 0 0 1-15.152 0z" fill="#2E5055"/>
    </g>
    <defs>
        <clipPath id="i3hsy1ssla">
            <path fill="#fff" transform="translate(0 .701)" d="M0 0h128v128H0z"/>
        </clipPath>
    </defs>
</svg>
