<svg width="129" height="129" viewBox="0 0 129 129" fill="none" xmlns="http://www.w3.org/2000/svg">
    <g clip-path="url(#10zrhrxm4a)">
        <path fill-rule="evenodd" clip-rule="evenodd" d="M22.336 77.54a2.273 2.273 0 0 1 1.93 2.57l-2.25-.32 2.25.32-.001.011-.004.026-.014.096-.054.358a102.483 102.483 0 0 1-.997 5.463c-.34 1.606-.759 3.363-1.248 4.982-.109.36-.224.722-.344 1.08.735-.29 1.549-.635 2.409-1.018a138.955 138.955 0 0 0 5.762-2.751 175.871 175.871 0 0 0 2.515-1.291l.144-.076.047-.025m-13.862 6.089a.199.199 0 0 1 .01 0h-.01zm1.525 2.406a.158.158 0 0 1-.013.026l.013-.026zm-.378-15.99-.004.025-.012.084a89.135 89.135 0 0 1-.248 1.559 97.823 97.823 0 0 1-.753 3.985c-.325 1.535-.714 3.157-1.152 4.609-.45 1.488-.91 2.652-1.334 3.36l1.95 1.169-1.948-1.172c-.221.368-.531.969-.565 1.696a2.617 2.617 0 0 0 1.322 2.422c.677.387 1.376.402 1.747.39.436-.014.88-.09 1.282-.182 1.562-.355 3.743-1.234 5.81-2.154 2.12-.943 4.308-2.014 5.958-2.844a184.491 184.491 0 0 0 2.585-1.327l.153-.08.053-.029s.002 0-1.063-2.008M22.337 77.54a2.273 2.273 0 0 0-2.571 1.93l2.57-1.93z" fill="#2E5055"/>
        <path d="M42.895 17.364a5.53 5.53 0 1 0 0-11.061 5.53 5.53 0 0 0 0 11.06z" fill="#DA5B79"/>
        <path fill-rule="evenodd" clip-rule="evenodd" d="M38.317 13.828a2.273 2.273 0 0 1-1.144 3.003c-13.638 6.117-23.128 19.81-23.128 35.7 0 9.869 3.65 18.887 9.68 25.76a2.273 2.273 0 0 1-3.418 2.997A43.48 43.48 0 0 1 9.5 52.53c0-17.746 10.602-33.024 25.813-39.847a2.273 2.273 0 0 1 3.004 1.144zM94.487 50.26a2.273 2.273 0 0 1 2.273 2.273c0 24.104-19.533 43.637-43.638 43.637a43.502 43.502 0 0 1-20.363-5.036 2.273 2.273 0 1 1 2.12-4.02 38.957 38.957 0 0 0 18.244 4.51c21.593 0 39.091-17.498 39.091-39.091a2.273 2.273 0 0 1 2.273-2.273z" fill="#2E5055"/>
        <path fill-rule="evenodd" clip-rule="evenodd" d="M73.219 18.588c-3.422-7.87 2.342-16.664 10.919-16.664a1.894 1.894 0 0 1 0 3.788c-5.847 0-9.78 5.994-7.446 11.365l12.53 28.758c2.037 4.68 8.673 4.68 10.71 0l12.53-28.773c2.334-5.355-1.581-11.335-7.43-11.335a1.894 1.894 0 0 1 0-3.788c8.576 0 14.328 8.778 10.903 16.636l-12.53 28.772c-3.357 7.715-14.297 7.715-17.655 0 0 0 0 .001 0 0L73.219 18.589z" fill="#2E5055"/>
        <path fill-rule="evenodd" clip-rule="evenodd" d="M82.094 34.01a2.652 2.652 0 0 1 3.49 1.372l4.424 10.152c1.773 4.072 7.548 4.073 9.32 0 0 0 0 .001 0 0l4.273-9.817a2.652 2.652 0 0 1 4.863 2.116l-4.273 9.818c-3.622 8.321-15.422 8.322-19.044.001l-4.425-10.151a2.652 2.652 0 0 1 1.372-3.49z" fill="#2E5055"/>
        <path d="M84.608 7.622a3.333 3.333 0 1 0 0-6.667 3.333 3.333 0 0 0 0 6.667zM104.88 7.622a3.334 3.334 0 1 0 0-6.668 3.334 3.334 0 0 0 0 6.668z" fill="#2E5055"/>
        <path d="M58.426 37.834H47.819v29.394h10.607V37.834z" fill="#DA5B79"/>
        <path d="M67.82 57.82V47.212H38.424v10.606h29.394z" fill="#DA5B79"/>
        <path fill-rule="evenodd" clip-rule="evenodd" d="M42.516 8.803a3.03 3.03 0 1 0 0 6.061 3.03 3.03 0 0 0 0-6.06zm-7.576 3.03a7.576 7.576 0 1 1 15.152 0 7.576 7.576 0 0 1-15.152 0z" fill="#2E5055"/>
    </g>
    <defs>
        <clipPath id="10zrhrxm4a">
            <path fill="#fff" transform="translate(.5 .955)" d="M0 0h128v128H0z"/>
        </clipPath>
    </defs>
</svg>
