<?xml version="1.0" encoding="UTF-8" standalone="no"?>
<svg
   width="107.43964"
   height="96.644562"
   viewBox="0 0 107.43964 96.644562"
   fill="none"
   version="1.1"
   id="svg27"
   sodipodi:docname="talk-to-doctor-icon.svg"
   inkscape:version="1.2.2 (732a01da63, 2022-12-09)"
   xmlns:inkscape="http://www.inkscape.org/namespaces/inkscape"
   xmlns:sodipodi="http://sodipodi.sourceforge.net/DTD/sodipodi-0.dtd"
   xmlns="http://www.w3.org/2000/svg"
   xmlns:svg="http://www.w3.org/2000/svg">
  <sodipodi:namedview
     id="namedview29"
     pagecolor="#505050"
     bordercolor="#eeeeee"
     borderopacity="1"
     inkscape:showpageshadow="0"
     inkscape:pageopacity="0"
     inkscape:pagecheckerboard="0"
     inkscape:deskcolor="#505050"
     showgrid="false"
     inkscape:zoom="6.4263566"
     inkscape:cx="54.930036"
     inkscape:cy="76.092883"
     inkscape:window-width="1920"
     inkscape:window-height="1009"
     inkscape:window-x="3832"
     inkscape:window-y="-8"
     inkscape:window-maximized="1"
     inkscape:current-layer="svg27" />
  <g
     clip-path="url(#10zrhrxm4a)"
     id="g20"
     transform="translate(-9.4999433,-0.955)">
    <path
       fill-rule="evenodd"
       clip-rule="evenodd"
       d="m 22.336,77.54 a 2.273,2.273 0 0 1 1.93,2.57 l -2.25,-0.32 2.25,0.32 -10e-4,0.011 -0.004,0.026 -0.014,0.096 -0.054,0.358 a 102.483,102.483 0 0 1 -0.997,5.463 c -0.34,1.606 -0.759,3.363 -1.248,4.982 -0.109,0.36 -0.224,0.722 -0.344,1.08 0.735,-0.29 1.549,-0.635 2.409,-1.018 a 138.955,138.955 0 0 0 5.762,-2.751 175.871,175.871 0 0 0 2.515,-1.291 l 0.144,-0.076 0.047,-0.025 m -13.862,6.089 a 0.199,0.199 0 0 1 0.01,0 z m 1.525,2.406 a 0.158,0.158 0 0 1 -0.013,0.026 z m -0.378,-15.99 -0.004,0.025 -0.012,0.084 a 89.135,89.135 0 0 1 -0.248,1.559 97.823,97.823 0 0 1 -0.753,3.985 c -0.325,1.535 -0.714,3.157 -1.152,4.609 -0.45,1.488 -0.91,2.652 -1.334,3.36 l 1.95,1.169 -1.948,-1.172 c -0.221,0.368 -0.531,0.969 -0.565,1.696 a 2.617,2.617 0 0 0 1.322,2.422 c 0.677,0.387 1.376,0.402 1.747,0.39 0.436,-0.014 0.88,-0.09 1.282,-0.182 1.562,-0.355 3.743,-1.234 5.81,-2.154 2.12,-0.943 4.308,-2.014 5.958,-2.844 a 184.491,184.491 0 0 0 2.585,-1.327 l 0.153,-0.08 0.053,-0.029 c 0,0 0.002,0 -1.063,-2.008 M 22.337,77.54 a 2.273,2.273 0 0 0 -2.571,1.93 l 2.57,-1.93 z"
       fill="#2e5055"
       id="path2" />
    <path
       d="m 42.895,17.364 a 5.5305,5.5305 0 1 0 0,-11.061 5.53,5.53 0 0 0 0,11.06 z"
       fill="#da5b79"
       id="path4" />
    <path
       fill-rule="evenodd"
       clip-rule="evenodd"
       d="m 38.317,13.828 a 2.273,2.273 0 0 1 -1.144,3.003 c -13.638,6.117 -23.128,19.81 -23.128,35.7 0,9.869 3.65,18.887 9.68,25.76 A 2.273,2.273 0 0 1 20.307,81.288 43.48,43.48 0 0 1 9.5,52.53 C 9.5,34.784 20.102,19.506 35.313,12.683 a 2.273,2.273 0 0 1 3.004,1.144 z m 56.17,36.432 a 2.273,2.273 0 0 1 2.273,2.273 c 0,24.104 -19.533,43.637 -43.638,43.637 a 43.502,43.502 0 0 1 -20.363,-5.036 2.273,2.273 0 1 1 2.12,-4.02 38.957,38.957 0 0 0 18.244,4.51 c 21.593,0 39.091,-17.498 39.091,-39.091 a 2.273,2.273 0 0 1 2.273,-2.273 z"
       fill="#2e5055"
       id="path6" />
    <path
       fill-rule="evenodd"
       clip-rule="evenodd"
       d="M 73.219,18.588 C 69.797,10.718 75.561,1.924 84.138,1.924 a 1.894,1.894 0 0 1 0,3.788 c -5.847,0 -9.78,5.994 -7.446,11.365 l 12.53,28.758 c 2.037,4.68 8.673,4.68 10.71,0 l 12.53,-28.773 c 2.334,-5.355 -1.581,-11.335 -7.43,-11.335 a 1.894,1.894 0 0 1 0,-3.788 c 8.576,0 14.328,8.778 10.903,16.636 l -12.53,28.772 c -3.357,7.715 -14.297,7.715 -17.655,0 0,0 0,10e-4 0,0 L 73.219,18.589 Z"
       fill="#2e5055"
       id="path8" />
    <path
       fill-rule="evenodd"
       clip-rule="evenodd"
       d="m 82.094,34.01 a 2.652,2.652 0 0 1 3.49,1.372 l 4.424,10.152 c 1.773,4.072 7.548,4.073 9.32,0 0,0 0,10e-4 0,0 l 4.273,-9.817 a 2.652,2.652 0 0 1 4.863,2.116 l -4.273,9.818 c -3.622,8.321 -15.422,8.322 -19.044,10e-4 L 80.722,37.501 a 2.652,2.652 0 0 1 1.372,-3.49 z"
       fill="#2e5055"
       id="path10" />
    <path
       d="m 84.608,7.622 a 3.3335,3.3335 0 1 0 0,-6.667 3.3335,3.3335 0 0 0 0,6.667 z m 20.272,0 a 3.334,3.334 0 1 0 0,-6.668 3.334,3.334 0 0 0 0,6.668 z"
       fill="#2e5055"
       id="path12" />
    <path
       d="M 58.426,37.834 H 47.819 v 29.394 h 10.607 z"
       fill="#da5b79"
       id="path14" />
    <path
       d="M 67.82,57.82 V 47.212 H 38.424 v 10.606 h 29.394 z"
       fill="#da5b79"
       id="path16" />
    <path
       fill-rule="evenodd"
       clip-rule="evenodd"
       d="m 42.516,8.803 a 3.0305,3.0305 0 1 0 0,6.061 3.03,3.03 0 0 0 0,-6.06 z m -7.576,3.03 a 7.576,7.576 0 1 1 15.152,0 7.576,7.576 0 0 1 -15.152,0 z"
       fill="#2e5055"
       id="path18" />
  </g>
  <defs
     id="defs25">
    <clipPath
       id="10zrhrxm4a">
      <path
         fill="#ffffff"
         transform="translate(0.5,0.955)"
         d="M 0,0 H 128 V 128 H 0 Z"
         id="path22" />
    </clipPath>
  </defs>
</svg>
