<svg xmlns="http://www.w3.org/2000/svg" width="128" height="128" fill="none"><path fill="#DA5B79" d="M88.727 93.97H45.208c-3.74 0-9.508-.117-11.372-3.357-1.876-3.24.543-8.906 2.406-12.146L54.34 47.094c1.887-3.263 5.261-8.565 9.048-8.576h.035c3.764 0 7.15 5.266 9.049 8.517l18.426 31.503c1.876 3.204 7.951 10.862 6.772 13.088-1.734 3.287-5.215 2.333-8.93 2.333l-.012.012zM63.41 51.866c-.272 0-.354.154-.401.236L44.913 83.474c-.035.07-.094.165 0 .342.095.176.213.165.295.165h36.818c.07 0 .142 0 .212-.118.071-.13.036-.189 0-.248L63.812 52.113c-.047-.07-.13-.236-.401-.236v-.012z"/><path fill="#235256" d="m99.793 91.85-3.846-6.562a2.504 2.504 0 0 0-3.41-.907 2.502 2.502 0 0 0-.908 3.428l1.64 2.804H33.836l29.516-51.177 18.65 31.891a2.504 2.504 0 0 0 3.41.907 2.502 2.502 0 0 0 .909-3.428L65.487 33.192a2.506 2.506 0 0 0-2.158-1.237c-.897 0-1.711.483-2.16 1.249L27.337 91.862a2.498 2.498 0 0 0 2.17 3.746h68.14c.896 0 1.722-.483 2.17-1.26a2.511 2.511 0 0 0 0-2.51l-.023.012z"/><path fill="#2E5055" d="m65.975 62.94-.465 11.516h-3.37l-.466-11.517h4.3zm-2.092 17.67c-.698 0-1.271-.208-1.72-.625a2.156 2.156 0 0 1-.651-1.587c0-.641.217-1.178.65-1.61.45-.434 1.023-.65 1.72-.65.683 0 1.24.216 1.674.65.45.432.675.969.675 1.61 0 .625-.225 1.154-.675 1.587-.433.417-.991.625-1.673.625z"/></svg>