<svg width="128" height="129" viewBox="0 0 128 129" fill="none" xmlns="http://www.w3.org/2000/svg">
<path d="M91.8887 105.871H22.0811V112.893H91.8887V105.871Z" fill="#DA5B79"/>
<path d="M85.0117 116.738H28.9579C23.4598 116.738 19 112.244 19 106.742V32.214C19 26.6952 23.4768 22.2188 28.9579 22.2188H85.0117C90.5098 22.2188 94.9696 26.7123 94.9696 32.214V83.4715C94.9696 84.8384 93.8802 85.9319 92.5184 85.9319C91.1567 85.9319 90.0672 84.8384 90.0672 83.4715V32.214C90.0672 29.4119 87.8033 27.1395 85.0117 27.1395H28.9579C26.1663 27.1395 23.9024 29.4119 23.9024 32.214V106.742C23.9024 109.545 26.1663 111.817 28.9579 111.817H85.0117C87.8033 111.817 90.0672 109.545 90.0672 106.742V94.3894C90.0672 93.0225 91.1567 91.929 92.5184 91.929C93.8802 91.929 94.9696 93.0225 94.9696 94.3894V106.742C94.9696 112.261 90.4928 116.738 85.0117 116.738V116.738Z" fill="#2E5055"/>
<path d="M53.844 71.6146H32.9749C32.4132 71.6146 31.9536 70.9824 31.9536 70.2135C31.9536 69.4447 32.4132 68.8125 32.9749 68.8125H53.844C54.4058 68.8125 54.8654 69.4447 54.8654 70.2135C54.8654 70.9824 54.4058 71.6146 53.844 71.6146Z" fill="#2E5055"/>
<path d="M53.844 80.4818H32.9749C32.4132 80.4818 31.9536 79.8496 31.9536 79.0807C31.9536 78.3119 32.4132 77.6797 32.9749 77.6797H53.844C54.4058 77.6797 54.8654 78.3119 54.8654 79.0807C54.8654 79.8496 54.4058 80.4818 53.844 80.4818Z" fill="#2E5055"/>
<path d="M53.844 89.349H32.9749C32.4132 89.349 31.9536 88.7168 31.9536 87.9479C31.9536 87.1791 32.4132 86.5469 32.9749 86.5469H53.844C54.4058 86.5469 54.8654 87.1791 54.8654 87.9479C54.8654 88.7168 54.4058 89.349 53.844 89.349Z" fill="#2E5055"/>
<path d="M80.9944 71.6146H60.1253C59.5636 71.6146 59.104 70.9824 59.104 70.2135C59.104 69.4447 59.5636 68.8125 60.1253 68.8125H80.9944C81.5561 68.8125 82.0157 69.4447 82.0157 70.2135C82.0157 70.9824 81.5561 71.6146 80.9944 71.6146Z" fill="#2E5055"/>
<path d="M80.9944 80.4818H60.1253C59.5636 80.4818 59.104 79.8496 59.104 79.0807C59.104 78.3119 59.5636 77.6797 60.1253 77.6797H80.9944C81.5561 77.6797 82.0157 78.3119 82.0157 79.0807C82.0157 79.8496 81.5561 80.4818 80.9944 80.4818Z" fill="#2E5055"/>
<path d="M80.9944 89.349H60.1253C59.5636 89.349 59.104 88.7168 59.104 87.9479C59.104 87.1791 59.5636 86.5469 60.1253 86.5469H80.9944C81.5561 86.5469 82.0157 87.1791 82.0157 87.9479C82.0157 88.7168 81.5561 89.349 80.9944 89.349Z" fill="#2E5055"/>
<path d="M53.844 98.2005H32.9749C32.4132 98.2005 31.9536 97.5684 31.9536 96.7995C31.9536 96.0306 32.4132 95.3984 32.9749 95.3984H53.844C54.4058 95.3984 54.8654 96.0306 54.8654 96.7995C54.8654 97.5684 54.4058 98.2005 53.844 98.2005Z" fill="#2E5055"/>
<path d="M80.9944 98.2005H60.1253C59.5636 98.2005 59.104 97.5684 59.104 96.7995C59.104 96.0306 59.5636 95.3984 60.1253 95.3984H80.9944C81.5561 95.3984 82.0157 96.0306 82.0157 96.7995C82.0157 97.5684 81.5561 98.2005 80.9944 98.2005Z" fill="#2E5055"/>
<path d="M53.4358 48.8047C52.4485 50.8379 51.5804 52.6832 50.6782 54.5114C49.8952 56.1175 48.6355 56.22 47.5802 54.7677C46.8482 53.7596 46.0822 52.7687 45.4354 51.7093C45.0098 51.0259 44.4992 50.838 43.7332 50.855C41.4863 50.9063 39.2393 50.8721 36.9924 50.855C35.6987 50.855 35.0008 50.257 35.0349 49.249C35.0519 48.258 35.6987 47.7454 36.9754 47.7454C39.6989 47.7454 42.4395 47.7625 45.163 47.7454C46.0652 47.7454 46.678 48.053 47.1546 48.7877C47.6653 49.5565 48.227 50.2912 48.8398 51.1455C49.9462 48.856 51.0016 46.6861 52.04 44.5162C52.3804 43.7815 52.7889 43.1664 53.6911 43.2006C54.6614 43.2177 55.0188 43.9182 55.3082 44.7041C56.2955 47.472 57.2998 50.2399 58.2871 53.0079C58.4062 53.3154 58.5424 53.6229 58.7467 54.1526C59.5297 52.3757 60.2787 50.7867 60.9255 49.1806C61.334 48.1726 61.9638 47.7625 63.0533 47.7625C67.6833 47.7967 72.3133 47.7625 76.9433 47.7796C78.2029 47.7796 78.8838 48.3092 78.9178 49.2661C78.9519 50.257 78.2199 50.8892 76.9603 50.8892C72.8069 50.8892 68.6705 50.9063 64.5172 50.8892C63.8363 50.8892 63.4788 51.043 63.2065 51.7264C62.2362 54.0672 61.1808 56.3567 60.1765 58.6804C59.8531 59.4492 59.3935 60.0301 58.5084 59.996C57.6232 59.9618 57.2317 59.3467 56.9593 58.5608C55.955 55.7245 54.9337 52.8883 53.9124 50.0691C53.7762 49.7103 53.64 49.3686 53.4358 48.856V48.8047Z" fill="#2E5055"/>
<path d="M73.5558 15.6602H40.4308C38.2874 15.6602 36.5498 17.4043 36.5498 19.5557V28.1841C36.5498 30.3356 38.2874 32.0797 40.4308 32.0797H73.5558C75.6993 32.0797 77.4369 30.3356 77.4369 28.1841V19.5557C77.4369 17.4043 75.6993 15.6602 73.5558 15.6602Z" fill="#DA5B79"/>
<path fill-rule="evenodd" clip-rule="evenodd" d="M40.4307 17.7949C39.4624 17.7949 38.6774 18.5828 38.6774 19.5547V28.1831C38.6774 29.155 39.4624 29.9429 40.4307 29.9429H73.5557C74.524 29.9429 75.3089 29.155 75.3089 28.1831V19.5547C75.3089 18.5828 74.524 17.7949 73.5557 17.7949H40.4307ZM34.4219 19.5547C34.4219 16.2238 37.1121 13.5234 40.4307 13.5234H73.5557C76.8742 13.5234 79.5645 16.2238 79.5645 19.5547V28.1831C79.5645 31.5141 76.8742 34.2144 73.5557 34.2144H40.4307C37.1121 34.2144 34.4219 31.5141 34.4219 28.1831V19.5547Z" fill="#2E5055"/>
<path d="M92.5183 65.7904C101.233 65.7904 108.298 58.6993 108.298 49.9519C108.298 41.2045 101.233 34.1133 92.5183 34.1133C83.8035 34.1133 76.7388 41.2045 76.7388 49.9519C76.7388 58.6993 83.8035 65.7904 92.5183 65.7904Z" fill="#DA5B79"/>
<path fill-rule="evenodd" clip-rule="evenodd" d="M92.5183 35.8195C84.7436 35.8195 78.441 42.1457 78.441 49.9495C78.441 57.7533 84.7436 64.0795 92.5183 64.0795C100.293 64.0795 106.596 57.7533 106.596 49.9495C106.596 42.1457 100.293 35.8195 92.5183 35.8195ZM75.0366 49.9495C75.0366 40.2585 82.8634 32.4023 92.5183 32.4023C102.173 32.4023 110 40.2585 110 49.9495C110 59.6405 102.173 67.4967 92.5183 67.4967C82.8634 67.4967 75.0366 59.6405 75.0366 49.9495Z" fill="white"/>
<path d="M88.0927 48.2598C89.1926 48.2598 90.0842 47.3648 90.0842 46.2608C90.0842 45.1567 89.1926 44.2617 88.0927 44.2617C86.9927 44.2617 86.1011 45.1567 86.1011 46.2608C86.1011 47.3648 86.9927 48.2598 88.0927 48.2598Z" fill="white"/>
<path d="M96.9442 48.2598C98.0441 48.2598 98.9358 47.3648 98.9358 46.2608C98.9358 45.1567 98.0441 44.2617 96.9442 44.2617C95.8443 44.2617 94.9526 45.1567 94.9526 46.2608C94.9526 47.3648 95.8443 48.2598 96.9442 48.2598Z" fill="white"/>
<path fill-rule="evenodd" clip-rule="evenodd" d="M92.4335 53.6422C90.4722 53.6422 88.7224 54.4885 87.4967 55.8403C87.1803 56.1893 86.642 56.2147 86.2944 55.8971C85.9467 55.5796 85.9214 55.0393 86.2378 54.6903C87.7696 53.0009 89.969 51.9336 92.4335 51.9336C94.9034 51.9336 97.284 53.0917 98.8204 54.9195C99.1235 55.2801 99.078 55.819 98.7187 56.1233C98.3595 56.4276 97.8225 56.3819 97.5194 56.0213C96.2982 54.5685 94.3892 53.6422 92.4335 53.6422Z" fill="white"/>
</svg>
