<svg width="128" height="128" viewBox="0 0 128 128" fill="none" xmlns="http://www.w3.org/2000/svg">
<path d="M63.4446 112.567C90.2683 112.567 112.013 90.822 112.013 63.9983C112.013 37.1746 90.2683 15.4297 63.4446 15.4297C36.6209 15.4297 14.876 37.1746 14.876 63.9983C14.876 90.822 36.6209 112.567 63.4446 112.567Z" fill="#DA5B79"/>
<path d="M63.4448 104.972C86.0742 104.972 104.419 86.6269 104.419 63.9976C104.419 41.3682 86.0742 23.0234 63.4448 23.0234C40.8154 23.0234 22.4707 41.3682 22.4707 63.9976C22.4707 86.6269 40.8154 104.972 63.4448 104.972Z" fill="white"/>
<path fill-rule="evenodd" clip-rule="evenodd" d="M63.4445 24.9006C41.8512 24.9006 24.3464 42.4054 24.3464 63.9987C24.3464 85.5919 41.8512 103.097 63.4445 103.097C85.0377 103.097 102.542 85.5919 102.542 63.9987C102.542 42.4054 85.0377 24.9006 63.4445 24.9006ZM20.5942 63.9987C20.5942 40.3331 39.7789 21.1484 63.4445 21.1484C87.11 21.1484 106.295 40.3331 106.295 63.9987C106.295 87.6642 87.11 106.849 63.4445 106.849C39.7789 106.849 20.5942 87.6642 20.5942 63.9987Z" fill="#2E5055"/>
<path fill-rule="evenodd" clip-rule="evenodd" d="M63.4447 17.3069C54.2079 17.3069 45.6109 19.9902 38.3678 24.6073C37.4941 25.1642 36.3343 24.9074 35.7773 24.0337C35.2204 23.16 35.4772 22.0002 36.3509 21.4432C44.1767 16.4547 53.4702 13.5547 63.4447 13.5547C91.3016 13.5547 113.889 36.1424 113.889 63.9994C113.889 91.8563 91.3016 114.444 63.4447 114.444C35.5878 114.444 13 91.8563 13 63.9994C13 55.116 15.3072 46.7591 19.3292 39.5103C19.8319 38.6043 20.9739 38.2773 21.8799 38.78C22.7859 39.2827 23.1129 40.4247 22.6102 41.3307C18.8876 48.0401 16.7522 55.7727 16.7522 63.9994C16.7522 89.784 37.66 110.692 63.4447 110.692C89.2293 110.692 110.137 89.784 110.137 63.9994C110.137 38.2147 89.2293 17.3069 63.4447 17.3069Z" fill="#2E5055"/>
<path d="M98.6856 107.479C106.66 107.479 113.124 101.014 113.124 93.0401C113.124 85.0659 106.66 78.6016 98.6856 78.6016C90.7114 78.6016 84.2471 85.0659 84.2471 93.0401C84.2471 101.014 90.7114 107.479 98.6856 107.479Z" fill="white"/>
<path fill-rule="evenodd" clip-rule="evenodd" d="M98.6852 80.4788C91.7472 80.4788 86.1228 86.1031 86.1228 93.0412C86.1228 99.9792 91.7472 105.604 98.6852 105.604C105.623 105.604 111.248 99.9792 111.248 93.0412C111.248 86.1031 105.623 80.4788 98.6852 80.4788ZM82.3706 93.0412C82.3706 84.0308 89.6749 76.7266 98.6852 76.7266C107.696 76.7266 115 84.0308 115 93.0412C115 102.051 107.696 109.356 98.6852 109.356C89.6749 109.356 82.3706 102.051 82.3706 93.0412Z" fill="#2E5055"/>
<path fill-rule="evenodd" clip-rule="evenodd" d="M106.044 88.3884C106.649 88.9542 106.682 89.9039 106.116 90.5097L97.4108 99.8302C96.8483 100.433 95.9053 100.469 95.2984 99.9109L91.4111 96.3388C90.8008 95.7779 90.7607 94.8285 91.3215 94.2181C91.8824 93.6077 92.8319 93.5676 93.4422 94.1285L96.2333 96.6933L103.922 88.4608C104.488 87.855 105.438 87.8226 106.044 88.3884Z" fill="#2E5055"/>
<path fill-rule="evenodd" clip-rule="evenodd" d="M70.2139 72.7546C70.9736 72.423 71.8582 72.7701 72.1898 73.5298L75.0547 80.0936L81.1619 76.3204C81.8671 75.8847 82.792 76.1032 83.2277 76.8083C83.6633 77.5135 83.4449 78.4384 82.7397 78.8741L75.1602 83.5568C74.7901 83.7855 74.3389 83.8423 73.9236 83.7125C73.5083 83.5827 73.1698 83.2791 72.9958 82.8804L69.4387 74.7306C69.1071 73.9709 69.4542 73.0862 70.2139 72.7546Z" fill="#2E5055"/>
<path fill-rule="evenodd" clip-rule="evenodd" d="M74.8315 80.8452C75.6231 81.091 76.0657 81.9319 75.8199 82.7236L73.5836 89.9278C73.3379 90.7195 72.4969 91.162 71.7053 90.9163C70.9136 90.6705 70.4711 89.8296 70.7168 89.0379L72.9531 81.8337C73.1989 81.042 74.0398 80.5995 74.8315 80.8452Z" fill="#2E5055"/>
<path fill-rule="evenodd" clip-rule="evenodd" d="M47.5551 66.3399C48.384 66.3343 49.0604 67.0017 49.066 67.8306L49.1261 76.7459C49.129 77.181 48.9429 77.596 48.616 77.8833C48.2892 78.1706 47.8537 78.3019 47.4225 78.2431L38.6124 77.0424C37.791 76.9305 37.216 76.1739 37.3279 75.3526C37.4398 74.5313 38.1964 73.9562 39.0177 74.0681L46.1127 75.0351L46.0643 67.8508C46.0587 67.0219 46.7262 66.3455 47.5551 66.3399Z" fill="#2E5055"/>
<path fill-rule="evenodd" clip-rule="evenodd" d="M46.6335 75.6128C47.2556 75.065 48.204 75.1252 48.7518 75.7473L53.7347 81.4056C54.2826 82.0277 54.2224 82.9761 53.6003 83.5239C52.9782 84.0717 52.0298 84.0115 51.482 83.3894L46.499 77.7311C45.9512 77.109 46.0114 76.1606 46.6335 75.6128Z" fill="#2E5055"/>
<path fill-rule="evenodd" clip-rule="evenodd" d="M87.108 45.4969C87.6949 46.0824 87.696 47.0327 87.1106 47.6195L82.058 52.6841L87.8036 56.9903C88.4669 57.4874 88.6017 58.4282 88.1045 59.0914C87.6074 59.7547 86.6667 59.8895 86.0034 59.3923L78.8742 54.0492C78.5262 53.7884 78.3085 53.3895 78.2773 52.9557C78.2461 52.522 78.4046 52.096 78.7118 51.7882L84.9855 45.4995C85.5709 44.9126 86.5212 44.9115 87.108 45.4969Z" fill="#2E5055"/>
<path fill-rule="evenodd" clip-rule="evenodd" d="M81.2712 52.7535C81.3324 53.5801 80.7118 54.2999 79.8852 54.361L72.3808 54.9163C71.5541 54.9775 70.8344 54.357 70.7732 53.5303C70.712 52.7037 71.3326 51.9839 72.1592 51.9228L79.6636 51.3674C80.4903 51.3063 81.21 51.9268 81.2712 52.7535Z" fill="#2E5055"/>
<path fill-rule="evenodd" clip-rule="evenodd" d="M53.1142 37.0031C53.9328 37.1331 54.4912 37.9021 54.3613 38.7207L52.9654 47.5159C52.8973 47.9454 52.6462 48.3241 52.2773 48.5542C51.9083 48.7843 51.4577 48.8431 51.0421 48.7153L42.5471 46.1037C41.7547 45.8602 41.3099 45.0204 41.5535 44.2281C41.7971 43.4358 42.6368 42.9909 43.4291 43.2345L50.2717 45.3381L51.3966 38.2502C51.5265 37.4316 52.2955 36.8732 53.1142 37.0031Z" fill="#2E5055"/>
<path fill-rule="evenodd" clip-rule="evenodd" d="M50.7032 45.9936C51.4063 45.5546 52.3322 45.7687 52.7712 46.4718L56.7636 52.8655C57.2026 53.5687 56.9885 54.4945 56.2854 54.9336C55.5823 55.3726 54.6564 55.1585 54.2174 54.4554L50.2251 48.0616C49.786 47.3585 50.0001 46.4327 50.7032 45.9936Z" fill="#2E5055"/>
</svg>
