<svg width="84" height="83" viewBox="0 0 84 83" fill="none" xmlns="http://www.w3.org/2000/svg">
    <path d="M41.98 57.412c8.788 0 15.912-7.124 15.912-15.912S50.768 25.588 41.98 25.588 26.068 32.712 26.068 41.5s7.124 15.912 15.912 15.912z" fill="#B4D6BD" stroke="#2F5055" stroke-width="2.5" stroke-miterlimit="10"/>
    <path d="M45.827 56.92 26.561 37.652M53.233 52.754 30.726 30.246M57.399 45.348 38.132 26.081" stroke="#2F5055" stroke-width="2.5" stroke-linejoin="round"/>
    <path d="M69.491 56.919c-6.188 5.61-15.272 10.557-27.511 10.614C16.293 67.418 4.431 45.806 4.376 41.5c.028-4.34 11.917-25.92 37.604-26.032 25.686.113 37.575 21.697 37.603 26.032-.028 1.184-.923 3.672-2.776 6.653" stroke="#2F5055" stroke-width="3" stroke-linecap="round" stroke-linejoin="round"/>
</svg>
