<svg width="84" height="83" viewBox="0 0 84 83" fill="none" xmlns="http://www.w3.org/2000/svg">
    <path d="M41.985 56.542c8.788 0 15.912-7.124 15.912-15.912 0-8.787-7.124-15.911-15.912-15.911S26.073 31.843 26.073 40.63c0 8.788 7.124 15.912 15.912 15.912z" fill="#B4D6BD" stroke="#2F5055" stroke-width="2.5" stroke-miterlimit="10"/>
    <path d="M69.491 56.049c-6.188 5.61-15.272 10.557-27.511 10.613C16.293 66.55 4.431 44.936 4.376 40.63c.028-4.34 11.917-25.92 37.604-26.033 25.686.114 37.575 21.698 37.603 26.033-.028 1.184-.923 3.672-2.776 6.652" stroke="#2F5055" stroke-width="3" stroke-linecap="round" stroke-linejoin="round"/>
    <path d="m12.445 71.961 60.922-60.922" stroke="#2F5055" stroke-width="2.5" stroke-miterlimit="10" stroke-linecap="round"/>
</svg>
