<svg width="84" height="83" viewBox="0 0 84 83" fill="none" xmlns="http://www.w3.org/2000/svg">
    <path fill-rule="evenodd" clip-rule="evenodd" d="M18.065 51.49a1.5 1.5 0 0 1 1.495-1.375h44.823a1.5 1.5 0 0 1 1.495 1.374c.049.585.073 1.21.073 1.815 0 6.984-3.572 13.139-8.993 16.742v2.926a1.5 1.5 0 1 1-3 0v-3.75a1.5 1.5 0 0 1 .723-1.284c4.965-3.004 8.27-8.438 8.27-14.634l-.001-.189H20.993l-.001.189c0 4.715 1.9 8.966 4.997 12.042l.014.015c.963.983 2.055 1.828 3.274 2.586a1.5 1.5 0 0 1 .708 1.274v3.751a1.5 1.5 0 1 1-3 0v-2.934a19.777 19.777 0 0 1-3.118-2.57 19.889 19.889 0 0 1-5.875-14.164c0-.6.024-1.225.073-1.814zM17.997 10.027a1.5 1.5 0 0 1 1.5-1.5h44.96a1.5 1.5 0 0 1 1.5 1.5v13.487a1.5 1.5 0 0 1-3 0V11.527h-41.96v20.238c0 .95.352 1.795.9 2.392.549.577 1.283.919 2.094.919a1.5 1.5 0 0 1 1.5 1.5v4.546h32.966v-4.547a1.5 1.5 0 0 1 1.5-1.5c1.425 0 2.72-1.12 2.945-2.772a1.5 1.5 0 0 1 2.972.407c-.339 2.479-2.076 4.542-4.417 5.17v4.742a1.5 1.5 0 0 1-1.5 1.5H23.991a1.5 1.5 0 0 1-1.5-1.5V37.88a5.949 5.949 0 0 1-2.78-1.667l-.013-.014c-1.07-1.16-1.7-2.737-1.7-4.434V10.027z" fill="#2F5055"/>
    <path d="M70.078 47.12c0 2.471-2 4.494-4.494 4.494H18.375c-1.258 0-2.385-.493-3.19-1.326a4.462 4.462 0 0 1-1.303-3.167c0-2.471 2-4.494 4.493-4.494h47.209c1.258 0 2.386.493 3.19 1.326a4.462 4.462 0 0 1 1.304 3.168z" fill="#B4D6BD"/>
    <path fill-rule="evenodd" clip-rule="evenodd" d="M18.375 44.127a2.993 2.993 0 0 0-2.993 2.994c0 .829.329 1.572.864 2.107l.018.018c.518.536 1.254.868 2.111.868h47.209a2.993 2.993 0 0 0 2.994-2.993c0-.83-.33-1.572-.864-2.107l-.019-.019c-.518-.536-1.254-.868-2.111-.868H18.375zm-5.993 2.994a5.993 5.993 0 0 1 5.993-5.994h47.209c1.654 0 3.17.65 4.26 1.774a5.962 5.962 0 0 1 1.734 4.22 5.993 5.993 0 0 1-5.994 5.993H18.375c-1.654 0-3.17-.65-4.26-1.774a5.962 5.962 0 0 1-1.733-4.22zM26.984 19.02a1.5 1.5 0 0 1 1.5-1.5h6.75a1.5 1.5 0 1 1 0 3h-6.75a1.5 1.5 0 0 1-1.5-1.5z" fill="#2F5055"/>
</svg>
