<svg width="84" height="83" viewBox="0 0 84 83" fill="none" xmlns="http://www.w3.org/2000/svg">
    <path d="M44.253 11.683c-.271-.322-3.032-3.475-7.38-3.132-3.718.3-5.842 2.932-6.185 3.375-1.258 2.146-1.816 4.005-2.095 5.313-.436 2.038-.186 2.775-.715 6.057-.308 1.917-.494 3.054-1.009 4.455a15.404 15.404 0 0 1-3.017 4.97c.293.48.93 1.337 2.038 1.78 1.745.694 3.926.072 5.485-1.587" fill="#2E5055"/>
    <path d="M41.429 10.74c.243-.193 4.526-3.447 9.346-1.616 3.097 1.18 4.534 3.747 4.913 4.483a11.304 11.304 0 0 1 1.86 4.992 11.374 11.374 0 0 1-.773 5.656 8.673 8.673 0 0 0-.243 4.326c.572 2.825 2.417 4.477 3.017 4.97 0 0-.622 1.344-2.038 1.78-1.408.437-3.024.03-4.154-1.15" fill="#2E5055"/>
    <path d="M42.544 14.194c6.458 0 11.692 5.199 11.692 11.613 0 6.415-5.213 15.86-11.67 15.86-6.458 0-11.714-9.446-11.714-15.86s5.235-11.613 11.692-11.613z" fill="#fff"/>
    <path fill-rule="evenodd" clip-rule="evenodd" d="M42.544 15.694c-5.638 0-10.191 4.537-10.191 10.113 0 2.86 1.194 6.539 3.18 9.5 2.016 3.007 4.55 4.86 7.033 4.86 2.48 0 5.004-1.851 7.009-4.857 1.975-2.96 3.161-6.641 3.161-9.503 0-5.576-4.553-10.113-10.192-10.113zm0-3c-7.276 0-13.191 5.86-13.191 13.113 0 3.556 1.433 7.807 3.689 11.171 2.226 3.321 5.549 6.19 9.524 6.19 3.977 0 7.288-2.871 9.504-6.193 2.246-3.365 3.666-7.615 3.666-11.168 0-7.252-5.916-13.113-13.192-13.113z" fill="#2E5055"/>
    <path d="M66.786 56.656s1.638-14.28-11.127-19.437c0 0-2.038 4.82-8.044 7.051v-.086c0-2.731-2.668-4.94-5.957-4.94-3.29 0-5.792 2.08-5.943 4.697-2.467-1.122-5.191-3.132-7.25-6.722l-1.195.544s-10.269 3.704-9.933 20.852c0 0-4.126 16.383 15.532 14.803l27.617-.422s7.852-1.466 6.307-16.347l-.007.007z" fill="#B4D6BD"/>
    <path fill-rule="evenodd" clip-rule="evenodd" d="M29.618 37.232a1.5 1.5 0 0 1-.851 1.943c-5.982 2.337-10.301 8.437-10.301 15.608v9.096a7.591 7.591 0 0 0 7.596 7.596H57.89a7.591 7.591 0 0 0 7.596-7.596v-9.096c0-7.171-4.32-13.271-10.301-15.608a1.5 1.5 0 0 1 1.092-2.794c7.161 2.798 12.21 10.027 12.21 18.402v9.096c0 5.856-4.741 10.596-10.597 10.596H26.062a10.591 10.591 0 0 1-10.596-10.596v-9.096c0-8.375 5.048-15.604 12.21-18.402a1.5 1.5 0 0 1 1.942.851z" fill="#2E5055"/>
    <path fill-rule="evenodd" clip-rule="evenodd" d="M55.623 53.283a1.5 1.5 0 0 1 1.5 1.5v2.274a6.05 6.05 0 0 1-6.048 6.048H35.157A4.17 4.17 0 0 0 32.2 64.33a4.186 4.186 0 0 0 2.958 7.143 1.5 1.5 0 0 1 0 3 7.186 7.186 0 0 1 0-14.37h15.918a3.05 3.05 0 0 0 3.048-3.047v-2.274a1.5 1.5 0 0 1 1.5-1.5z" fill="#2E5055"/>
    <path fill-rule="evenodd" clip-rule="evenodd" d="M36.937 39.511a7.12 7.12 0 0 1 10.079.002 7.076 7.076 0 0 1 2.098 5.151v.002a7.076 7.076 0 0 1-2.098 4.928l-.003.003-14.824 14.73a1.5 1.5 0 0 1-2.115-2.127l14.82-14.728.002-.001a4.077 4.077 0 0 0 1.219-2.851 4.077 4.077 0 0 0-1.22-2.985 4.12 4.12 0 0 0-5.839 0l-9.66 9.66a1.5 1.5 0 1 1-2.121-2.12l6.321-6.322 3.341-3.342z" fill="#2E5055"/>
    <path fill-rule="evenodd" clip-rule="evenodd" d="M68.01 37.728c0-.69.56-1.25 1.25-1.25h4.548a1.25 1.25 0 0 1 0 2.5H69.26c-.69 0-1.25-.56-1.25-1.25zM69.222 23.915a1.25 1.25 0 0 1 0 1.768L66.004 28.9a1.25 1.25 0 1 1-1.768-1.768l3.218-3.218a1.25 1.25 0 0 1 1.768 0zM74.806 29.884a1.25 1.25 0 0 1-.677 1.633l-4.197 1.737a1.25 1.25 0 0 1-.957-2.31l4.198-1.737a1.25 1.25 0 0 1 1.633.677zM8.9 37.728c0-.69.56-1.25 1.25-1.25H14.7a1.25 1.25 0 0 1 0 2.5H10.15c-.69 0-1.25-.56-1.25-1.25zM14.738 23.915a1.25 1.25 0 0 1 1.767 0l3.218 3.218a1.25 1.25 0 1 1-1.768 1.768l-3.217-3.218a1.25 1.25 0 0 1 0-1.768zM9.153 29.884a1.25 1.25 0 0 1 1.633-.677l4.198 1.738a1.25 1.25 0 0 1-.957 2.31L9.83 31.516a1.25 1.25 0 0 1-.677-1.633z" fill="#B4D6BD"/>
    <path d="M41.98 14.552s-1.43 11.434-10.612 11.856c0 0 3.146-2.467 3.096-5.928 0 0-1.094-8.753 7.516-5.928z" fill="#2E5055"/>
    <path d="M40.742 14.974s6.014 9.782 12.021 7.25c0 0-3.096-1.208-4.612-4.326 0 0-3.218-8.18-7.409-2.924z" fill="#2E5055"/>
</svg>
