<svg width="84" height="83" viewBox="0 0 84 83" fill="none" xmlns="http://www.w3.org/2000/svg">
    <path fill-rule="evenodd" clip-rule="evenodd" d="M28.876 54.271a1.5 1.5 0 0 1 1.5 1.5v2.182a2.885 2.885 0 0 0 2.872 2.872h12.017a6.969 6.969 0 0 1 6.962 6.962 6.969 6.969 0 0 1-6.962 6.963H37.62a1.5 1.5 0 0 1 0-3h7.645a3.969 3.969 0 0 0 3.962-3.963 3.969 3.969 0 0 0-3.962-3.962H33.248c-3.238 0-5.872-2.646-5.872-5.872V55.77a1.5 1.5 0 0 1 1.5-1.5z" fill="#2E5055"/>
    <path fill-rule="evenodd" clip-rule="evenodd" d="M53.794 38.887a1.5 1.5 0 0 1 1.943-.852c6.91 2.698 11.771 9.665 11.771 17.736v8.735c0 5.653-4.582 10.235-10.235 10.235H26.686c-5.653 0-10.235-4.582-10.235-10.235V55.77c0-8.07 4.87-15.037 11.77-17.735a1.5 1.5 0 0 1 1.093 2.795c-5.722 2.236-9.863 8.075-9.863 14.94v8.736a7.235 7.235 0 0 0 7.235 7.235h30.587a7.235 7.235 0 0 0 7.235-7.235V55.77c0-6.866-4.133-12.704-9.862-14.94a1.5 1.5 0 0 1-.852-1.943z" fill="#2E5055"/>
    <path fill-rule="evenodd" clip-rule="evenodd" d="M55.091 54.271a1.5 1.5 0 0 1 1.5 1.5v2.182a5.869 5.869 0 0 1-5.872 5.872H37.612a1.5 1.5 0 1 1 0-3h13.107a2.87 2.87 0 0 0 2.872-2.872V55.77a1.5 1.5 0 0 1 1.5-1.5z" fill="#2E5055"/>
    <path d="M42.118 40.482a1.141 1.141 0 1 0 0-2.283 1.141 1.141 0 0 0 0 2.283zM42.118 46.246a1.141 1.141 0 1 0 0-2.282 1.141 1.141 0 0 0 0 2.282zM39.835 43.117a1.141 1.141 0 1 0 0-2.282 1.141 1.141 0 0 0 0 2.282zM44.4 43.117a1.141 1.141 0 1 0 0-2.283 1.141 1.141 0 0 0 0 2.283zM37.713 46.246a1.141 1.141 0 1 0 0-2.282 1.141 1.141 0 0 0 0 2.282zM46.255 46.246a1.141 1.141 0 1 0 0-2.282 1.141 1.141 0 0 0 0 2.282z" fill="#B4D6BD"/>
    <path d="M57.055 35.622a.947.947 0 0 0 .932-1.15c-.428-1.93-1.058-4.699-1.628-7.585-1.846-9.273-1.452-10.674-2.761-12.579-2.232-3.239-6.503-6.042-11.454-6.058-5.622-.017-10.221 3.566-12.302 7.225-1.234 2.156-.982 3.289-2.366 11.27a228.79 228.79 0 0 1-1.486 7.744.948.948 0 0 0 .932 1.142h30.133v-.009z" fill="#2E5055"/>
    <path d="M44.325 20.173c3.356 2.392 7.947 1.166 7.947 1.166.562 5.64-.881 9.172-2.862 11.38-1.46 1.627-3.172 2.466-4.372 2.936a9.204 9.204 0 0 1-3.146.512 9.388 9.388 0 0 1-2.954-.512c-3.407-1.284-8.19-4.783-7.242-14.316 0 0 4.59 1.226 7.947-1.166a3.915 3.915 0 0 1 2.332-.78 3.99 3.99 0 0 1 2.35.78z" fill="#fff" stroke="#2E5055" stroke-miterlimit="10"/>
    <path d="M36.756 34.07c.353-.37 2.14-2.149 5.01-2.233 3.138-.092 5.127 1.905 5.446 2.232-.034.025-.092.059-.151.1-.604.395-2.543 1.629-5.245 1.587-2.467-.042-4.237-1.125-4.925-1.603-.042-.025-.084-.059-.126-.084h-.009z" fill="#B4D6BD"/>
</svg>
