<svg width="84" height="83" viewBox="0 0 84 83" fill="none" xmlns="http://www.w3.org/2000/svg">
    <path d="M28.113 50.844c-2.25-3.425-3.518-6.567-3.8-9.032v-1.739c.329-1.88 1.88-4.949 4.243-8.655 3.68 1.618 6.265 5.324 6.265 9.595 0 4.506-2.793 8.307-6.708 9.83z" fill="#B4D6BD"/>
    <path d="M57.169 69.68c-6.164-12.47-2.33-19.534-11.731-25.806 3.075-4.137 12.422-2.565 21.112-11.731" stroke="#2F5055" stroke-width="3" stroke-linecap="round" stroke-linejoin="round"/>
    <path d="M52.482 13.374c-17.385 8.998-28.15 22.307-28.15 28.149 0 7.413 12.06 23.113 21.112 32.843" stroke="#2F5055" stroke-width="3" stroke-linecap="round" stroke-linejoin="round"/>
    <path d="M17.41 50.999c1.953 3.008-1.055 4.962.9 7.97 1.92 2.962 4.962 1.055 6.916 4.063 1.954 3.008-1.055 4.962.9 7.97 1.953 3.009 4.962 1.055 6.916 4.063M42.335 7.935c-2.672 2.39-5.103-.249-7.735 2.115-2.673 2.39-.282 5.063-2.955 7.454-2.672 2.39-5.103-.242-7.736 2.115-2.672 2.39-.282 5.063-2.954 7.453" stroke="#B4D6BD" stroke-width="2.5" stroke-linecap="round" stroke-linejoin="round"/>
</svg>
