<svg width="84" height="83" viewBox="0 0 84 83" fill="none" xmlns="http://www.w3.org/2000/svg">
    <path d="M47.484 41.423c-.09-.03-.19-.05-.29-.08-3.39 3.07-7.88 4.96-12.82 4.96s-9.42-1.89-12.82-4.96c-.09.03-.2.05-.29.08-6.26 2.45-10.72 8.79-10.72 16.2v8.66c0 4.79 3.88 8.66 8.66 8.66h30.32c4.79 0 8.66-3.88 8.66-8.66v-8.66c0-7.41-4.46-13.75-10.72-16.2h.02z" fill="#B4D6BD"/>
    <path fill-rule="evenodd" clip-rule="evenodd" d="M21.395 56.223a1.5 1.5 0 0 1 1.5 1.5v2.17a2.845 2.845 0 0 0 2.83 2.83h11.91c3.82 0 6.91 3.104 6.91 6.91 0 3.809-3.102 6.91-6.91 6.91h-7.58a1.5 1.5 0 0 1 0-3h7.58a3.92 3.92 0 0 0 3.91-3.91c0-2.153-1.75-3.91-3.91-3.91h-11.91c-3.209 0-5.83-2.621-5.83-5.83v-2.17a1.5 1.5 0 0 1 1.5-1.5z" fill="#2E5055"/>
    <path fill-rule="evenodd" clip-rule="evenodd" d="M22.681 40.977a1.5 1.5 0 0 1-.85 1.943c-5.671 2.22-9.766 7.996-9.766 14.803v8.66c0 3.96 3.207 7.16 7.16 7.16h30.32c3.96 0 7.16-3.207 7.16-7.16v-8.66c0-6.807-4.096-12.583-9.767-14.803a1.5 1.5 0 0 1 1.093-2.794c6.849 2.68 11.674 9.585 11.674 17.597v8.66c0 5.608-4.541 10.16-10.16 10.16h-30.32c-5.608 0-10.16-4.54-10.16-10.16v-8.66c0-8.012 4.824-14.916 11.673-17.597a1.5 1.5 0 0 1 1.943.85z" fill="#2E5055"/>
    <path fill-rule="evenodd" clip-rule="evenodd" d="M47.374 56.223a1.5 1.5 0 0 1 1.5 1.5v2.17a5.832 5.832 0 0 1-5.83 5.83h-12.99a1.5 1.5 0 0 1 0-3h12.99a2.832 2.832 0 0 0 2.83-2.83v-2.17a1.5 1.5 0 0 1 1.5-1.5z" fill="#2E5055"/>
    <path d="M34.235 39.484c7.097 0 12.85-5.502 12.85-12.29 0-6.787-5.753-12.29-12.85-12.29-7.097 0-12.85 5.503-12.85 12.29 0 6.788 5.753 12.29 12.85 12.29z" fill="#fff"/>
    <path fill-rule="evenodd" clip-rule="evenodd" d="M34.235 16.154c-6.46 0-11.6 4.995-11.6 11.04 0 6.045 5.14 11.04 11.6 11.04s11.6-4.995 11.6-11.04c0-6.045-5.14-11.04-11.6-11.04zm-14.1 11.04c0-7.53 6.366-13.54 14.1-13.54s14.1 6.01 14.1 13.54c0 7.53-6.366 13.54-14.1 13.54s-14.1-6.01-14.1-13.54z" fill="#2E5055"/>
    <path d="M57.495 36.223h-4.04c-.31 0-.6-.19-.72-.48a.787.787 0 0 1 .17-.85l2.71-2.71h-2.27a.781.781 0 0 1 0-1.56h4.15c.31 0 .6.19.72.48s.05.63-.17.85l-2.71 2.71h2.16a.781.781 0 0 1 0 1.56zM65.025 29.683h-4.86c-.38 0-.72-.23-.86-.58a.96.96 0 0 1 .2-1.02l3.26-3.26h-2.73a.939.939 0 1 1 0-1.88h4.99c.38 0 .72.23.86.58s.06.75-.2 1.02l-3.26 3.26h2.6a.939.939 0 1 1 0 1.88zM73.784 22.003h-5.74c-.45 0-.85-.27-1.02-.68-.17-.41-.08-.89.24-1.21l3.85-3.85h-3.23c-.61 0-1.11-.49-1.11-1.11 0-.62.49-1.11 1.11-1.11h5.9c.45 0 .85.27 1.02.68.17.41.08.89-.24 1.21l-3.85 3.85h3.07c.61 0 1.11.49 1.11 1.11 0 .62-.49 1.11-1.11 1.11z" fill="#AED0B7"/>
    <path d="M52.505 22.284c1.34-1 1.22-4.06-.96-3.92 1.65-1.24-.07-5.03-1.38-4.21.85-1.9-1.24-4.28-2.88-3.51-.15-1.79-1.93-2.94-3.71-2.22-.68-1.36-2.36-1.72-3.59-.81-1.21-1.54-2.99-1.42-3.86-.36-1.45-.94-3.31-.39-4.07 1.16-.83-.43-2.76.36-3.35 2.96-.7-2.15-3.09-3.16-4-2.14-1.54-.44-3.09.36-3.64 1.84-.71-.24-1.66.37-2.25 1.17-.32.44-.52.93-.53 1.38-1.82 0-3.46 2.69-2.24 4.83-1.23.92-1.65 2.57-.75 3.95-1.73.92-1.71 3.17-.06 4.04-.58.92-.11 2.53 1.38 2.8-.63 1.32.63 2.65 2.13 2.03.04.17.11.32.2.45.4.59 1.23.77 2.09.62.31-.05.37-.23.48-.47.4-.9.62-1.67.05-2.32.65-.49.93-1.41.3-2.65 1.12-.18 1.97-1.15 1.83-2.35 1.99.61 3.31-.65 3.32-1.91 1.29.14 2.39-.82 2.37-2.12.29-1.06.1-1.34.41-.66.74 1.65 1.73 2.34 2.79 1.55.21.04.61.92 1.78.98.69.04 1.36-.24 1.83-.72.66 1.01 2.14 1.25 3.32.23.25 1.23 1.09 1.89 2.02 1.99-.28.53-.3 1.2-.02 1.76.62 1.24 2.04 1.04 2.36 1.24-.47 1.21.59 2.69 1.76 2.41-.37.89.6 1.64 1.72 1.77-.4.83 1.33 1.33 2.36.79 1.07-.56 1.05-1.6.85-2.05.92-.55 1.38-.61 1.81-1.87.27-.8-.2-2-.2-2 1.32 0 1.77-3.02.33-3.66z" fill="#2E5055"/>
</svg>
