<svg width="84" height="83" viewBox="0 0 84 83" fill="none" xmlns="http://www.w3.org/2000/svg">
    <path d="M56.096 73.55a21.557 21.557 0 0 1-5.667.743H39.804c-1.666 0-3.292-.176-4.89-.567.283-5.56 4.958-10.024 10.591-10.024 5.633 0 10.2 4.357 10.59 9.848z" fill="#B4D6BD"/>
    <path d="M75.748 25.758c0 3.293-3.338 3.338-3.338 6.681 0 3.338 3.338 3.389 3.338 6.681 0 3.338-3.338 3.338-3.338 6.681 0 3.338 3.338 3.395 3.338 6.681 0 3.338-3.338 3.338-3.338 6.681M14.763 15.74c0 3.338 3.338 3.389 3.338 6.68 0 3.339-3.338 3.339-3.338 6.682 0 3.338 3.338 3.394 3.338 6.68" stroke="#B4D6BD" stroke-width="2.5" stroke-linecap="round" stroke-linejoin="round"/>
    <path d="M35.809 16.505v-3.281c0-2.505 2.148-4.556 4.72-4.556 2.573 0 4.72 2.057 4.72 4.556v3.66M45.256 34.19V16.886c0-2.505 2.147-4.556 4.72-4.556s4.72 2.057 4.72 4.556v6.165M54.702 35.368V23.043c0-2.595 2.148-4.72 4.72-4.72 2.573 0 4.72 2.125 4.72 4.72v26.492" stroke="#2F5055" stroke-width="3" stroke-linecap="round" stroke-linejoin="round"/>
    <path d="M35.81 35.368V16.504c0-2.595-2.149-4.748-4.721-4.748-2.573 0-4.72 2.147-4.72 4.748v35.394l-9.566-8.194c-2.17-1.887-5.287-1.58-7.202.357-1.915 1.96-1.915 5.548.402 7.582l21.04 18.44c2.715 2.623 6.636 4.25 10.67 4.25h7.084c4.063 0 7.792-1.655 10.58-4.347 2.93-2.788 4.771-6.704 4.771-11.005" stroke="#2F5055" stroke-width="3" stroke-linecap="round" stroke-linejoin="round"/>
</svg>
