<svg width="84" height="83" viewBox="0 0 84 83" fill="none" xmlns="http://www.w3.org/2000/svg">
    <path d="M65.985 57.025S67.567 43.207 55.22 38.22c0 0-1.967 4.665-7.788 6.825v-.08c0-2.642-2.585-4.778-5.764-4.778-3.18 0-5.604 2.016-5.757 4.545-2.384-1.092-5.018-3.027-7.017-6.503l-1.156.53s-9.94 3.58-9.61 20.175c0 0-3.999 15.857 15.03 14.323l26.719-.41s7.603-1.42 6.101-15.816l.008-.007z" fill="#B4D6BD"/>
    <path d="m47.014 73.683-.073-12.227s-18.249-2.875-16.378 5.636c0 0-.964 7.595 11.103 6.415l5.348.168v.008z" fill="#fff"/>
    <path d="M45.4 41.191c2.786-.578 4.954-1.501 6.303-2.569l.85-.85c.763-1.085 1.51-3.357 2.168-6.335a7.302 7.302 0 0 0-7.787 1.637A7.313 7.313 0 0 0 45.4 41.2v-.008zM38.72 41.569c-2.834-.586-5.034-1.526-6.407-2.61l-.867-.867c-.77-1.1-1.533-3.412-2.2-6.447 2.65-1.027 5.789-.465 7.917 1.662a7.434 7.434 0 0 1 1.557 8.262z" fill="#B4D6BD"/>
    <path fill-rule="evenodd" clip-rule="evenodd" d="M41.98 17.008c-6.577 0-11.908 5.33-11.908 11.907s5.331 11.908 11.908 11.908c6.576 0 11.907-5.331 11.907-11.908 0-6.576-5.33-11.907-11.907-11.907zM27.072 28.915c0-8.233 6.674-14.907 14.908-14.907 8.233 0 14.907 6.674 14.907 14.907 0 8.234-6.674 14.908-14.907 14.908-8.234 0-14.908-6.674-14.908-14.908z" fill="#2E5055"/>
    <path d="m29.238 49.124 8.944 8.631s14.893-11.417 7.386-16.081c0 0-4.849-6.102-12.452 3.629l-3.878 3.821z" fill="#fff"/>
    <path d="M29.704 33.315s-.16-3.476-2.489-4.456c0 0-4.705-14.259 7.017-17.599 0 0-.61-.481-.562-2.577 0 0 1.967.932 6.808.747 0 0 8.559-1.63 11.441 5.09 0 0 5.355.626 5.74 5.982 0 0 .185 6.286-.834 8.414 0 0-1.437-.12-2.513 4.752 0 0 2.039-15.125-4.11-14.636 0 0-2.265-.128-4.28.779 0 0-2.224 1.782-5.524-.586 0 0-3.372-3.533-7.972.674 0 0-3.734 2.93-2.722 13.424v-.008z" fill="#2E5055"/>
    <path d="M35.5 23.794c1.67-.016 2.979.21 4.248.546 1.485.394 2.938.41 4.423.024 1.405-.36 2.85-.586 4.304-.546 1.621.04 3.227.322 4.84.514.274.032.418.177.418.458v.915c0 .177-.048.321-.232.378-.37.112-.466.409-.53.73-.12.578-.233 1.164-.346 1.75-.369 1.903-1.22 3.172-3.612 3.316-1.421.088-2.794-.016-3.959-.955-.786-.626-1.212-1.51-1.597-2.4-.201-.466-.362-.948-.538-1.43-.145-.385-.37-.642-.811-.674-.45-.032-.747.16-.963.53-.258.457-.394.963-.603 1.445-.53 1.236-1.188 2.384-2.489 2.954-1.573.69-3.179.73-4.769.032-.883-.385-1.46-1.06-1.726-2.007-.24-.867-.417-1.75-.578-2.633-.048-.265-.12-.538-.377-.65-.378-.161-.394-.45-.394-.78 0-1.027 0-1.05.988-1.155 1.542-.153 3.083-.345 4.295-.37l.008.008zm.16.554c-.706-.008-1.444 0-2.167.193-.843.225-1.34.763-1.517 1.614-.16.746-.16 1.51-.064 2.248.152 1.228.65 2.304 1.902 2.738 1.51.522 3.011.41 4.384-.458 1.236-.787 1.75-2.04 2.023-3.42.25-1.26-.104-1.911-1.284-2.409-1.036-.433-2.128-.546-3.276-.514v.008zm16.403 2.93c.113-2.103-.714-2.568-2.288-2.793a11.95 11.95 0 0 0-3.508.024c-.619.096-1.22.257-1.759.594-.521.33-.802.795-.77 1.413.048 1.108.32 2.144.915 3.091a3.658 3.658 0 0 0 2.192 1.614 6.143 6.143 0 0 0 3.099.048c.94-.225 1.55-.819 1.838-1.734.233-.739.298-1.502.29-2.248l-.009-.008z" fill="#2E5055" stroke="#2E5055" stroke-width=".5" stroke-miterlimit="10"/>
    <path fill-rule="evenodd" clip-rule="evenodd" d="M30.065 38.213a1.5 1.5 0 0 1-.85 1.943c-5.77 2.258-9.934 8.14-9.934 15.062v8.8c0 4.035 3.27 7.299 7.3 7.299h30.797c4.036 0 7.3-3.27 7.3-7.3v-8.799c0-6.92-4.172-12.804-9.934-15.062a1.5 1.5 0 1 1 1.094-2.793c6.94 2.72 11.84 9.73 11.84 17.855v8.8c0 5.684-4.605 10.299-10.3 10.299H26.581c-5.685 0-10.3-4.605-10.3-10.3v-8.799c0-8.124 4.892-15.136 11.84-17.855a1.5 1.5 0 0 1 1.944.85z" fill="#2E5055"/>
    <path fill-rule="evenodd" clip-rule="evenodd" d="M55.179 53.718a1.5 1.5 0 0 1 1.5 1.5v2.2c0 3.261-2.639 5.9-5.9 5.9H35.38a3.98 3.98 0 0 0-2.825 1.174 3.98 3.98 0 0 0-1.174 2.825c0 2.207 1.793 4 4 4a1.5 1.5 0 1 1 0 3c-3.864 0-7-3.137-7-7a6.98 6.98 0 0 1 2.053-4.946 6.98 6.98 0 0 1 4.946-2.053h15.4c1.603 0 2.899-1.296 2.899-2.9v-2.2a1.5 1.5 0 0 1 1.5-1.5z" fill="#2E5055"/>
    <path fill-rule="evenodd" clip-rule="evenodd" d="M44.773 42.526a3.927 3.927 0 0 0-5.579 0l-9.353 9.353a1.5 1.5 0 1 1-2.121-2.121l9.353-9.354a6.927 6.927 0 0 1 9.821 0 6.887 6.887 0 0 1 2.045 5.028v.002a6.942 6.942 0 0 1-2.041 4.795l-.007.007-14.347 14.26a1.5 1.5 0 1 1-2.115-2.129l14.343-14.255a3.943 3.943 0 0 0 1.167-2.73 3.888 3.888 0 0 0-1.166-2.856z" fill="#2E5055"/>
</svg>
