<svg width="84" height="83" viewBox="0 0 84 83" fill="none" xmlns="http://www.w3.org/2000/svg">
    <path fill-rule="evenodd" clip-rule="evenodd" d="M40.476 43.578a1.5 1.5 0 0 1 1.5-1.5H56.53a7.737 7.737 0 0 1 7.739 7.738V64.37a1.5 1.5 0 0 1-3 0V49.817a4.737 4.737 0 0 0-4.739-4.738H41.976a1.5 1.5 0 0 1-1.5-1.5zM15.61 9.84a1.5 1.5 0 0 1 1.898-.948l6.233 2.082a1.5 1.5 0 0 1 .98 1.059l6.238 24.943a1.5 1.5 0 1 1-2.91.728L22.01 13.559l-5.452-1.821a1.5 1.5 0 0 1-.948-1.898z" fill="#2F5055"/>
    <path fill-rule="evenodd" clip-rule="evenodd" d="M74.635 55.756a1.5 1.5 0 0 1-1.176 1.765l-10.396 2.082a1.5 1.5 0 1 1-.59-2.942L72.87 54.58a1.5 1.5 0 0 1 1.765 1.176z" fill="#2F5055"/>
    <path d="M62.768 72.678a4.157 4.157 0 1 0 0-8.315 4.157 4.157 0 0 0 0 8.315z" fill="#B4D6BD"/>
    <path fill-rule="evenodd" clip-rule="evenodd" d="M62.768 65.864a2.657 2.657 0 1 0 0 5.314 2.657 2.657 0 0 0 0-5.314zM57.11 68.52a5.657 5.657 0 1 1 11.314 0 5.657 5.657 0 0 1-11.314 0z" fill="#2F5055"/>
    <path d="M29.505 72.685c-10.318 0-18.71-8.392-18.71-18.71 0-10.318 8.392-18.71 18.71-18.71 10.317 0 18.71 8.392 18.71 18.71 0 10.318-8.393 18.71-18.71 18.71zm0-29.936c-6.19 0-11.226 5.035-11.226 11.226 0 6.19 5.035 11.226 11.226 11.226 6.19 0 11.226-5.035 11.226-11.226 0-6.19-5.036-11.226-11.226-11.226z" fill="#B4D6BD"/>
    <path fill-rule="evenodd" clip-rule="evenodd" d="M29.505 36.765c-9.49 0-17.21 7.72-17.21 17.21 0 9.49 7.72 17.21 17.21 17.21 9.489 0 17.21-7.72 17.21-17.21 0-9.49-7.721-17.21-17.21-17.21zm-20.21 17.21c0-11.146 9.063-20.21 20.21-20.21 11.146 0 20.21 9.064 20.21 20.21s-9.064 20.21-20.21 20.21-20.21-9.064-20.21-20.21zm7.484 0c0-7.02 5.707-12.726 12.726-12.726 7.019 0 12.726 5.707 12.726 12.726 0 7.019-5.707 12.726-12.726 12.726-7.02 0-12.726-5.707-12.726-12.726zm12.726-9.726c-5.363 0-9.726 4.364-9.726 9.726 0 5.362 4.363 9.726 9.726 9.726 5.362 0 9.726-4.364 9.726-9.726 0-5.362-4.364-9.726-9.726-9.726zM25.923 26.943a1.5 1.5 0 0 1 1.5-1.5H50.29a7.737 7.737 0 0 1 7.739 7.74v2.08a1.5 1.5 0 1 1-3 0v-2.08a4.737 4.737 0 0 0-4.739-4.74H27.423a1.5 1.5 0 0 1-1.5-1.5z" fill="#2F5055"/>
</svg>
