<svg width="84" height="83" viewBox="0 0 84 83" fill="none" xmlns="http://www.w3.org/2000/svg">
    <path d="M62.068 23.932c-12.041 8.044-16.032 22.175-18.929 27.97-5.794-11.583-20.274-14.48-28.96-20.275" stroke="#2F5055" stroke-width="3" stroke-linecap="round" stroke-linejoin="round"/>
    <path d="M35.507 53.435c-2.966-4.3-8.182-6.973-15.287-10.306M66.156 29.967l-1.65 1.3c-6.275 4.941-9.687 12.184-12.36 18.454" stroke="#B4D6BD" stroke-width="2.5" stroke-linecap="round" stroke-linejoin="round"/>
    <path d="M2.596 46.107c14.48 14.48 34.754 28.96 40.543 28.96 8.685 0 25.393-10.18 38.224-32.681" stroke="#2F5055" stroke-width="3" stroke-linecap="round" stroke-linejoin="round"/>
    <path d="m47.805 24.213-4.042-1.083a.519.519 0 0 0-.653.475l-.355 7.3a1.115 1.115 0 0 1-2.181.235l-3.75-14.617a1.2 1.2 0 0 1 .315-1.14 1.18 1.18 0 0 1 1.139-.303l3.67.974c.384.206.721-.11.664-.47l-.48-6.344a1.216 1.216 0 0 1 1.483-1.277h.01l4.907 1.306h.023c.516.114.882.572.882 1.093v12.654c-.12.842-.853 1.443-1.626 1.19l-.006.007zM34.104 23.016c.407.447.338 1.134-.177 1.443l-2.812 1.609c-.206.143-.274.435-.074.635l3.79 4.18c.67.693-.24 1.786-1.048 1.288l-9.928-5.914c-.618-.36-.578-1.214-.011-1.58l2.496-1.449c.258-.155.264-.492.075-.636l-3.75-3.166c-.464-.44-.401-1.185.114-1.488l3.384-1.918c.36-.224.83-.127 1.1.171l6.847 6.83-.006-.005z" fill="#B4D6BD"/>
</svg>
