<svg width="83" height="84" viewBox="0 0 83 84" fill="none" xmlns="http://www.w3.org/2000/svg">
    <path d="M41.506 57.51c8.788 0 15.911-7.125 15.911-15.913s-7.123-15.912-15.911-15.912-15.912 7.125-15.912 15.912c0 8.788 7.124 15.912 15.912 15.912z" fill="#EBAB21" stroke="#305B78" stroke-width="2.5" stroke-miterlimit="10"/>
    <path d="M69.011 57.015C62.825 62.625 53.74 67.572 41.5 67.63 15.813 67.516 3.953 45.903 3.896 41.596c.029-4.34 11.917-25.919 37.604-26.032 25.687.113 37.575 21.697 37.604 26.032-.029 1.185-.924 3.672-2.777 6.653" stroke="#305B78" stroke-width="3" stroke-linecap="round" stroke-linejoin="round"/>
    <path d="m11.966 72.928 60.922-60.922" stroke="#305B78" stroke-width="2.5" stroke-miterlimit="10" stroke-linecap="round"/>
</svg>
