<svg width="83" height="84" viewBox="0 0 83 84" fill="none" xmlns="http://www.w3.org/2000/svg">
    <path fill-rule="evenodd" clip-rule="evenodd" d="M17.585 52.458a1.5 1.5 0 0 1 1.495-1.376h44.823a1.5 1.5 0 0 1 1.495 1.374c.05.584.073 1.21.073 1.815 0 6.984-3.572 13.139-8.993 16.742v2.927a1.5 1.5 0 1 1-3 0v-3.752a1.5 1.5 0 0 1 .724-1.283c4.965-3.004 8.27-8.438 8.27-14.634l-.002-.189H20.513v.189c0 4.715 1.899 8.966 4.996 12.042l.015.015c.962.983 2.054 1.828 3.273 2.586a1.5 1.5 0 0 1 .708 1.274v3.752a1.5 1.5 0 0 1-3 0v-2.935a19.776 19.776 0 0 1-3.117-2.57 19.89 19.89 0 0 1-5.876-14.164c0-.6.024-1.225.073-1.813zM17.518 10.994a1.5 1.5 0 0 1 1.5-1.5h44.959a1.5 1.5 0 0 1 1.5 1.5v13.487a1.5 1.5 0 0 1-3 0V12.494h-41.96v20.237c0 .95.353 1.796.9 2.393.55.576 1.284.918 2.095.918a1.5 1.5 0 0 1 1.5 1.5v4.547h32.966v-4.547a1.5 1.5 0 0 1 1.5-1.5c1.424 0 2.719-1.12 2.945-2.772a1.5 1.5 0 1 1 2.972.407c-.34 2.479-2.077 4.541-4.417 5.17v4.742a1.5 1.5 0 0 1-1.5 1.5H23.512a1.5 1.5 0 0 1-1.5-1.5v-4.743a5.948 5.948 0 0 1-2.78-1.666l-.013-.015c-1.07-1.159-1.701-2.736-1.701-4.434V10.994z" fill="#305B78"/>
    <path d="M69.598 48.087c0 2.471-2 4.494-4.494 4.494H17.896c-1.258 0-2.386-.493-3.19-1.326a4.462 4.462 0 0 1-1.304-3.168c0-2.47 2-4.493 4.494-4.493h47.208c1.258 0 2.386.493 3.19 1.326a4.462 4.462 0 0 1 1.304 3.167z" fill="#EBAB21"/>
    <path fill-rule="evenodd" clip-rule="evenodd" d="M17.896 45.094a2.993 2.993 0 0 0-2.994 2.993c0 .83.33 1.572.864 2.107l.018.019c.518.536 1.255.868 2.112.868h47.208a2.993 2.993 0 0 0 2.994-2.994c0-.829-.329-1.572-.864-2.107l-.018-.018c-.518-.536-1.255-.868-2.112-.868H17.896zm-5.994 2.993a5.993 5.993 0 0 1 5.994-5.993h47.208c1.655 0 3.17.65 4.26 1.774a5.962 5.962 0 0 1 1.734 4.22 5.993 5.993 0 0 1-5.994 5.993H17.896c-1.655 0-3.17-.65-4.26-1.775a5.962 5.962 0 0 1-1.734-4.219zM26.505 19.987a1.5 1.5 0 0 1 1.5-1.5h6.749a1.5 1.5 0 0 1 0 3h-6.75a1.5 1.5 0 0 1-1.5-1.5z" fill="#305B78"/>
</svg>
