<svg width="83" height="84" viewBox="0 0 83 84" fill="none" xmlns="http://www.w3.org/2000/svg">
    <path d="M43.774 12.65c-.272-.322-3.032-3.475-7.38-3.132-3.718.3-5.842 2.932-6.185 3.375-1.259 2.145-1.817 4.005-2.096 5.313-.436 2.038-.186 2.775-.715 6.057-.307 1.916-.493 3.053-1.008 4.455a15.404 15.404 0 0 1-3.018 4.97c.294.48.93 1.337 2.038 1.78 1.745.694 3.926.072 5.485-1.587" fill="#305B78"/>
    <path d="M40.95 11.707c.243-.194 4.526-3.447 9.346-1.617 3.096 1.18 4.533 3.748 4.912 4.484a11.304 11.304 0 0 1 1.86 4.991 11.374 11.374 0 0 1-.773 5.657 8.673 8.673 0 0 0-.243 4.326c.572 2.825 2.417 4.477 3.018 4.97 0 0-.622 1.344-2.038 1.78-1.409.437-3.025.03-4.155-1.15" fill="#305B78"/>
    <path d="M42.065 15.16c6.457 0 11.692 5.2 11.692 11.614 0 6.414-5.213 15.86-11.67 15.86-6.458 0-11.714-9.446-11.714-15.86 0-6.415 5.235-11.613 11.692-11.613z" fill="#fff"/>
    <path fill-rule="evenodd" clip-rule="evenodd" d="M42.065 16.66c-5.639 0-10.192 4.537-10.192 10.114 0 2.859 1.195 6.538 3.181 9.5 2.016 3.006 4.55 4.86 7.032 4.86 2.48 0 5.004-1.852 7.01-4.857 1.975-2.961 3.16-6.641 3.16-9.503 0-5.577-4.553-10.113-10.191-10.113zm0-3c-7.276 0-13.192 5.861-13.192 13.114 0 3.555 1.433 7.806 3.69 11.17 2.226 3.322 5.548 6.19 9.523 6.19 3.977 0 7.289-2.87 9.505-6.192 2.245-3.366 3.666-7.616 3.666-11.168 0-7.253-5.916-13.113-13.192-13.113z" fill="#305B78"/>
    <path d="M66.307 57.622s1.637-14.28-11.127-19.436c0 0-2.038 4.82-8.045 7.05v-.085c0-2.732-2.667-4.941-5.957-4.941s-5.792 2.08-5.942 4.698c-2.467-1.123-5.192-3.132-7.251-6.722l-1.194.544s-10.27 3.704-9.933 20.852c0 0-4.126 16.382 15.532 14.802l27.617-.422s7.852-1.466 6.307-16.347l-.007.007z" fill="#EBAB21"/>
    <path fill-rule="evenodd" clip-rule="evenodd" d="M29.139 38.2a1.5 1.5 0 0 1-.851 1.942C22.306 42.48 17.986 48.58 17.986 55.75v9.096a7.592 7.592 0 0 0 7.596 7.596h31.829a7.592 7.592 0 0 0 7.596-7.596V55.75c0-7.171-4.32-13.271-10.302-15.608a1.5 1.5 0 1 1 1.092-2.794c7.162 2.798 12.21 10.027 12.21 18.402v9.096c0 5.855-4.74 10.596-10.596 10.596H25.582a10.591 10.591 0 0 1-10.596-10.596V55.75c0-8.375 5.048-15.604 12.21-18.402a1.5 1.5 0 0 1 1.943.851z" fill="#305B78"/>
    <path fill-rule="evenodd" clip-rule="evenodd" d="M55.144 54.25a1.5 1.5 0 0 1 1.5 1.5v2.273a6.05 6.05 0 0 1-6.048 6.048H34.678a4.17 4.17 0 0 0-2.958 1.227 4.186 4.186 0 0 0 2.958 7.143 1.5 1.5 0 0 1 0 3 7.186 7.186 0 0 1 0-14.37h15.918a3.05 3.05 0 0 0 3.048-3.047v-2.275a1.5 1.5 0 0 1 1.5-1.5z" fill="#305B78"/>
    <path fill-rule="evenodd" clip-rule="evenodd" d="M36.458 40.478a7.12 7.12 0 0 1 10.078.002 7.076 7.076 0 0 1 2.099 5.151v.001a7.076 7.076 0 0 1-2.099 4.928l-.003.003L31.71 65.294a1.5 1.5 0 0 1-2.114-2.127l14.82-14.728.002-.002a4.076 4.076 0 0 0 1.218-2.85 4.077 4.077 0 0 0-1.22-2.986 4.12 4.12 0 0 0-5.838.001l-9.66 9.66a1.5 1.5 0 1 1-2.122-2.121l6.322-6.322 3.34-3.34z" fill="#305B78"/>
    <path fill-rule="evenodd" clip-rule="evenodd" d="M67.53 38.695c0-.69.56-1.25 1.25-1.25h4.549a1.25 1.25 0 0 1 0 2.5H68.78c-.69 0-1.25-.56-1.25-1.25zM68.742 24.882a1.25 1.25 0 0 1 0 1.767l-3.218 3.218a1.25 1.25 0 1 1-1.767-1.767l3.217-3.218a1.25 1.25 0 0 1 1.768 0zM74.326 30.85a1.25 1.25 0 0 1-.676 1.633l-4.198 1.738a1.25 1.25 0 0 1-.956-2.31l4.197-1.738a1.25 1.25 0 0 1 1.633.677zM8.421 38.695c0-.69.56-1.25 1.25-1.25h4.548a1.25 1.25 0 0 1 0 2.5H9.671c-.69 0-1.25-.56-1.25-1.25zM14.258 24.882a1.25 1.25 0 0 1 1.768 0l3.218 3.218a1.25 1.25 0 0 1-1.768 1.767l-3.218-3.218a1.25 1.25 0 0 1 0-1.767zM8.674 30.85a1.25 1.25 0 0 1 1.633-.677l4.197 1.738a1.25 1.25 0 1 1-.956 2.31L9.35 32.483a1.25 1.25 0 0 1-.676-1.633z" fill="#EBAB21"/>
    <path d="M41.5 15.518s-1.43 11.435-10.612 11.857c0 0 3.147-2.467 3.096-5.928 0 0-1.094-8.753 7.516-5.929z" fill="#305B78"/>
    <path d="M40.263 15.94s6.014 9.783 12.02 7.251c0 0-3.096-1.208-4.612-4.326 0 0-3.218-8.18-7.408-2.925z" fill="#305B78"/>
</svg>
