<svg width="83" height="84" viewBox="0 0 83 84" fill="none" xmlns="http://www.w3.org/2000/svg">
    <path d="M27.634 51.811c-2.25-3.425-3.519-6.567-3.801-9.032V41.04c.329-1.88 1.88-4.949 4.244-8.655 3.68 1.618 6.265 5.325 6.265 9.595 0 4.506-2.793 8.307-6.708 9.831z" fill="#EBAB21"/>
    <path d="M56.69 70.647c-6.165-12.47-2.33-19.534-11.732-25.806 3.076-4.136 12.423-2.565 21.112-11.731" stroke="#305B78" stroke-width="3" stroke-linecap="round" stroke-linejoin="round"/>
    <path d="M52.002 14.34C34.617 23.34 23.853 36.649 23.853 42.49c0 7.413 12.06 23.113 21.112 32.843" stroke="#305B78" stroke-width="3" stroke-linecap="round" stroke-linejoin="round"/>
    <path d="M16.93 51.966c1.954 3.008-1.054 4.962.9 7.97 1.92 2.962 4.962 1.055 6.916 4.063 1.954 3.008-1.054 4.962.9 7.97 1.954 3.009 4.962 1.055 6.916 4.063M41.856 8.902c-2.673 2.39-5.104-.249-7.736 2.115-2.672 2.39-.282 5.063-2.954 7.454-2.673 2.39-5.104-.242-7.736 2.115-2.673 2.39-.282 5.063-2.955 7.454" stroke="#EBAB21" stroke-width="2.5" stroke-linecap="round" stroke-linejoin="round"/>
</svg>
