<svg width="53" height="67" viewBox="0 0 53 67" fill="none" xmlns="http://www.w3.org/2000/svg">
    <path d="M50.506 48.991s1.581-13.817-10.767-18.803c0 0-1.967 4.665-7.787 6.824v-.08c0-2.641-2.586-4.777-5.765-4.777-3.18 0-5.604 2.015-5.757 4.544-2.384-1.092-5.017-3.027-7.016-6.503l-1.157.53s-9.94 3.58-9.61 20.176c0 0-3.998 15.856 15.03 14.323l26.719-.41s7.603-1.42 6.102-15.816l.008-.008z" fill="#EBAB21"/>
    <path d="m31.534 65.65-.072-12.228s-18.25-2.874-16.379 5.636c0 0-.963 7.595 11.104 6.415l5.347.169v.008z" fill="#fff"/>
    <path d="M29.92 33.158c2.786-.578 4.954-1.501 6.303-2.57l.85-.85c.764-1.084 1.51-3.356 2.169-6.335a7.302 7.302 0 0 0-7.788 1.638 7.313 7.313 0 0 0-1.534 8.125v-.008zM23.24 33.535c-2.833-.586-5.033-1.525-6.406-2.609l-.867-.867c-.771-1.1-1.534-3.412-2.2-6.447 2.65-1.028 5.788-.466 7.916 1.662a7.434 7.434 0 0 1 1.558 8.261z" fill="#EBAB21"/>
    <path fill-rule="evenodd" clip-rule="evenodd" d="M26.5 8.974c-6.576 0-11.908 5.331-11.908 11.908 0 6.576 5.332 11.908 11.908 11.908 6.577 0 11.908-5.332 11.908-11.908 0-6.577-5.331-11.908-11.908-11.908zM11.592 20.882c0-8.233 6.675-14.908 14.908-14.908s14.908 6.675 14.908 14.908S34.733 35.79 26.5 35.79s-14.908-6.675-14.908-14.908z" fill="#305B78"/>
    <path d="m13.759 41.09 8.944 8.632s14.893-11.417 7.386-16.082c0 0-4.85-6.102-12.452 3.63l-3.878 3.82z" fill="#fff"/>
    <path d="M14.225 25.282s-.161-3.477-2.49-4.456c0 0-4.704-14.259 7.018-17.599 0 0-.61-.482-.562-2.577 0 0 1.967.931 6.808.747 0 0 8.558-1.63 11.44 5.09 0 0 5.356.626 5.741 5.981 0 0 .185 6.287-.835 8.414 0 0-1.437-.12-2.513 4.753 0 0 2.04-15.126-4.11-14.636 0 0-2.264-.129-4.28.779 0 0-2.224 1.782-5.523-.587 0 0-3.372-3.532-7.973.675 0 0-3.733 2.93-2.722 13.424v-.008z" fill="#305B78"/>
    <path d="M20.02 15.761c1.67-.016 2.98.209 4.248.546 1.485.393 2.938.41 4.424.024 1.405-.361 2.85-.586 4.303-.546 1.622.04 3.228.321 4.841.514.273.032.418.177.418.457v.916c0 .176-.048.32-.233.377-.37.113-.466.41-.53.73-.12.579-.233 1.165-.345 1.751-.37 1.903-1.22 3.171-3.613 3.316-1.421.088-2.794-.016-3.958-.956-.787-.626-1.212-1.509-1.598-2.4-.2-.466-.361-.948-.538-1.43-.144-.385-.369-.642-.81-.674-.45-.032-.747.16-.964.53-.257.458-.393.964-.602 1.445-.53 1.237-1.188 2.385-2.49 2.955-1.573.69-3.178.73-4.768.032-.883-.385-1.461-1.06-1.726-2.007-.241-.867-.418-1.75-.578-2.634-.048-.265-.12-.538-.378-.65-.377-.16-.393-.45-.393-.779 0-1.027 0-1.051.987-1.156 1.542-.152 3.083-.345 4.296-.37l.008.009zm.161.554c-.706-.008-1.445 0-2.167.193-.843.224-1.341.762-1.518 1.613-.16.747-.16 1.51-.064 2.248.153 1.229.65 2.305 1.903 2.738 1.51.522 3.01.41 4.383-.457 1.237-.787 1.75-2.04 2.024-3.42.249-1.261-.105-1.912-1.285-2.41-1.036-.433-2.128-.545-3.276-.513v.008zm16.403 2.93c.112-2.103-.715-2.569-2.288-2.794a11.954 11.954 0 0 0-3.509.024c-.618.097-1.22.257-1.758.595-.522.329-.803.794-.77 1.413.047 1.108.32 2.143.915 3.09a3.658 3.658 0 0 0 2.191 1.614 6.141 6.141 0 0 0 3.1.049c.939-.225 1.549-.82 1.838-1.735.233-.738.297-1.5.289-2.248l-.008-.008z" fill="#305B78" stroke="#305B78" stroke-width=".5" stroke-miterlimit="10"/>
    <path fill-rule="evenodd" clip-rule="evenodd" d="M14.585 30.18a1.5 1.5 0 0 1-.85 1.943c-5.769 2.258-9.933 8.14-9.933 15.062v8.799c0 4.036 3.27 7.3 7.3 7.3h30.797c4.036 0 7.3-3.27 7.3-7.3v-8.8c0-6.92-4.172-12.803-9.935-15.061a1.5 1.5 0 0 1 1.095-2.794c6.939 2.72 11.84 9.73 11.84 17.856v8.799c0 5.685-4.605 10.3-10.3 10.3H11.1c-5.685 0-10.3-4.605-10.3-10.3v-8.8c0-8.124 4.893-15.135 11.84-17.855a1.5 1.5 0 0 1 1.944.85z" fill="#305B78"/>
    <path fill-rule="evenodd" clip-rule="evenodd" d="M39.7 45.685a1.5 1.5 0 0 1 1.5 1.5v2.2c0 3.26-2.64 5.9-5.9 5.9H19.9a3.98 3.98 0 0 0-2.824 1.174 3.98 3.98 0 0 0-1.175 2.825c0 2.206 1.793 4 4 4a1.5 1.5 0 1 1 0 3c-3.863 0-7-3.137-7-7a6.98 6.98 0 0 1 2.053-4.947 6.98 6.98 0 0 1 4.947-2.053H35.3c1.604 0 2.9-1.295 2.9-2.9v-2.2a1.5 1.5 0 0 1 1.5-1.5z" fill="#305B78"/>
    <path fill-rule="evenodd" clip-rule="evenodd" d="M29.293 34.492a3.927 3.927 0 0 0-5.578 0l-9.353 9.353a1.5 1.5 0 1 1-2.121-2.121l9.353-9.353a6.927 6.927 0 0 1 9.82 0 6.887 6.887 0 0 1 2.045 5.027v.002a6.941 6.941 0 0 1-2.04 4.795l-.008.008-14.347 14.259a1.5 1.5 0 0 1-2.115-2.128l14.344-14.255a3.942 3.942 0 0 0 1.167-2.731 3.887 3.887 0 0 0-1.167-2.856z" fill="#305B78"/>
</svg>
