<svg width="83" height="84" viewBox="0 0 83 84" fill="none" xmlns="http://www.w3.org/2000/svg">
    <path d="M55.616 74.517a21.557 21.557 0 0 1-5.666.742H39.325c-1.666 0-3.292-.175-4.89-.566.283-5.56 4.958-10.025 10.59-10.025 5.633 0 10.2 4.358 10.591 9.85z" fill="#EBAB21"/>
    <path d="M75.268 26.726c0 3.292-3.337 3.337-3.337 6.68 0 3.338 3.337 3.39 3.337 6.681 0 3.338-3.337 3.338-3.337 6.681 0 3.338 3.337 3.395 3.337 6.681 0 3.338-3.337 3.338-3.337 6.681M14.284 16.707c0 3.338 3.337 3.389 3.337 6.681 0 3.338-3.337 3.338-3.337 6.68 0 3.339 3.337 3.395 3.337 6.682" stroke="#EBAB21" stroke-width="2.5" stroke-linecap="round" stroke-linejoin="round"/>
    <path d="M35.33 17.472V14.19c0-2.505 2.147-4.556 4.72-4.556 2.572 0 4.72 2.057 4.72 4.556v3.66M44.776 35.158V17.852c0-2.505 2.148-4.556 4.72-4.556 2.573 0 4.72 2.057 4.72 4.556v6.165M54.222 36.335V24.01c0-2.595 2.148-4.72 4.72-4.72 2.573 0 4.721 2.125 4.721 4.72v26.492" stroke="#305B78" stroke-width="3" stroke-linecap="round" stroke-linejoin="round"/>
    <path d="M35.33 36.336V17.47c0-2.595-2.148-4.748-4.72-4.748-2.573 0-4.721 2.147-4.721 4.748v35.394l-9.565-8.194c-2.17-1.887-5.287-1.58-7.203.357-1.915 1.96-1.915 5.548.403 7.582l21.04 18.44c2.714 2.623 6.636 4.25 10.67 4.25h7.084c4.063 0 7.791-1.655 10.58-4.347 2.929-2.788 4.77-6.704 4.77-11.005" stroke="#305B78" stroke-width="3" stroke-linecap="round" stroke-linejoin="round"/>
</svg>
