<svg width="83" height="84" viewBox="0 0 83 84" fill="none" xmlns="http://www.w3.org/2000/svg">
    <path fill-rule="evenodd" clip-rule="evenodd" d="M39.997 44.545a1.5 1.5 0 0 1 1.5-1.5H56.05a7.737 7.737 0 0 1 7.739 7.739v14.553a1.5 1.5 0 0 1-3 0V50.784a4.737 4.737 0 0 0-4.74-4.74H41.498a1.5 1.5 0 0 1-1.5-1.5zM15.13 10.807a1.5 1.5 0 0 1 1.899-.948l6.232 2.082a1.5 1.5 0 0 1 .98 1.059l6.24 24.943a1.5 1.5 0 0 1-2.911.728l-6.04-24.145-5.452-1.821a1.5 1.5 0 0 1-.947-1.898z" fill="#305B78"/>
    <path fill-rule="evenodd" clip-rule="evenodd" d="M74.155 56.723a1.5 1.5 0 0 1-1.176 1.765L62.583 60.57a1.5 1.5 0 0 1-.589-2.942l10.396-2.081a1.5 1.5 0 0 1 1.765 1.176z" fill="#305B78"/>
    <path d="M62.288 73.645a4.157 4.157 0 1 0 0-8.315 4.157 4.157 0 0 0 0 8.315z" fill="#EBAB21"/>
    <path fill-rule="evenodd" clip-rule="evenodd" d="M62.288 66.83a2.657 2.657 0 1 0 0 5.315 2.657 2.657 0 0 0 0-5.314zm-5.657 2.658a5.657 5.657 0 1 1 11.314 0 5.657 5.657 0 0 1-11.314 0z" fill="#305B78"/>
    <path d="M29.025 73.652c-10.317 0-18.71-8.393-18.71-18.71 0-10.318 8.393-18.71 18.71-18.71 10.318 0 18.71 8.392 18.71 18.71 0 10.317-8.392 18.71-18.71 18.71zm0-29.936c-6.19 0-11.226 5.035-11.226 11.226 0 6.19 5.036 11.226 11.226 11.226 6.19 0 11.226-5.036 11.226-11.226 0-6.19-5.035-11.226-11.226-11.226z" fill="#EBAB21"/>
    <path fill-rule="evenodd" clip-rule="evenodd" d="M29.025 37.731c-9.49 0-17.21 7.721-17.21 17.21 0 9.49 7.72 17.211 17.21 17.211 9.49 0 17.21-7.721 17.21-17.21 0-9.49-7.72-17.21-17.21-17.21zm-20.21 17.21c0-11.145 9.064-20.21 20.21-20.21s20.21 9.064 20.21 20.21c0 11.147-9.064 20.211-20.21 20.211s-20.21-9.064-20.21-20.21zm7.484 0c0-7.018 5.707-12.725 12.726-12.725 7.02 0 12.726 5.707 12.726 12.726 0 7.019-5.707 12.726-12.726 12.726-7.019 0-12.726-5.707-12.726-12.726zm12.726-9.725c-5.362 0-9.726 4.364-9.726 9.726 0 5.362 4.364 9.726 9.726 9.726 5.362 0 9.726-4.364 9.726-9.726 0-5.362-4.364-9.726-9.726-9.726zM25.443 27.91a1.5 1.5 0 0 1 1.5-1.5h22.868a7.737 7.737 0 0 1 7.738 7.739v2.081a1.5 1.5 0 0 1-3 0V34.15a4.737 4.737 0 0 0-4.738-4.739H26.943a1.5 1.5 0 0 1-1.5-1.5z" fill="#305B78"/>
</svg>
