<svg width="83" height="84" viewBox="0 0 83 84" fill="none" xmlns="http://www.w3.org/2000/svg">
    <path d="M61.588 24.898c-12.04 8.045-16.031 22.176-18.928 27.97-5.795-11.583-20.275-14.48-28.96-20.274" stroke="#305B78" stroke-width="3" stroke-linecap="round" stroke-linejoin="round"/>
    <path d="M35.028 54.402c-2.966-4.3-8.182-6.974-15.288-10.306M65.676 30.934l-1.649 1.3c-6.275 4.94-9.687 12.184-12.361 18.453" stroke="#EBAB21" stroke-width="2.5" stroke-linecap="round" stroke-linejoin="round"/>
    <path d="M2.117 47.074c14.48 14.48 34.754 28.96 40.542 28.96 8.686 0 25.393-10.18 38.224-32.682" stroke="#305B78" stroke-width="3" stroke-linecap="round" stroke-linejoin="round"/>
    <path d="m47.326 25.18-4.043-1.083a.519.519 0 0 0-.653.475l-.354 7.3a1.115 1.115 0 0 1-2.181.235l-3.75-14.617a1.2 1.2 0 0 1 .314-1.14 1.18 1.18 0 0 1 1.14-.303l3.67.973c.383.206.72-.109.664-.47l-.481-6.343a1.216 1.216 0 0 1 1.483-1.277h.011l4.907 1.305h.023c.515.115.882.573.882 1.094v12.654c-.12.841-.853 1.442-1.627 1.19l-.005.006zM33.625 23.983c.406.446.337 1.133-.178 1.442l-2.811 1.61c-.206.142-.275.435-.075.635l3.79 4.18c.67.692-.24 1.786-1.047 1.288l-9.928-5.915c-.619-.36-.578-1.213-.012-1.58l2.497-1.448c.257-.155.263-.493.074-.636l-3.75-3.166c-.464-.441-.4-1.185.114-1.489l3.384-1.918c.361-.223.83-.126 1.1.172l6.847 6.83-.005-.005z" fill="#EBAB21"/>
</svg>
