<svg width="83" height="84" viewBox="0 0 83 84" fill="none" xmlns="http://www.w3.org/2000/svg">
    <path d="M41.5 58.378c8.788 0 15.912-7.124 15.912-15.912S50.288 26.554 41.5 26.554s-15.912 7.124-15.912 15.912S32.712 58.378 41.5 58.378z" fill="#EBAB21" stroke="#305B78" stroke-width="2.5" stroke-miterlimit="10"/>
    <path d="M45.348 57.886 26.08 38.619M52.754 53.72 30.246 31.214M56.92 46.314 37.652 27.048" stroke="#305B78" stroke-width="2.5" stroke-linejoin="round"/>
    <path d="M69.011 57.886C62.825 63.495 53.74 68.442 41.5 68.499 15.813 68.386 3.953 46.773 3.896 42.467c.029-4.341 11.917-25.92 37.604-26.033 25.687.113 37.575 21.698 37.604 26.033-.029 1.184-.924 3.672-2.777 6.652" stroke="#305B78" stroke-width="3" stroke-linecap="round" stroke-linejoin="round"/>
</svg>
