<svg width="83" height="84" viewBox="0 0 83 84" fill="none" xmlns="http://www.w3.org/2000/svg">
    <path fill-rule="evenodd" clip-rule="evenodd" d="M28.397 55.238a1.5 1.5 0 0 1 1.5 1.5v2.182a2.885 2.885 0 0 0 2.872 2.871h12.016a6.969 6.969 0 0 1 6.963 6.963 6.969 6.969 0 0 1-6.963 6.963h-7.644a1.5 1.5 0 0 1 0-3h7.644a3.969 3.969 0 0 0 3.963-3.963 3.969 3.969 0 0 0-3.963-3.963H32.769c-3.239 0-5.872-2.645-5.872-5.871v-2.182a1.5 1.5 0 0 1 1.5-1.5z" fill="#305B78"/>
    <path fill-rule="evenodd" clip-rule="evenodd" d="M53.315 39.854a1.5 1.5 0 0 1 1.943-.852c6.909 2.698 11.77 9.665 11.77 17.735v8.736c0 5.653-4.581 10.235-10.235 10.235H26.207c-5.654 0-10.236-4.582-10.236-10.235v-8.736c0-8.07 4.871-15.037 11.77-17.735a1.5 1.5 0 0 1 1.093 2.794c-5.721 2.237-9.863 8.076-9.863 14.941v8.736a7.235 7.235 0 0 0 7.236 7.235h30.586a7.235 7.235 0 0 0 7.236-7.235v-8.736c0-6.866-4.134-12.704-9.862-14.94a1.5 1.5 0 0 1-.852-1.943z" fill="#305B78"/>
    <path fill-rule="evenodd" clip-rule="evenodd" d="M54.611 55.238a1.5 1.5 0 0 1 1.5 1.5v2.182a5.869 5.869 0 0 1-5.871 5.871H37.132a1.5 1.5 0 1 1 0-3H50.24a2.87 2.87 0 0 0 2.871-2.871v-2.182a1.5 1.5 0 0 1 1.5-1.5z" fill="#305B78"/>
    <path d="M41.639 41.448a1.141 1.141 0 1 0 0-2.283 1.141 1.141 0 0 0 0 2.283zM41.639 47.213a1.141 1.141 0 1 0 0-2.282 1.141 1.141 0 0 0 0 2.282zM39.356 44.083a1.141 1.141 0 1 0 0-2.282 1.141 1.141 0 0 0 0 2.282zM43.921 44.083a1.141 1.141 0 1 0 0-2.282 1.141 1.141 0 0 0 0 2.282zM37.233 47.213a1.141 1.141 0 1 0 0-2.282 1.141 1.141 0 0 0 0 2.282zM45.776 47.213a1.141 1.141 0 1 0 0-2.282 1.141 1.141 0 0 0 0 2.282z" fill="#EBAB21"/>
    <path d="M56.576 36.589a.947.947 0 0 0 .931-1.15c-.428-1.93-1.057-4.699-1.628-7.585-1.846-9.273-1.451-10.674-2.76-12.58-2.233-3.238-6.504-6.04-11.455-6.058-5.622-.016-10.22 3.567-12.302 7.225-1.233 2.157-.981 3.29-2.366 11.27a229.078 229.078 0 0 1-1.485 7.745.948.948 0 0 0 .931 1.141h30.134v-.008z" fill="#305B78"/>
    <path d="M43.846 21.14c3.356 2.391 7.946 1.166 7.946 1.166.562 5.64-.881 9.172-2.861 11.379-1.46 1.628-3.172 2.467-4.372 2.937a9.204 9.204 0 0 1-3.147.512 9.389 9.389 0 0 1-2.954-.512c-3.407-1.284-8.19-4.783-7.241-14.316 0 0 4.59 1.225 7.946-1.166a3.915 3.915 0 0 1 2.333-.78 3.99 3.99 0 0 1 2.35.78z" fill="#fff" stroke="#305B78" stroke-miterlimit="10"/>
    <path d="M36.277 35.036c.352-.37 2.14-2.148 5.01-2.232 3.138-.092 5.127 1.905 5.446 2.232-.034.025-.093.059-.152.1-.604.395-2.542 1.629-5.244 1.587-2.467-.042-4.238-1.125-4.926-1.603-.042-.025-.084-.059-.126-.084h-.008z" fill="#EBAB21"/>
</svg>
