<svg width="50" height="50" viewBox="0 0 50 50" fill="none" xmlns="http://www.w3.org/2000/svg">
<circle cx="25" cy="25" r="23" fill="url(#paint0_linear_1118_30243)" stroke="#DA5B79" stroke-width="4"/>
<path d="M19.0805 29.712C19.6245 29.28 19.8725 29.08 19.8245 29.112C21.3925 27.816 22.6245 26.752 23.5205 25.92C24.4325 25.088 25.2005 24.216 25.8245 23.304C26.4485 22.392 26.7605 21.504 26.7605 20.64C26.7605 19.984 26.6085 19.472 26.3045 19.104C26.0005 18.736 25.5445 18.552 24.9365 18.552C24.3285 18.552 23.8485 18.784 23.4965 19.248C23.1605 19.696 22.9925 20.336 22.9925 21.168H19.0325C19.0645 19.808 19.3525 18.672 19.8965 17.76C20.4565 16.848 21.1845 16.176 22.0805 15.744C22.9925 15.312 24.0005 15.096 25.1045 15.096C27.0085 15.096 28.4405 15.584 29.4005 16.56C30.3765 17.536 30.8645 18.808 30.8645 20.376C30.8645 22.088 30.2805 23.68 29.1125 25.152C27.9445 26.608 26.4565 28.032 24.6485 29.424H31.1285V32.76H19.0805V29.712Z" fill="#2E5055"/>
<defs>
<linearGradient id="paint0_linear_1118_30243" x1="50" y1="50.0001" x2="0" y2="50.0001" gradientUnits="userSpaceOnUse">
<stop stop-color="white"/>
<stop offset="0.605042" stop-color="white"/>
</linearGradient>
</defs>
</svg>
