<svg width="50" height="51" viewBox="0 0 50 51" fill="none" xmlns="http://www.w3.org/2000/svg">
    <circle cx="25" cy="25.486" r="23" fill="url(#zsz2weg33a)" stroke="#9F6BAD" stroke-width="4"/>
    <path d="M19.08 30.198c.545-.432.793-.632.745-.6 1.567-1.296 2.8-2.36 3.695-3.192a15.097 15.097 0 0 0 2.305-2.616c.623-.912.936-1.8.936-2.664 0-.656-.152-1.168-.456-1.536-.305-.368-.76-.552-1.369-.552-.608 0-1.087.232-1.44.696-.335.448-.503 1.088-.503 1.92h-3.96c.031-1.36.32-2.496.863-3.408.56-.912 1.288-1.584 2.184-2.016.913-.432 1.92-.648 3.025-.648 1.904 0 3.335.488 4.296 1.464.976.976 1.463 2.248 1.463 3.816 0 1.712-.584 3.304-1.752 4.776-1.167 1.456-2.655 2.88-4.463 4.272h6.48v3.336H19.08v-3.048z" fill="#305B78"/>
    <defs>
        <linearGradient id="zsz2weg33a" x1="50" y1="50.486" x2="0" y2="50.486" gradientUnits="userSpaceOnUse">
            <stop stop-color="#fff"/>
            <stop offset=".605" stop-color="#fff"/>
        </linearGradient>
    </defs>
</svg>
