<svg width="50" height="51" viewBox="0 0 50 51" fill="none" xmlns="http://www.w3.org/2000/svg">
    <circle cx="25" cy="25.486" r="23" fill="#fff" stroke="#9F6BAD" stroke-width="4"/>
    <path d="M19.458 20.91c.064-1.712.624-3.032 1.68-3.96 1.056-.928 2.488-1.392 4.296-1.392 1.2 0 2.224.208 3.072.624.864.416 1.512.984 1.944 1.704.448.72.672 1.528.672 2.424 0 1.056-.264 1.92-.792 2.592-.528.656-1.144 1.104-1.848 1.344v.096c.912.304 1.632.808 2.16 1.512.528.704.792 1.608.792 2.712 0 .992-.232 1.872-.696 2.64-.448.752-1.112 1.344-1.992 1.776-.864.432-1.896.648-3.096.648-1.92 0-3.456-.472-4.608-1.416-1.136-.944-1.736-2.368-1.8-4.272h3.984c.016.704.216 1.264.6 1.68.384.4.944.6 1.68.6.624 0 1.104-.176 1.44-.528.352-.368.528-.848.528-1.44 0-.768-.248-1.32-.744-1.656-.48-.352-1.256-.528-2.328-.528h-.768v-3.336h.768c.816 0 1.472-.136 1.968-.408.512-.288.768-.792.768-1.512 0-.576-.16-1.024-.48-1.344-.32-.32-.76-.48-1.32-.48-.608 0-1.064.184-1.368.552-.288.368-.456.824-.504 1.368h-4.008z" fill="#305B78"/>
</svg>
