<svg width="50" height="50" viewBox="0 0 50 50" fill="none" xmlns="http://www.w3.org/2000/svg">
<circle cx="25" cy="25" r="23" fill="white" stroke="#DA5B79" stroke-width="4"/>
<path d="M19.4584 20.424C19.5224 18.712 20.0824 17.392 21.1384 16.464C22.1944 15.536 23.6264 15.072 25.4344 15.072C26.6344 15.072 27.6584 15.28 28.5064 15.696C29.3704 16.112 30.0184 16.68 30.4504 17.4C30.8984 18.12 31.1224 18.928 31.1224 19.824C31.1224 20.88 30.8584 21.744 30.3304 22.416C29.8024 23.072 29.1864 23.52 28.4824 23.76V23.856C29.3944 24.16 30.1144 24.664 30.6424 25.368C31.1704 26.072 31.4344 26.976 31.4344 28.08C31.4344 29.072 31.2024 29.952 30.7384 30.72C30.2904 31.472 29.6264 32.064 28.7464 32.496C27.8824 32.928 26.8504 33.144 25.6504 33.144C23.7304 33.144 22.1944 32.672 21.0424 31.728C19.9064 30.784 19.3064 29.36 19.2424 27.456H23.2264C23.2424 28.16 23.4424 28.72 23.8264 29.136C24.2104 29.536 24.7704 29.736 25.5064 29.736C26.1304 29.736 26.6104 29.56 26.9464 29.208C27.2984 28.84 27.4744 28.36 27.4744 27.768C27.4744 27 27.2264 26.448 26.7304 26.112C26.2504 25.76 25.4744 25.584 24.4024 25.584H23.6344V22.248H24.4024C25.2184 22.248 25.8744 22.112 26.3704 21.84C26.8824 21.552 27.1384 21.048 27.1384 20.328C27.1384 19.752 26.9784 19.304 26.6584 18.984C26.3384 18.664 25.8984 18.504 25.3384 18.504C24.7304 18.504 24.2744 18.688 23.9704 19.056C23.6824 19.424 23.5144 19.88 23.4664 20.424H19.4584Z" fill="#2E5055"/>
</svg>
