<svg width="128" height="128" viewBox="0 0 128 128" fill="none" xmlns="http://www.w3.org/2000/svg">
<path d="M66.3405 28.8125C35.1105 29.0225 40.4806 56.4625 40.4806 56.4625H49.6406C49.6406 56.4625 59.3806 56.0625 59.3806 66.3925C59.3806 68.3225 59.5906 69.8425 59.9206 71.0325L65.2606 75.0325V66.9125C65.2606 66.9125 64.8106 62.0625 68.5606 61.2125C71.9706 60.4425 74.3506 63.1225 73.9106 69.4525C73.4906 75.5325 69.2006 75.6725 71.1806 78.5225C71.5906 79.1225 72.0606 79.8025 72.5606 80.5125L73.5406 81.2425L80.1206 86.9425L82.8806 78.1125C88.3405 67.9125 90.1106 52.1625 90.1106 52.1625C88.8206 27.6225 66.3506 28.8225 66.3506 28.8225L66.3405 28.8125Z" fill="#DA5B79"/>
<path d="M78.9289 99.241C78.9289 99.241 79.3989 84.801 84.5889 71.581C89.7789 58.361 98.4089 31.371 65.8889 28.811C37.9789 26.621 39.2389 56.181 39.7189 61.721C39.7689 62.311 39.6289 62.901 39.3089 63.391L35.4089 69.541C34.3789 71.161 35.3389 73.331 37.2189 73.611C38.4889 73.801 39.4389 74.911 39.4389 76.221C39.4489 80.421 40.8189 88.961 51.8989 88.081C53.3989 87.961 54.6589 89.231 54.6589 90.771V99.231" stroke="#2E5055" stroke-width="3" stroke-miterlimit="10" stroke-linecap="round"/>
<path d="M102.291 48.6984C102.635 46.3655 86.084 41.9889 65.3223 38.9231C44.5606 35.8573 27.4507 35.2632 27.1062 37.5961C26.7617 39.9291 43.3131 44.3056 64.0748 47.3715C84.8365 50.4373 101.946 51.0314 102.291 48.6984Z" stroke="#2E5055" stroke-width="2.5" stroke-miterlimit="10" stroke-linecap="round"/>
<path d="M65.7675 47.5538C85.813 44.3717 101.769 39.9394 101.406 37.654C101.043 35.3685 84.4992 36.0954 64.4537 39.2774C44.4083 42.4595 28.4523 46.8918 28.8151 49.1772C29.1779 51.4627 45.7221 50.7359 65.7675 47.5538Z" stroke="#2E5055" stroke-width="2.5" stroke-miterlimit="10" stroke-linecap="round"/>
<path d="M55.5508 99.8086H73.9708" stroke="#2E5055" stroke-width="3" stroke-miterlimit="10" stroke-linecap="round"/>
</svg>
