<svg width="128" height="128" viewBox="0 0 128 128" fill="none" xmlns="http://www.w3.org/2000/svg">
<path d="M64.4307 77.9434C71.9421 77.9434 78.0313 71.8542 78.0313 64.3428C78.0313 56.8314 71.9421 50.7422 64.4307 50.7422C56.9193 50.7422 50.8301 56.8314 50.8301 64.3428C50.8301 71.8542 56.9193 77.9434 64.4307 77.9434Z" fill="#DA5B79"/>
<path d="M95.778 60.0245C94.6766 60.2968 93.9464 61.3239 94.033 62.4501C94.0825 63.0813 94.1073 63.7124 94.1073 64.3559C94.1073 81.6444 79.5785 95.6039 62.092 94.6758C46.7836 93.859 34.2473 81.3227 33.4305 66.0142C32.5023 48.5277 46.4618 33.999 63.7503 33.999C72.1161 33.999 79.7023 37.4022 85.197 42.8969L83.5139 35.8058C76.7445 31.1031 68.255 28.7394 59.1838 29.9027C43.4917 31.9199 30.9801 44.6542 29.2228 60.371C26.8839 81.3103 43.269 99.1062 63.7503 99.1062C82.9075 99.1062 98.5006 83.5131 98.5006 64.3559C98.5006 63.5392 98.4758 62.7224 98.4139 61.918C98.3149 60.6062 97.0526 59.7028 95.778 60.0245Z" fill="#235256"/>
<path d="M82.8456 64.3441C82.7219 74.8756 74.2818 83.4394 63.7503 83.4394C53.2188 83.4394 44.655 74.8756 44.655 64.3441C44.655 53.8126 53.2188 45.2488 63.7503 45.2488C69.9628 45.2488 75.4822 48.2436 78.9721 52.8596L78.44 46.0408C74.4179 42.7984 69.3069 40.8555 63.7503 40.8555C50.8056 40.8555 40.2617 51.387 40.2617 64.3441C40.2617 77.3011 50.7932 87.8326 63.7503 87.8326C76.7074 87.8326 87.2389 77.3011 87.2389 64.3441C87.2389 61.2873 82.8827 61.7328 82.8456 64.3441Z" fill="#235256"/>
<path fill-rule="evenodd" clip-rule="evenodd" d="M75.8879 51.6678C76.6284 52.3768 76.654 53.5519 75.945 54.2924L65.0917 65.6283C64.3827 66.3689 63.2076 66.3944 62.4671 65.6854C61.7266 64.9764 61.701 63.8013 62.41 63.0608L73.2633 51.7249C73.9723 50.9844 75.1473 50.9588 75.8879 51.6678Z" fill="#235256"/>
<path d="M85.0368 31.7852L74.332 39.5569V51.7839H87.5119L97.9568 42.8241L87.3757 40.9925L85.0368 31.7852Z" fill="#DA5B79"/>
<path fill-rule="evenodd" clip-rule="evenodd" d="M84.698 30.464C85.426 31.1859 85.4309 32.3612 84.7091 33.0892L76.4607 41.4073V51.1497H87.8787L96.4142 43.1382C97.1617 42.4365 98.3364 42.4737 99.0381 43.2213C99.7397 43.9688 99.7025 45.1436 98.955 45.8452L89.8838 54.3595C89.5396 54.6825 89.0854 54.8623 88.6134 54.8623H74.6044C73.5791 54.8623 72.748 54.0312 72.748 53.006V40.6429C72.748 40.1533 72.9415 39.6835 73.2862 39.3358L82.0728 30.475C82.7947 29.747 83.97 29.7421 84.698 30.464Z" fill="#235256"/>
</svg>
