<svg width="128" height="128" viewBox="0 0 128 128" fill="none" xmlns="http://www.w3.org/2000/svg">
<path d="M61.6121 59.832L35.8655 76.3139L35.4863 79.3221L63.508 97.6619V86.1726H95.0939V70.6514L64.7593 70.209" fill="#DA5B79"/>
<path fill-rule="evenodd" clip-rule="evenodd" d="M62.2973 29.1771C62.9142 28.8473 63.6625 28.8839 64.2442 29.2725L94.2376 49.306C94.7752 49.6651 95.0928 50.2734 95.0801 50.9198C95.0674 51.5662 94.7262 52.1616 94.1749 52.4993L64.3584 70.7633C63.7733 71.1217 63.0402 71.136 62.4416 70.8006C61.843 70.4653 61.4722 69.8327 61.4722 69.1466V58.9339C61.4722 57.8868 62.321 57.038 63.3681 57.038C64.4152 57.038 65.264 57.8868 65.264 58.9339V65.7619L89.6677 50.8135L65.0871 34.3953V43.0208C65.0871 44.0679 64.2383 44.9167 63.1912 44.9167H33.7918V58.2134H37.7859C38.833 58.2134 39.6818 59.0623 39.6818 60.1094C39.6818 61.1564 38.833 62.0053 37.7859 62.0053H31.8959C30.8488 62.0053 30 61.1564 30 60.1094V43.0208C30 41.9737 30.8488 41.1249 31.8959 41.1249H61.2953V30.849C61.2953 30.1495 61.6804 29.5069 62.2973 29.1771Z" fill="#235256"/>
<path fill-rule="evenodd" clip-rule="evenodd" d="M64.4158 56.9548C65.0242 57.2872 65.4027 57.9252 65.4027 58.6186V67.1376H94.0436C95.0907 67.1376 95.9396 67.9864 95.9396 69.0335C95.9396 70.0806 95.0907 70.9294 94.0436 70.9294H63.5068C62.4597 70.9294 61.6108 70.0806 61.6108 69.0335V62.0887L36.8379 77.9416L61.6108 94.1602V86.1726C61.6108 85.1255 62.4597 84.2766 63.5068 84.2766H92.1477V78.8038C92.1477 77.7567 92.9966 76.9079 94.0436 76.9079C95.0907 76.9079 95.9396 77.7567 95.9396 78.8038V86.1726C95.9396 87.2196 95.0907 88.0685 94.0436 88.0685H65.4027V97.6618C65.4027 98.3573 65.0218 98.997 64.4104 99.3285C63.7989 99.66 63.0551 99.6301 62.4722 99.2506L60.8417 98.1889L60.8378 98.1863L32.3082 79.5037C31.7708 79.1507 31.4489 78.5495 31.4532 77.9066C31.4574 77.2637 31.7871 76.6667 32.3291 76.3208L62.4825 57.0231C63.066 56.6486 63.8073 56.6224 64.4158 56.9548Z" fill="#235256"/>
</svg>
